<?xml version="1.0" encoding="utf-8"?>
<!-- Generator: Adobe Illustrator 19.0.0, SVG Export Plug-In . SVG Version: 6.00 Build 0)  -->
<svg version="1.1" id="레이어_1" xmlns="http://www.w3.org/2000/svg" xmlns:xlink="http://www.w3.org/1999/xlink" x="0px"
	 y="0px" viewBox="0 0 602.7 176" style="enable-background:new 0 0 602.7 176;" xml:space="preserve">
<style type="text/css">
	.st0{fill:#FFFFFF;stroke:#040000;stroke-width:3;stroke-miterlimit:10;}
	.st1{fill:#040000;}
</style>
<g id="XMLID_56_">
	<ellipse id="XMLID_415_" class="st0" cx="299.8" cy="87.6" rx="299.9" ry="86.1"/>
	<g id="XMLID_306_">
		<path id="XMLID_356_" class="st1" d="M93.8,46.4c0,0,0.3,0.3,0.3-0.3h-0.3v-0.9h0.3c0-0.3-0.9-0.6,0-0.9c0.3-0.3,0.6-0.3,1.2-0.3
			c0,0,0.3,0.3,0.3,0.6h-0.3l0.6,0.3c-0.9,0,0.3,0.9-0.6,0.9l0.3,0.3c0.6,0.3-0.3,0.3,0,0.9h0.3c0.3,0.3-0.3,0.3-0.3,0.6h0.2
			c-0.2,0.1,0.1,0.3,0.1,0.3c0,0.3-0.9,0.6-0.3,1.2c0,0.3-0.3,0.3-0.3,0.6h0.2c-0.6,0.1,0,0.8-0.6,0.9c0.3,0,0.3,0.2,0.3,0.3
			c-0.1,0-0.2,0-0.2,0l-0.3,0.6v-0.3h-0.3c0-0.3-0.3-0.9-0.3-1.2c-0.3,0,0-0.3-0.3-0.3c-0.3-0.3,0-0.6,0-0.6
			C93.5,48.2,93.8,47.6,93.8,46.4z M98.7,46.7c0.3,0-0.3-0.3,0-0.6c0.1-0.2,0.1-0.4,0.1-0.6c-0.1-0.5-0.3-1.2-0.1-2.1
			c0.3-0.6,0.9-0.6,1.5-0.6h0.3V43c0.6-0.3,0,0.6,0.6,0.6c-0.3,0.6,0.3,2.1-0.3,2.7c0.3,0,0,0.6,0.3,0.9l-0.3,0.3c0.3,0,0,0.3,0,0.3
			v0.3c0.3,0.3-0.6,0.3-0.3,0.6c0.3,0,0,0.3,0,0.6h0.3c-0.6,0.3,0,0.9,0,1.5h-0.3c0,0,0,0.9-0.6,1.2c-0.3,0-0.6-0.6-0.6-0.9v-0.3
			c-0.6,0-0.3-0.6-0.6-0.9c0-0.3,0.6-0.3,0.3-0.6c0-0.3-0.9-0.6-0.3-0.9l-0.3-0.3l0.3-0.3h-0.3c0.6-0.3,0-0.6,0.3-0.9V46.7z"/>
		<path id="XMLID_359_" class="st1" d="M103.3,50.1h0.3c0.3-0.5,1.1,0,1.2-0.7v0.1c0.3-0.6,0.6-0.3,0.9-0.6c0.6,0,0.9-0.6,1.2-0.3
			c0.3-0.3,0.3,0,0.6-0.3c-0.3-0.6,0.9-0.3,1.2-0.9c0.3,0.6,0.6-0.6,0.9,0.3c0.3-0.3,0.6-0.3,0.6-0.6H110c0.3-0.3,0.6,0.3,0.9-0.3
			c0.3,0,0.6-0.3,0.9,0c-0.2-0.2,0.3-0.3,0.3-0.5v0.2c0.1-0.2,0.6,0,0.6-0.3h0.9c0.3-0.3,1.2-0.3,1.2-0.6c0.3,0,0.9,0,1.2-0.3
			c0,0.6,0.3,0,0.6,0.6c0-0.9,0.9,0,1.2-0.3h0.3c-0.3,0.3,0.3,0.3,0.3,0.6c-0.6,0-0.6,0.6-1.2,0.3c-0.3-0.3-0.3,0.3-0.9,0.3
			c-0.3,0.3-0.9,0-1.2,0.3c-0.6,0-1.2,0.3-1.8,0.3c-0.9,0.6-1.8,0.6-2.7,1.2l-0.9,0.3l-5.1,1.8c-0.3,0.3,0.3,0,0.3,0.3h0.3
			c-0.6,0.6-1.2,0.6-1.8,0.3c-0.2-0.5-0.3-1.1-0.7-1.4L103.3,50.1z M110.3,56.8c0.3-0.2,0.6,0.3,0.6,0c0.3,0.3-0.3,0.9,0,1.5
			c-0.3,0.3-0.3,0.6,0,0.6c0.3,0.6,0,1.2,0.3,1.8h-0.6c0.8,0.6,0.2,1.4,0.2,1.9c-0.1-0.1-0.2-0.1-0.2-0.1v0.9
			c-0.3,0.3,0.3,0.3,0,0.6h-0.3v0.3h0.2c0,0.3-0.2,0.6,0,0.6c-0.3,0-0.8-0.2-0.8,0.3c0,0.3,0.3,0.3,0.6,0.6c-0.3,0.3,0,1.5-0.9,1.5
			c-0.3,0-0.1,0.3-0.3,0.3h0.3c0.3,0,0,0.3,0.3,0.3h0.3c0,0.3,0,0.3,0.3,0.3s0.3-0.3,0.6-0.6c0.3,0,1.2,0.3,1.2-0.6
			c0.3,0.3,0.9-0.3,1.2,0c0.6-0.3,0.9-0.6,1.2-0.3v-0.3c0.3,0,0.6,0,0.6-0.3l0.9,0.3h-0.3c0.3,0.3,0.3-0.3,0.6-0.3s0.3,0.3,0.3,0.3
			c0.3,0,0.6,0,0.3-0.2c0.6-0.1,0.6-0.8,1.2-0.1l0.3-0.3v0.3c0.3-0.3,0.6,0,0.6,0v0.3c-0.3,0.3-1.2,0.3-1.2,0.9
			c-0.3,0.3-1.2-0.3-1.2,0.6c-0.6,0-0.6,0.3-0.9,0.6l-0.3-0.3l-0.3,0.3v-0.3c-0.3,0.3-0.3,0.6-0.6,0.6c-0.3-0.3-0.3,0.3-0.6,0.3
			s-0.9,0.3-1.2,0.3c-0.6,0-1.5,0.9-2.1,0.6c0.3,0.3-0.3,0.3-0.6,0.3c-0.3,0-0.3,0.3-0.9,0.6s-1.8,0.3-2.4,0.6
			c-1.2,0.3-0.3-1.1-1.2-0.3c-0.5-0.2-0.1-0.9-0.6-1.2c0.3-0.3,0.6-0.6,0.9-0.6c0.3-0.6,1.5-0.3,1.2-1.2h0.2c0,0,0.6-0.3,0.1-0.6
			h0.6c-0.3-0.3-0.3-0.6,0-0.9V67l0.3-0.3h-0.3l0.3-0.3h-0.3l0.3-0.3c-0.3,0-0.3-0.3,0-0.3h0.3c-0.3-0.3-0.3-0.6-0.3-0.6
			c0.3,0,0.6,0,0.6-0.3c-0.6,0,0-0.6-0.3-0.9c0.3,0,0.3,0,0.3-0.3c0,0-0.3-0.6,0.2-0.6c-0.2-0.1-0.2-0.6,0.1-0.6
			c0.3-0.3,0-0.6,0-0.9c0.3-0.3,0-0.6,0-0.9c0.3-0.6,0.3-1.2,0.3-1.8c0.6,0,0-0.3,0.3-0.6c-0.3-0.6-0.3-0.6,0-0.9
			c0.3-1.5-0.3-2.1,0-3.3c0-0.3-0.3-0.9,0.3-1.2c0-0.3,0,0,0.3,0l-0.3,0.6h0.6v0.3l-0.3,0.3c0.3,0,0,0.3,0,0.3l0.3,0.3
			c0,0.3,0,0.6,0.3,0.6c-0.6,0.3-0.6-0.9-0.9,0c0.3-0.3,0.5,0.5,0.8,0.4l-0.2,0.2c0,0.1,0,0.2,0,0.3
			C110.6,56.4,110.4,56.6,110.3,56.8z"/>
		<path id="XMLID_362_" class="st1" d="M130.4,58.4v0.3c-0.3,0,0.2-0.5-0.1-0.6c0.2,0.1,0.4,0.2,0.4,0c-0.3-0.6,0.9-0.9,0-1.2
			c0.3-0.3,0-0.6,0.3-0.9c-0.3-0.3-0.3-0.9-0.3-1.5c0.6-0.3,0.6-0.6,0.6-0.9c-0.3-0.3-0.3-0.6-0.6-0.9l0.3-0.3
			c0.3-0.9-0.3-1.2,0-1.8l-0.3-0.3c0.3-0.3,0-0.6,0-0.6c-0.3,0,0.3,0,0.3-0.3l-0.3-0.3h0.3c0-0.6,0-0.9,0.6-1.2l0.6,0.6
			c0,1.5,0.3,3,0.3,4.5c0,0.6,0,0.9-0.3,1.5c0.3,1.2,0,2.1,0,3.3c0.6,0.3-0.6,0.9,0,1.2c-0.3,0.3-0.3,0.9-0.3,1.2
			c-0.3,0.3,0.3,0.9,0,1.5v0.6c-0.3,0.3,0,0.6,0,0.6c0.3,0.6-0.3,0.9,0,1.2c0,0.3,0,0.6-0.3,0.9l-0.3,0.3h0.6
			c0.3,0.6-0.6,0.6-0.6,0.9c0.3,0,0.6,0,0.6,0.3c-0.6,0-0.3,0.3-0.3,0.6l-0.3,0.6c0.3,0.6,0,1.2-0.3,1.5c0,0,0.3,0,0.3,0.3H131
			l0.3,0.6v-0.3c0.3,0.3-0.3,0.9,0,0.9c0.3,0.3,0,0.9-0.3,0.9l-0.3,0.3c-0.1-0.1-0.2-0.2,0-0.3h-0.3v-0.3c0-0.6-0.6-1.2-0.3-1.5
			l0.3-0.3c0,0-0.6,0,0-0.3h-0.3c0.6-0.3-0.6-0.9,0.3-1.2h-0.3l0.3-0.3h-0.3c0-0.3,0.3-0.6,0.3-0.9c-0.6-0.3,0-0.6,0-0.9
			c-0.3-0.6-0.6-0.9-0.3-1.5v-0.1c0-0.3,0.3-0.8,0-1.1l0.3-0.3c0.6-0.3-0.3-0.6-0.3-0.9c0.3-0.3,0.3-0.6,0-0.9
			c0.9,0-0.3-0.9,0.6-1.2v-0.3c0,0-0.3-0.6-0.9-0.6l0.9-0.3L130.4,58.4z"/>
		<path id="XMLID_364_" class="st1" d="M137.6,62.6v0.2c0.1,0.3,0.3,0.5,0.3,0.8c-0.9,0,0.3,0.6,0,0.6c0-0.3-0.3,0.3-0.6,0.3
			c0.3,0.3,0.9,0,0.6,0.3v0.6c0-0.3-0.3-0.3-0.3-0.3c0.3,0.6,0.3,0.9,0,1.5c0.6,0.3-0.6,0.9,0.3,1.2c-0.3,0-0.1,0.3-0.3,0.3h0.3
			c0,0.3-0.3,0.3-0.3,0.3h-0.3c-0.3,0.6,0.3,0,0.3,0.6v0.9c0,0.3,0.3,0.9,0,1.2c0.3,0,0.3,0.3,0.3,0.6c-0.3,0.3-0.9,0-1.2,0l0.3,0.6
			c-0.6-0.3-0.3-0.6-0.6-0.9c-0.9-1.8,0-3.9-0.3-5.7c0.3-0.3,0.3-0.6,0-0.9c0-0.3,0.6-0.6,0.3-1.2c0.6-0.6-0.3-1.5,0.3-2.1
			c0.3,0.3,0.3,0,0.3-0.3l-0.3-0.3h0.6c0.6,0.3-0.3,0.9,0.3,0.9C137.3,62,137.4,62.3,137.6,62.6L137.6,62.6z M137.3,48.1H137
			l0.3-0.3H137c0.6-0.3,0.9,0.3,1.2,0.3h0.3c-0.6,0.3,0,0.6-0.3,0.9h0.6c-0.3,0.3,0.3,1.2-0.6,1.2v0.3h0.6v1.2l-0.3-0.3v0.3
			l-0.3,0.3h0.3l0.3,1.2c-0.3,0-0.6-0.3-0.6,0c0.3,0.3,0.3,0.3,0.3,0.6c-0.6,0,0.3,0.6-0.3,0.6v0.3h-0.6v0.3c0,0-0.3,0-0.3-0.3
			l0.3-0.3c-0.3-0.3-0.6-0.3-0.3-0.9l0.3-0.3h-0.3V53c-0.3-1.2-0.3-3-0.3-4.5L137.3,48.1z"/>
		<path id="XMLID_367_" class="st1" d="M143.4,65.8l-0.6-0.3c-0.3-0.3,0.9-0.9,0.3-1.5c0.6,0,0-0.6,0.3-0.9c-0.3-0.3,0.6-0.6,0-0.9
			c0.6-0.6,0-1.5,0-2.1c-0.3-0.6,0-1.2,0-1.8c0-0.3-0.3-0.9,0.3-1.2c-0.3-0.6,0-1.5-0.3-2.1h0.3c-0.3-0.6,0.3-1.5-0.3-2.1
			c0.3-0.9,0.3-2.1,0.9-3c1.2,0,0.6,1.2,0.9,1.8c-0.6,1.2,0.9,2.1-0.3,3l-0.3,4.5c0,0.9,0,2.7,0.3,3.9c0,0,0.3,0.3,0.6,0l-0.3-0.3
			c0.6-0.3,0.9-0.6,1.2-0.3c0-0.6,0-0.9,0.6-0.9h0.3l0.3-0.9c0.3,0,0.3,0.3,0.6,0.3l0.3-0.3h-0.6c0.2-0.2,0.5,0,0.6-0.2v0.2
			c0-0.2,0.3-0.6,0.6-0.6c0,0-0.3-0.3,0-0.3v-0.3l0.9-0.6v0.3l0.5-0.5l0.1,0.2c0-0.1-0.1-0.2,0-0.2l0.1-0.1h-0.1
			c0.1-0.2,0.5-0.4,0.7-0.6v-0.3c0.6,0.6,0.9-0.3,1.5,0c0-0.3,0.3-0.3,0-0.6h-0.3v0.3h-0.6c0.6-0.3,0.3-0.9,0.9-1.2l0.6,0.3
			c-0.1,0.1-0.5,0.3-0.3,0.3c0.3,0,0.3-0.6,0.6-0.3l0.3,0.3c-0.6,0,0,0.3-0.3,0.3c-0.6,0.3-0.9,1.2-1.5,1.5l-3,3h-0.3
			c-0.3,0.3-0.6,0.9-1.2,0.9c0,0.3-0.6,0.9-0.9,1.2c0,0.6-1.2,0-0.9,0.9c-0.3,0-0.3,0-0.6,0.3l3.6,2.7l3.6,1.8l0.8,0.3
			c1.2,0.4,2.5,0.9,3.4,1.5c0,0.3-0.3,0-0.3,0.3c0.3,0.3,0.6-0.3,0.6,0l-0.9,0.3c-0.3,0-0.6-0.6-1.5-0.3c0-0.3,0-0.3-0.3-0.3
			s-1.2-0.6-1.5-0.3l-0.5-0.2l-0.7-0.4l-0.9-0.3v-0.3l-0.2,0.2c-0.3,0-0.9,0.2-0.7-0.5c-0.3,0-0.6-0.3-0.9,0c-0.3-0.3,0.3-0.6,0-0.6
			s0,0.3-0.3,0.3v-0.3h-0.3l-0.3-0.3v0.3c-0.3-0.6-1.2-0.3-1.2-0.9h-0.3v-0.3c-0.6,0-0.9-0.3-1.2-0.9c-0.3,0.3-0.3,0.3-0.3,0.6
			c0,0.9,0,2.9,0.3,3.5l-0.3,0.3c0,0-0.3,0.3,0,0.6c-0.3,0.3,0.3,0.9-0.3,0.9l-0.3,0.9c0-0.3-0.6,0-0.6-0.3L144,73
			c-0.6-0.3-0.3-1.2-0.3-1.8s0.3-2.6,0-3.2c-0.3,0-0.3-0.3-0.3-0.3c0.6,0,0.3-0.6,0.3-0.9l-0.6-0.3c0,0,0.3,0,0.3-0.3V65.8z"/>
		<path id="XMLID_369_" class="st1" d="M165.9,68.7V69c0.3,0,0.6-0.3,0.9,0h0.3v-0.3c0.3,0.3,0.3-0.3,0.6,0.3l0.3-0.6v0.3h0.3
			c-0.3-0.2-0.2-0.3-0.1-0.3H168c0.3-0.3,0.9,0.3,1.2,0.3l-0.3,0.6l-1.5,0.6v-0.3c-0.3,0-0.3,0.3-0.3,0.3v0.3
			c-0.3,0.6-1.2-0.3-1.5,0.6l-1.2,0.1c-0.6,0.6-1.2-0.6-1.8,0c-0.6-0.3-0.6,0.6-1.2,0c-0.3-0.3-0.6,0.3-0.6-0.3h-0.6
			c-0.3,0-0.6-0.3-0.6-0.6c-0.6,0.6-0.9,0-1.2,0c-0.3-0.3-0.9-0.6-0.6-1.2c-0.6,0,0-0.6-0.6-0.6c0-0.3-0.9-0.9-0.3-1.2
			c-0.6,0,0-0.9-0.3-1.5c0.6-0.3-0.6,0,0-0.6h0.3c0-0.3-0.6-0.3-0.3-0.6c0-0.3-0.3-1.2,0.3-1.2h0.2c-0.2,0,0-0.3-0.2-0.3
			c0-0.3,0-0.6,0.6-0.9c-0.3,0,0-0.3,0-0.6c0.6,0,0.3,0,0.9-0.3l-0.3-0.3h0.3V61l0.3-0.3c-0.3-0.3,0.3-0.3,0-0.6h0.3v-0.3h0.3
			c-0.6-0.3,0.3-0.6,0-0.9c0-0.3,0.6-0.3,0.9-0.6c0-0.2-0.2-0.3-0.3-0.3c0.1,0,0.4,0,0.3-0.2c0.2,0.2,0.3-0.1,0.5-0.1
			c0.6-0.6,1.2-0.3,1.2-0.9c0-0.9,1.5-0.3,1.2-1.2c0.3,0.3,0.3-0.3,0.6,0v0.3c0.3-0.6,0.9,0,1.2,0.3c-0.3,0.9,1.2,1.5,0.6,2.1
			c0,0.3,0.3,0.3,0,0.6l0.3,0.3l-0.3,0.3c-0.3,1.5-1.2,3.6-3,4.5c-0.9,0.3-0.9,0.6-1.8,0.6c0,0.3-0.3,0.3-0.6,0.3l-0.3-0.3v0.3h-0.3
			c0,0.3-0.3-0.3-0.6-0.3c-0.3-0.3-0.3-0.9-0.3-1.2c-0.9,1.5-1.2,3.6,0,5.1c0.6,0.6,1.5,0.6,2.1,0.9c0.6-0.3,1.5,0,1.8,0.3l0.3-0.3
			c0.3,0,0.6-0.3,0.9,0l0.3-0.1c0.3-0.3,0.6-0.3,0.9-0.3S165.6,69,165.9,68.7z M159.8,61c-0.9,0.6,0.3,0.9,0.3,1.5
			c-0.3,0-0.3,0.3-0.3,0.6c0.6,0,0.9-0.6,1.5-0.3c0-0.6,0.3-0.6,0.6-0.6v0.3l0.3-0.3c0.3-0.3,0.3-0.9,0.9-0.9
			c0.6-0.3,0.6-1.8,1.5-2.1h-0.3c0.6-0.3-0.3-0.6,0.3-0.9v-0.6c0-0.3-0.6-0.6-0.9-0.3C162.2,58,160.7,59.5,159.8,61z"/>
		<path id="XMLID_372_" class="st1" d="M177.7,62.2c0.2-0.2,0.1-0.3,0-0.3c0.3,0,0.6-0.3,0.6,0c0.3-0.3-0.3-0.3,0.3-0.6
			c0,0.3,0.3,0,0.3,0V61c0.3,0.6,0.6-0.2,0.9,0l-0.3-0.3c0.3,0,0.6-0.3,0.9,0v-0.3c0.9,0,0.9-0.6,1.8-1.2l0.9-6.5l0.3-2.7
			c1.5,0.9,0.6,3,0.9,4.5l-0.3,0.3c0.6,0.3,0.3,0.9,0.3,1.2c0,0.9-0.3,2.2,0,2.8v0.3l0.3-0.3c0.3,0.6,0.3,0,0.9-0.3l0.2,0l0.9-0.3
			h0.3l0.3,0.3c0.3-0.3,0.6-0.6,0.9-0.6c0.3,0.3,0,0.3-0.3,0.6l0.3,0.3c0.3-0.3,0.6-0.3,0.6-0.6v-0.3c0,0,0.3,0.6,0.3,0.9l0.3-0.9
			c0.3,0,0.6,0.3,0.9,0.3c0-0.9,0.9,0,1.5-0.3c0,0.3-0.6,0.3-0.6,0.3h-0.3c0,0,0.3,0.3,0,0.6c-0.3,0-0.6-0.3-0.9-0.3
			c0,0.9-0.9,0.3-1.8,0.9c-0.3-0.3-0.3,0-0.6,0.3l-3.5,1c-0.3,0.9,0,1.8-0.3,3c0,0-0.3,0,0,0.3h-0.3c0.6,0.6-0.3,1.8,0,2.7v0.6h-0.3
			c0,0.3,0.6,1.2-0.3,1.5c0,0.2,0.2,0.3,0.2,0.3h-0.2c0,0.3,0.6,0.9,0.3,1.5h-0.3c0,0.3,0,0.3,0.3,0.3l-0.3,0.3h0.2
			c-0.4,0,0.1,0.3,0.1,0.6h-0.3c0,0.3,0,0.3,0.3,0.3c0,0-0.3,0.2-0.3,0.5v-0.2c-0.6,0.9-0.9,0-1.2,0c-0.6-0.6,0.3-1.5-0.3-2.1
			c0.3-0.9,0-1.2,0.3-2.1c-0.3-0.6,0.3-1.2,0-1.8c0.3-1.2,0.3-2.4,0.3-3.3c0-0.6,0.3-1.2,0-1.8c-1.2,0.3-2.1,1.2-3,2.1
			c-0.3,0-0.6-0.6-0.9-0.3s-0.6,0-0.3-0.6V62.2z"/>
		<path id="XMLID_374_" class="st1" d="M191.5,65.7c-0.4-0.7,1.1-0.3,0.4-1c0-0.3-0.4-1,0-1c-0.4-0.4,0-1.1,0.4-1.4
			c0-0.3,0.3-0.3,0.3-1l0.4-0.3l-0.4-0.4l0.8-0.3c-0.8,0-0.4-0.3-0.4-0.7l0.7-0.3c-0.3-0.3-0.6-0.1-0.7,0c0.3-0.3,0.7-0.3,1.1-0.3
			c-0.4-0.7,0-1.1,0.4-1.7c0.7,0,1.4,0.4,1.8,1c-1.1-0.3-0.7,1.1-1.1,1.4c-0.4,0.7-0.7,1.7-1.1,2.1c0.7,0.3-0.4,0.6,0,1.4
			c-0.4,1-0.4,1.7-0.4,2.7c0,0.3,0,0.7-0.3,1c0.3,0.3,0,1.4,0.7,2.1c1.5,0,2.2-1.4,3.3-2.1c0.8-0.3,0.4-1.3,1.1-1.7c0.4-1,0-2,0-2.8
			c0,0,0.8-0.3,0-0.3l0.4-0.3c-0.7,0,0-1.1-0.4-1.4c-0.3-0.3,0-1-0.3-1c0.7-0.7-0.8-1.4-0.4-2.1c0-0.3-1.1,0-1.1-0.7
			c0.4,0,0.4,0,0.7-0.3H197c0.3-0.7,0.7,0.3,1.1,0.3c0,0.7,0.7,0.3,0.7,0.7c-0.4,0.7,0.7,1,0.4,1.7l0.3,0.3c0.4,0.3,0.4,1,0,1.3
			l0.4,0.4c0.4,0.7-0.4,1.3,0.4,2c-0.8,0.3,0,0.7,0,1c0.4,0.3-0.8,0.3-0.4,1l0.4,0.4c0,0-0.4,0.3-0.4,0.6v0.4c0.4,0.6-0.4,1-0.4,1.7
			c0,0-0.3-0.3-0.3,0c-0.4,0.3,0,0.3,0,0.3c-0.8,1.1-2.2,1.7-3.7,2.1c-0.4-0.3-0.8-0.7-1.1,0c0-0.7-1.1-0.3-1.5-0.7
			c-0.7-1-1.1-2-1.5-3.4V65.7z"/>
		<path id="XMLID_376_" class="st1" d="M215.2,57.6c0-0.3,0.8-0.3,0.8-0.9h-0.4c0.4-0.6,1.5-0.6,1.8-0.9h0.7v-0.6l0.4,0.3v-0.3
			c0.4,0,0,0.3,0.4,0.3l0.4-0.3l0.4,0.3c-0.4-0.6,0.3-0.3,0.7-0.6v0.3c0.4,0.3,1.1,0.6,1.5,0.6l-0.3,0.3v0.3l0.3-0.3l0.4,0.3v0.3
			c-0.4,0,0.4,0.6,0,0.6l0.4,0.3l-0.8,0.3h0.4c-0.4,0.3-0.7,0.9-1.1,1.2c-0.4-0.9,0.7-2.1-0.4-3c-0.8-0.3-1.5,0-1.8,0.3
			c-1.5,0.6-2.9,1.8-3.3,3c0.8,2.7,5.2,2.7,6.3,5.4v0.9c0.4,0,0.4,0.3,0.8,0.6c-0.4,0.3,0,0.6-0.4,0.9v-0.2
			c-0.1,0.5-0.4,0.8-0.4,1.4l-0.3-0.3c-0.4,0.3,0.3,0.3,0.3,0.6c-0.7,0-0.3,0.3-1.1,0.6c0,0,0.4,0.3,0.8,0c0,0.9-1.5,0.9-1.5,1.8
			v0.3c-0.3-0.3,0-0.6-0.3-0.6c-0.8,0.6,0.3,1.2-0.8,1.2l0.4,0.3c-0.3,0-0.8,0.2-0.9,0.4c-0.1-0.1-0.3,0-0.3,0.2h0.4
			c0,0.6-1.5,0-1.1,0.9h0.7c-0.7,0.3-1.1,0.3-1.5,0c-0.3-0.3-0.3-0.9-0.3-1.5c0.7,0,0-0.6,0.7-0.6c0.4,0-0.7-1.5,0.8-1.2v-0.3
			c0.3-0.3-0.4-0.3,0-0.6h0.3v-0.3l0.4,0.3v-0.3h0.4c-0.4-0.3,0-0.6,0.4-0.6c0-0.6,1.8-1.5,1.5-2.4l-0.4-0.9l0.4-0.3
			c-1.1,0,0-0.9-1.1-0.9c0-0.6-1.1-0.9-1.5-1.2c-0.3-0.6-0.7-0.3-1.1-0.3l-1.1-0.6c0.4-0.3-0.4-0.3-0.4-0.3c-0.4,0,0-0.9-0.8-0.6
			l-0.3-0.3v0.3l-0.8-1.2c0.4-1.2,0.4-2.1,1.1-2.7L215.2,57.6z"/>
		<path id="XMLID_378_" class="st1" d="M232.6,69.8v-0.4h-0.3v0.1c-0.1,0-0.2-0.1-0.3-0.1c0.2,0-0.1,0-0.1-0.3
			c0-0.4-0.8-1.5-0.8-1.8s-0.3-0.8,0-1.1c-0.3-0.4-0.3,0-0.3,0v0.7c0,0.4-0.8,0.8-0.8,1.1c0,0-0.4,0-0.4,0.4h0.3
			c-0.6,0.1-0.6,1-1.2,1.1h0.6c-0.4,0.4-0.4,0-0.8,0c0,0.3,0,0.4-0.2,0.4c0.1,0-0.2-0.1-0.5-0.4c0,0.4-0.4,0.8-0.8,0.4
			c-0.4-0.4-0.8-0.4-1.1-1.1v0.7c-0.3-0.7-0.7-1.5-1.1-1.8l0.4-0.4h-0.4v-2.2c-0.4-0.8,0.4-1.5,0.4-1.9c0.4-1.5,1.1-2.9,1.8-3.7
			h-0.3c1-0.1,0.3-1.5,1.4-1.1c0.4-1.1,1.1,0,1.1-1.1c0.3-0.4,1.1,0.4,1.1-0.4H230l0.8-0.4c0,0,0,0.4,0.3,0.4
			c0.8,0.8,1.1,1.5,1.1,2.2c0.3,0,0.8,0,0.8,0.4h-0.8l0.8,0.4v0.3l0.4-0.3c0.3,0.7-0.8,1.1,0,1.8c-0.8,0.4-0.4,0.8-0.4,0.8v1.1h-0.4
			v0.7c0.4-0.4,0.4,0.4,0.4,1.1c0,0.4,0,1.1,0.4,1.5H233c0.7,0.4,0.7,1.8,1.1,2.6l0.3,0.5l-0.3,0.4c1.1,0,1.5,1.5,1.8,1.8
			c0,0.4,0.4,0.4,0.4,0.8h0.3v0.4c-0.8,0-1.1-0.4-1.5-0.8c0-0.4-0.3-0.4-0.3-0.4l0.3-0.3c-0.8,0-0.8,0-1.1-0.4l-0.4,0.4
			c-0.8-0.4,1.1-0.4,0-0.8l-0.6-0.2l0.2-0.3C232.7,70.7,232.7,70.2,232.6,69.8L232.6,69.8z M226.3,65.6c0.4,0.8,0,1.5,0.8,2.2
			c1.8-0.3,2.6-2.9,3.3-4.4c1.1-1.1,0.7-2.6,1.1-4.1c-0.4-0.8-0.7-1.1-1.1-1.1l-3,2.2l-1.1,3.7c0.4,0.8-0.4,0.8,0,1.1V65.6z"/>
		<path id="XMLID_381_" class="st1" d="M239.1,56l0,0.1c-0.2-0.2-0.4-0.3-0.6-0.5c-0.3,1.1-0.3,2.3-0.3,3.4c-0.3,0.8,0.3,2,0.6,2.8
			v0.3c0.3,0.3,0.9,0.9,1.2,0c0.6-0.3,0.9-1.1,1.5-1.4c0-0.6,0.3-1.1,0.6-1.7c0-0.6,0.3-1.1,0.6-1.4c0-0.6,0-0.9,0.3-1.1
			c-0.3,0,0-0.3,0.3-0.5c0-0.3,0.3-0.3,0.3-0.3l-0.3-0.3l0.3-0.3c-0.3,0,0.3-0.3,0-0.6v-0.8c0.6,0.3,0.3-0.3,0.6-0.3
			c0.3,0.6,0.6,1.1,0.9,0.6c-0.2,0.5,0.3,1.1,0,1.7c0.3,0.5-0.3,1.4,0,2c-0.3,0.5-0.3,0.5-0.3,0.8c0.3-0.3-0.3,0.5,0.2,0.6
			c-0.5,0-0.2,0.3,0.1,0.6c0,0.2-0.6,0.8,0,1.4h-0.3c0.6,0.3-0.3,1.1,0,1.4c0,0.3,0,0,0.3,0l-0.3,0.6h0.2c0,0.2,0,0.4-0.1,0.3
			l0.3,0.2c0.3,0,0.3-0.3,0.9,0l-0.3-0.3l0.3-0.1c0.6,0,0.3-0.2,0.9-0.2v0.2h0.3c0.3,0-0.3-0.5,0.3-0.5v0.3c0.3-0.6,0.9,0,1.2-0.6
			c0.3,0.6,0.6-0.3,0.6,0.3c0.6-0.3,0.9,0,1.2-0.2l-0.3,0.2c0.2,0,0.4,0.3,0.6,0.3l-0.3,0.2v-0.2c-0.3,0.2,0,0.5-0.6,0.2
			c0,0,0.3-0.2,0-0.2c-0.3,0-0.3,0.2-0.1,0.2c-0.2,0-0.2,0.3-0.2,0.3c-0.3,0-0.3,0.6-0.9,0.3l-0.6,0.3l-1.9,0.9
			c-0.6,0.3-1.2,0.5-1.2,1.1l0.3-0.3c-0.2,0.3,0.6,0.8-0.3,0.8l0.6,0.3c-0.3,0.3,0,0.6,0,0.6h-0.3c0,0.3,0.3,0.3,0.3,0.3l-0.6,0.3
			c0.6,0.3,0,0.8,0.6,1.1c-0.3,0.3,0,0.9,0,1.4l-0.3,0.3l0.3,0.3c0.3,0-0.3,0,0,0.3h0.3l-0.3,0.3l0.1,0.5h-0.3
			c0,0.3,0.3,0.3,0.3,0.3l-0.3,0.2l0.7,0.3c0.3,0.3-0.7,0.3,0,0.6h-0.4v0.6c0,0,0,0.2-0.3,0.2c0,0.3,0.3-0.2,0.7,0
			c-0.4,0.3-0.7,0-0.4,0.3v0.2l-0.3,0.1c0,0.6,0.3,1.2,0,1.7v-0.3h-0.3c0,0-0.3,0.3,0,0.3l-0.3,0.6c0,0,0-0.3-0.3-0.3v0.3
			c0.3,0,0,0.3,0,0.6c-0.6-0.3,0,0.5-0.6,0.2c-0.3,0.3,0,0.6-0.3,0.6h-0.3v-0.2c-0.1,0.2-0.6,0-0.3,0.5l-0.9-0.3v0.3
			c-0.3,0-0.6-0.6-0.9-0.9c0.3-0.5-0.3-0.5-0.6-0.8c0-0.2-0.6-0.5-0.6-1v0.2c-0.6-0.2,0-0.5-0.3-0.8c-0.3-0.6-0.6-1.2-0.6-1.7
			l0.3-0.3c-0.6,0-0.3-0.3-0.6-0.3c0.5-0.3,0.1-0.7,0-1l-0.4-1.2c0-0.3,0.3-0.8,0-1.1l0.6-0.3l-0.3-0.3c0.6-0.3,0-0.6,0.3-0.8
			c0.6-0.3,0.3-1.4,0.9-1.4l0.3-0.5l0.6,0.3c-0.3-0.3,0-0.6,0.3-0.8c0,0,0.3,0,0.3,0.2v-0.5c0.6,0.6,0.3-0.5,1.2-0.5
			c0-0.6,0.6-0.6,0.9-0.6h0.3c-0.3-0.3-0.3-0.3,0-0.6c0-0.8-0.3-2-0.3-2.8h0.3l-0.3-0.3l-0.3-1.7c-0.6,0.5,0,1.1-0.6,1.4
			c-0.3,0.6-0.3,1.1-0.9,1.4h0.3c-0.9,0.6-1.2,2-2.1,1.4l-0.3,0.3l-0.6-0.3h-0.6l0.3-0.3c-1.5-0.6-1.5-2.2-1.8-3.4
			c-0.3-1.9,0.6-3.7,0.6-5.6C238.3,54.5,238.6,55.3,239.1,56z M240.3,71.9c0.1,0.6,0.2,1.3,0.4,2.2l0.2,0.3c0.3,0.2-0.1,0.5,0.3,0.9
			c0.5,0.5,0.4,0.9,1,1.5c0.3,0.3,0.9,0,1.2-0.3c-0.3-0.3,1.2-0.5,0.6-1.4c0.3-0.9,0-1.4,0.6-2c-0.3-0.3,0-0.8,0-1.1l-0.1-1.3
			l-0.3-0.3c0-1.4-0.3-2.8-0.3-4.2l-0.6,0.3c-0.6,0.5-1.5,0.9-1.9,1.7c-0.3,0.3-0.5,0.6-0.7,0.8c-0.2,0.4-0.3,0.9-0.3,1.3
			C240.3,71,240.3,71.4,240.3,71.9z"/>
		<path id="XMLID_384_" class="st1" d="M263.3,62.6v0.2c0.1,0.3,0.3,0.5,0.3,0.8c-0.9,0,0.3,0.6,0,0.6c0-0.3-0.3,0.3-0.6,0.3
			c0.3,0.3,0.9,0,0.6,0.3v0.6c0-0.3-0.3-0.3-0.3-0.3c0.3,0.6,0.3,0.9,0,1.5c0.6,0.3-0.6,0.9,0.3,1.2c-0.3,0-0.1,0.3-0.3,0.3h0.3
			c0,0.3-0.3,0.3-0.3,0.3H263c-0.3,0.6,0.3,0,0.3,0.6v0.9c0,0.3,0.3,0.9,0,1.2c0.3,0,0.3,0.3,0.3,0.6c-0.3,0.3-0.9,0-1.2,0l0.3,0.6
			c-0.6-0.3-0.3-0.6-0.6-0.9c-0.9-1.8,0-3.9-0.3-5.7c0.3-0.3,0.3-0.6,0-0.9c0-0.3,0.6-0.6,0.3-1.2c0.6-0.6-0.3-1.5,0.3-2.1
			c0.3,0.3,0.3,0,0.3-0.3l-0.3-0.3h0.6c0.6,0.3-0.3,0.9,0.3,0.9C263,62,263.1,62.3,263.3,62.6L263.3,62.6z M263,48.1h-0.3l0.3-0.3
			h-0.3c0.6-0.3,0.9,0.3,1.2,0.3h0.3c-0.6,0.3,0,0.6-0.3,0.9h0.6c-0.3,0.3,0.3,1.2-0.6,1.2v0.3h0.6v1.2l-0.3-0.3v0.3l-0.3,0.3h0.3
			l0.3,1.2c-0.3,0-0.6-0.3-0.6,0c0.3,0.3,0.3,0.3,0.3,0.6c-0.6,0,0.3,0.6-0.3,0.6v0.3h-0.6v0.3c0,0-0.3,0-0.3-0.3l0.3-0.3
			c-0.3-0.3-0.6-0.3-0.3-0.9l0.3-0.3H263V53c-0.3-1.2-0.3-3-0.3-4.5L263,48.1z"/>
		<path id="XMLID_387_" class="st1" d="M265.8,62.2c0.2-0.2,0.1-0.3,0-0.3c0.3,0,0.6-0.3,0.6,0c0.3-0.3-0.3-0.3,0.3-0.6
			c0,0.3,0.3,0,0.3,0V61c0.3,0.6,0.6-0.2,0.9,0l-0.3-0.3c0.3,0,0.6-0.3,0.9,0v-0.3c0.9,0,0.9-0.6,1.8-1.2l0.9-6.5l0.3-2.7
			c1.5,0.9,0.6,3,0.9,4.5l-0.3,0.3c0.6,0.3,0.3,0.9,0.3,1.2c0,0.9-0.3,2.2,0,2.8v0.3l0.3-0.3c0.3,0.6,0.3,0,0.9-0.3l0.2,0l0.9-0.3
			h0.3l0.3,0.3c0.3-0.3,0.6-0.6,0.9-0.6c0.3,0.3,0,0.3-0.3,0.6l0.3,0.3c0.3-0.3,0.6-0.3,0.6-0.6v-0.3c0,0,0.3,0.6,0.3,0.9l0.3-0.9
			c0.3,0,0.6,0.3,0.9,0.3c0-0.9,0.9,0,1.5-0.3c0,0.3-0.6,0.3-0.6,0.3h-0.3c0,0,0.3,0.3,0,0.6c-0.3,0-0.6-0.3-0.9-0.3
			c0,0.9-0.9,0.3-1.8,0.9c-0.3-0.3-0.3,0-0.6,0.3l-3.5,1c-0.3,0.9,0,1.8-0.3,3c0,0-0.3,0,0,0.3h-0.3c0.6,0.6-0.3,1.8,0,2.7v0.6h-0.3
			c0,0.3,0.6,1.2-0.3,1.5c0,0.2,0.2,0.3,0.2,0.3H271c0,0.3,0.6,0.9,0.3,1.5H271c0,0.3,0,0.3,0.3,0.3l-0.3,0.3h0.2
			c-0.4,0,0.1,0.3,0.1,0.6H271c0,0.3,0,0.3,0.3,0.3c0,0-0.3,0.2-0.3,0.5v-0.2c-0.6,0.9-0.9,0-1.2,0c-0.6-0.6,0.3-1.5-0.3-2.1
			c0.3-0.9,0-1.2,0.3-2.1c-0.3-0.6,0.3-1.2,0-1.8c0.3-1.2,0.3-2.4,0.3-3.3c0-0.6,0.3-1.2,0-1.8c-1.2,0.3-2.1,1.2-3,2.1
			c-0.3,0-0.6-0.6-0.9-0.3c-0.3,0.3-0.6,0-0.3-0.6V62.2z"/>
		<path id="XMLID_389_" class="st1" d="M281.5,51.4h0.6c0-0.3-0.6,0-0.6-0.3s0.3,0,0.3,0c0-0.9-0.9-0.6,0-0.9v-0.6h-0.3l0.3-0.6
			c-0.6,0,0.3-0.6,0-0.9c0.6,0,0-0.3,0.3-0.6s0-0.3,0-0.6c0.3,0-0.3-0.3,0-0.6l0.3-0.3c-0.3-0.3,0-0.9-0.3-1.2
			c0.6-0.3-0.3-0.6,0-0.9l0.3-0.3h-0.2c0.4,0,0.2-0.3,0.8-0.3c-0.3,0.3,0.3,0.3,0.6,0.3v-0.3l-0.3-0.3c0,0,0-0.3,0.3-0.3
			c0.9,0.3-0.3,1.5,0.3,2.1c-0.3,0.3,0,0.9,0,1.2l-0.3,0.3l0.3,0.3h-0.3c0.3,0.3-0.3,0.6,0.3,0.9c-0.3,0.6-0.3,1.5-0.9,1.8l0.3,0.3
			l-0.3,0.3v0.3h0.3c0,0.3-0.3,0.3-0.3,0.3c0.3,0.6-0.3,0.3-0.3,0.9h0.3c-0.3,0.3,0,1.2-0.6,1.2c0.9,0.3,0,0.9,0.3,1.5l-0.6,0.6
			c0,0-0.3,0-0.3-0.3c0,0,0.3,0.3,0.3,0c0.3-0.3-0.3-0.3-0.3-0.3c0-0.3,0.3,0,0.3-0.3s-0.3-0.3-0.3,0c-0.3-0.6,0-1.2-0.3-1.5
			C281.8,52,281.8,51.7,281.5,51.4z"/>
		<path id="XMLID_391_" class="st1" d="M290.2,57.6c0-0.3,0.8-0.3,0.8-0.9h-0.4c0.4-0.6,1.5-0.6,1.8-0.9h0.7v-0.6l0.4,0.3v-0.3
			c0.4,0,0,0.3,0.4,0.3l0.4-0.3l0.4,0.3c-0.4-0.6,0.3-0.3,0.7-0.6v0.3c0.4,0.3,1.1,0.6,1.5,0.6l-0.3,0.3v0.3l0.3-0.3l0.4,0.3v0.3
			c-0.4,0,0.4,0.6,0,0.6l0.4,0.3l-0.8,0.3h0.4c-0.4,0.3-0.7,0.9-1.1,1.2c-0.4-0.9,0.7-2.1-0.4-3c-0.8-0.3-1.5,0-1.8,0.3
			c-1.5,0.6-2.9,1.8-3.3,3c0.8,2.7,5.2,2.7,6.3,5.4v0.9c0.4,0,0.4,0.3,0.8,0.6c-0.4,0.3,0,0.6-0.4,0.9v-0.2
			c-0.1,0.5-0.4,0.8-0.4,1.4l-0.3-0.3c-0.4,0.3,0.3,0.3,0.3,0.6c-0.7,0-0.3,0.3-1.1,0.6c0,0,0.4,0.3,0.8,0c0,0.9-1.5,0.9-1.5,1.8
			v0.3c-0.3-0.3,0-0.6-0.3-0.6c-0.8,0.6,0.3,1.2-0.8,1.2l0.4,0.3c-0.3,0-0.8,0.2-0.9,0.4c-0.1-0.1-0.3,0-0.3,0.2h0.4
			c0,0.6-1.5,0-1.1,0.9h0.7c-0.7,0.3-1.1,0.3-1.5,0c-0.3-0.3-0.3-0.9-0.3-1.5c0.7,0,0-0.6,0.7-0.6c0.4,0-0.7-1.5,0.8-1.2v-0.3
			c0.3-0.3-0.4-0.3,0-0.6h0.3v-0.3l0.4,0.3v-0.3h0.4c-0.4-0.3,0-0.6,0.4-0.6c0-0.6,1.8-1.5,1.5-2.4l-0.4-0.9l0.4-0.3
			c-1.1,0,0-0.9-1.1-0.9c0-0.6-1.1-0.9-1.5-1.2c-0.3-0.6-0.7-0.3-1.1-0.3l-1.1-0.6c0.4-0.3-0.4-0.3-0.4-0.3c-0.4,0,0-0.9-0.8-0.6
			l-0.3-0.3v0.3l-0.8-1.2c0.4-1.2,0.4-2.1,1.1-2.7L290.2,57.6z"/>
		<path id="XMLID_393_" class="st1" d="M320.3,68.7V69c0.3,0,0.6-0.3,0.9,0h0.3v-0.3c0.3,0.3,0.3-0.3,0.6,0.3l0.3-0.6v0.3h0.3
			c-0.3-0.2-0.2-0.3-0.1-0.3h-0.2c0.3-0.3,0.9,0.3,1.2,0.3l-0.3,0.6l-1.5,0.6v-0.3c-0.3,0-0.3,0.3-0.3,0.3v0.3
			c-0.3,0.6-1.2-0.3-1.5,0.6l-1.2,0.1c-0.6,0.6-1.2-0.6-1.8,0c-0.6-0.3-0.6,0.6-1.2,0c-0.3-0.3-0.6,0.3-0.6-0.3h-0.6
			c-0.3,0-0.6-0.3-0.6-0.6c-0.6,0.6-0.9,0-1.2,0c-0.3-0.3-0.9-0.6-0.6-1.2c-0.6,0,0-0.6-0.6-0.6c0-0.3-0.9-0.9-0.3-1.2
			c-0.6,0,0-0.9-0.3-1.5c0.6-0.3-0.6,0,0-0.6h0.3c0-0.3-0.6-0.3-0.3-0.6c0-0.3-0.3-1.2,0.3-1.2h0.2c-0.2,0,0-0.3-0.2-0.3
			c0-0.3,0-0.6,0.6-0.9c-0.3,0,0-0.3,0-0.6c0.6,0,0.3,0,0.9-0.3l-0.3-0.3h0.3V61l0.3-0.3c-0.3-0.3,0.3-0.3,0-0.6h0.3v-0.3h0.3
			c-0.6-0.3,0.3-0.6,0-0.9c0-0.3,0.6-0.3,0.9-0.6c0-0.2-0.2-0.3-0.3-0.3c0.1,0,0.4,0,0.3-0.2c0.2,0.2,0.3-0.1,0.5-0.1
			c0.6-0.6,1.2-0.3,1.2-0.9c0-0.9,1.5-0.3,1.2-1.2c0.3,0.3,0.3-0.3,0.6,0v0.3c0.3-0.6,0.9,0,1.2,0.3c-0.3,0.9,1.2,1.5,0.6,2.1
			c0,0.3,0.3,0.3,0,0.6l0.3,0.3l-0.3,0.3c-0.3,1.5-1.2,3.6-3,4.5c-0.9,0.3-0.9,0.6-1.8,0.6c0,0.3-0.3,0.3-0.6,0.3l-0.3-0.3v0.3H314
			c0,0.3-0.3-0.3-0.6-0.3c-0.3-0.3-0.3-0.9-0.3-1.2c-0.9,1.5-1.2,3.6,0,5.1c0.6,0.6,1.5,0.6,2.1,0.9c0.6-0.3,1.5,0,1.8,0.3l0.3-0.3
			c0.3,0,0.6-0.3,0.9,0l0.3-0.1c0.3-0.3,0.6-0.3,0.9-0.3S320,69,320.3,68.7z M314.3,61c-0.9,0.6,0.3,0.9,0.3,1.5
			c-0.3,0-0.3,0.3-0.3,0.6c0.6,0,0.9-0.6,1.5-0.3c0-0.6,0.3-0.6,0.6-0.6v0.3l0.3-0.3c0.3-0.3,0.3-0.9,0.9-0.9
			c0.6-0.3,0.6-1.8,1.5-2.1h-0.3c0.6-0.3-0.3-0.6,0.3-0.9v-0.6c0-0.3-0.6-0.6-0.9-0.3C316.7,58,315.2,59.5,314.3,61z"/>
		<path id="XMLID_396_" class="st1" d="M322.8,72.3c1.7-2.8,2.9-3.8,7.3-8.6c-1.1-2.1-3.2-4.2-3.2-7.1l0.3-0.3l1.4,2.8l2.5,3.5
			l1.8-2.1l3.2-3.9c0,0,0-0.3,0.3-0.7c0.7,1.1,0.4,2.2,0,2.9c-0.3,0.3-0.3,0.3-0.7,1.1l-1.1,1.1c0,0.6-0.6,0.9-1.1,1.4v-0.3h-0.3
			v0.3h0.2c-0.1,0.1-0.2,0.3-0.2,0.4c-0.7,0.3-0.7,1.1-1.1,1.4c0.7,1.4,2.5,2.5,2.8,3.6c1.1,0.3,1.8,0.7,2.1,1.8l0.4-0.4
			c0.2,0.3,0,0.9,0,1.2v-0.1c-0.7,0.3-1.4-0.3-1.4-0.6v0.2c-0.1-0.3-0.8-0.3-1.1-0.3c0-0.3-0.7-0.7-0.1-1.1c-1,0.3-1.1-1.4-2-1.4
			c-0.7,0-0.3-1.1-1.1-1.1v-0.7l-0.4,0.3v-0.3c-0.3,0-0.3,0-0.7,0.3c0,0-0.3,0.6-0.4,0.4v0.3c-1.1,0-0.7,1.4-1.8,1.4h-0.3
			c0.7,0.7,0,0.3-0.4,0.7c0,0.7-0.3,1.1-0.7,1.4c-0.3-0.7-0.3,0-0.7,0c0,0.4-0.3,0.4-0.7,0.4l0.3,0.3l-0.9,0.5c0,0-0.7,0.4-1.1,1.1
			L322.8,72.3z"/>
		<path id="XMLID_398_" class="st1" d="M337.8,57.9c-0.4-1.2,1.1-2.1,1.8-2.7h0.3c0-0.6,0.7,0,1.1-0.6c0,0,0,0.3,0.3,0.3v-0.3
			c0.7,0,1.1-0.3,1.8,0c1.8,0,2.9,1.8,3.9,2.4c0.7,0.3,0.7,1.2,1.4,1.2v0.3c-0.4,0,0,0.3,0,0.3h0.3c-0.3,0.6,0.7,1.8-0.3,1.8
			c0.7,0.6-0.4,0.6,0,1.2l-0.4,0.9c0-0.3,0,0-0.3,0c0.3,0,0.3,0.3,0,0.6c0,0,0-0.3-0.3-0.3c0,0.1-0.1,0.2-0.1,0.3H347v0.3h0.1
			c-0.1,0.1-0.1,0.2-0.1,0.3h-0.3v0.3c-0.3,0.1-0.7,0.2-0.7,0.3l0.3,0.3l-0.7,0.3c0,0,0-0.6-0.3-0.3c0.3,0.6-0.9,0.6-0.9,1.2
			l-0.3-0.3c0,0.3-0.4,0.3,0,0.6c-0.4,0-0.7,0-1.1,0.3V67h-0.3c0.3,0.6,0,1.2,0.3,1.5l-0.6,4c0.4,0.3,0,0.6,0,0.9l0.4,0.3
			c-0.4,0.6-0.4,1.5-0.7,2.1l0.3,0.3l-0.3,0.3c0,0.9,0.3,1.8,0,2.4c-0.4,0.3-0.7,0-0.7,0h0.2c-0.3-0.1,0.2-0.3-0.2-0.6
			c-0.4-0.3-0.4-0.9-0.4-1.2v-0.9c0-0.2,0-0.3,0.2-0.3c-0.8-0.1-0.2-0.9-0.2-1.2v-2.7l0.1-2.8c0-0.6,0.7-0.9,0-1.5
			c-0.4,0.3-0.4,0-0.7,0c0-0.6,1.8-1.2,0.7-1.8c0.3,0,0.3-0.3,0.3-0.6c0.4-0.6-0.3-1.2,0.4-1.5l-0.4-0.3v-1.8h-0.7
			c0,0,0-0.3-0.3-0.3v0.3c-0.7-0.9-2.9-1.2-2.9-2.4c-0.3,0,0.4-0.6,0-0.9L337.8,57.9z M339.2,60.4c0.6,0.5,2-0.5,2.1,0.4
			c0-0.5,0-0.8,0.4-1c0.3,0,1.1,0.3,1.4,0.6c0,0.6,0.2,1.2-0.2,1.8c0.4,0.3,0.4,0.6,0,0.6c0.4,0.6,0.4,1.5,0,2.1
			c1.4-0.6,2.7-2.1,3.8-3c0.3-1.8,0.7-3.6-0.7-4.8c-1.1-0.6-2.5-0.9-3.9-0.6c0,0.3-0.7,0.3-1.1,0.3c-0.7,0.9-1.1,1.5-1.8,2.7h0.3
			c-0.3,0-0.3,0.3-0.3,0.3C338.8,60.1,339.6,60.1,339.2,60.4z"/>
		<path id="XMLID_401_" class="st1" d="M360.2,68.7V69c0.3,0,0.6-0.3,0.9,0h0.3v-0.3c0.3,0.3,0.3-0.3,0.6,0.3l0.3-0.6v0.3h0.3
			c-0.3-0.2-0.2-0.3-0.1-0.3h-0.2c0.3-0.3,0.9,0.3,1.2,0.3l-0.3,0.6l-1.5,0.6v-0.3c-0.3,0-0.3,0.3-0.3,0.3v0.3
			c-0.3,0.6-1.2-0.3-1.5,0.6l-1.2,0.1c-0.6,0.6-1.2-0.6-1.8,0c-0.6-0.3-0.6,0.6-1.2,0c-0.3-0.3-0.6,0.3-0.6-0.3h-0.6
			c-0.3,0-0.6-0.3-0.6-0.6c-0.6,0.6-0.9,0-1.2,0c-0.3-0.3-0.9-0.6-0.6-1.2c-0.6,0,0-0.6-0.6-0.6c0-0.3-0.9-0.9-0.3-1.2
			c-0.6,0,0-0.9-0.3-1.5c0.6-0.3-0.6,0,0-0.6h0.3c0-0.3-0.6-0.3-0.3-0.6c0-0.3-0.3-1.2,0.3-1.2h0.2c-0.2,0,0-0.3-0.2-0.3
			c0-0.3,0-0.6,0.6-0.9c-0.3,0,0-0.3,0-0.6c0.6,0,0.3,0,0.9-0.3l-0.3-0.3h0.3V61l0.3-0.3c-0.3-0.3,0.3-0.3,0-0.6h0.3v-0.3h0.3
			c-0.6-0.3,0.3-0.6,0-0.9c0-0.3,0.6-0.3,0.9-0.6c0-0.2-0.2-0.3-0.3-0.3c0.1,0,0.4,0,0.3-0.2c0.2,0.2,0.3-0.1,0.5-0.1
			c0.6-0.6,1.2-0.3,1.2-0.9c0-0.9,1.5-0.3,1.2-1.2c0.3,0.3,0.3-0.3,0.6,0v0.3c0.3-0.6,0.9,0,1.2,0.3c-0.3,0.9,1.2,1.5,0.6,2.1
			c0,0.3,0.3,0.3,0,0.6l0.3,0.3l-0.3,0.3c-0.3,1.5-1.2,3.6-3,4.5c-0.9,0.3-0.9,0.6-1.8,0.6c0,0.3-0.3,0.3-0.6,0.3l-0.3-0.3v0.3h-0.3
			c0,0.3-0.3-0.3-0.6-0.3c-0.3-0.3-0.3-0.9-0.3-1.2c-0.9,1.5-1.2,3.6,0,5.1c0.6,0.6,1.5,0.6,2.1,0.9c0.6-0.3,1.5,0,1.8,0.3l0.3-0.3
			c0.3,0,0.6-0.3,0.9,0l0.3-0.1c0.3-0.3,0.6-0.3,0.9-0.3S359.9,69,360.2,68.7z M354.2,61c-0.9,0.6,0.3,0.9,0.3,1.5
			c-0.3,0-0.3,0.3-0.3,0.6c0.6,0,0.9-0.6,1.5-0.3c0-0.6,0.3-0.6,0.6-0.6v0.3l0.3-0.3c0.3-0.3,0.3-0.9,0.9-0.9
			c0.6-0.3,0.6-1.8,1.5-2.1h-0.3c0.6-0.3-0.3-0.6,0.3-0.9v-0.6c0-0.3-0.6-0.6-0.9-0.3C356.6,58,355.1,59.5,354.2,61z"/>
		<path id="XMLID_404_" class="st1" d="M365.5,56.4h0.3v0.4l0.6,0.3c0.6,0-0.3,0.7,0.3,0.7l-0.3,0.4l0.6,1c-0.3,0.4,0.3,0.7-0.3,1.4
			h0.3v1.1c0,0.3,0,0.3-0.3,0.3c-0.3,0.3,0,0.7,0.3,0.7v-0.3c0.6,0.3-0.3,0.7,0,1l-0.3,0.7h0.3c-0.3,0.1-0.3,0.7-0.3,1.1
			c-0.3,0,0.1,0.2,0.1,0.5c0.6-0.9,1.2-1.6,1.7-2.6c0-0.3,0.3-0.7,0.6-0.7l-0.2-0.3c0.2,0.1,0.2-0.4,0.2-0.4l0.3,0.3
			c-0.3-1,0.9-1,0.9-1.7l0.3-0.3v-0.3l0.3,0.3v-0.3l0.3,0.3c0-0.7,0.3-0.7,0.6-1.1h0.3c-0.6-0.6,0.6-0.3,0.6-1.4
			c0.3,0.3,0.6,0,0.9,0.3c0.3-0.7,1.2-1,1.5-1l-0.3,0.3c0.6,0.3,0.3-0.3,0.6-0.7c0.6,1.1,0.9-0.3,1.2,0.7v-0.3l0.3,0.3
			c-0.3,0.3-1.2,1.1-1.5,1.4h-0.3c-0.3,0.3-0.6,1.1-0.9,0.7c0,0.6-0.4,0.5-0.8,0.6c0,0,0-0.1-0.1-0.3c-0.3,0.3,0,1-0.6,1
			c0,0.7-1.5,1.1-1.5,1.7c0,1-1.1,0.5-1.1,1.9l-0.4,0.9l-0.3,0.6l-0.6,0.3h0.2c-0.2,0.1-0.3,0.7-0.5,0.4v0.7c-0.3,0-0.3,0.3-0.3,0.7
			c-0.3,0-0.9,0.7-1.2,1c0.3,0.4,0,0.7,0,1s0,0.7-0.3,0.7h-0.6c0,0.3,0,0.4-0.2,0.6c0.1-0.1,0.1-0.3-0.1-0.3c-0.3,0-0.3,0.3-0.6,0.3
			c0.6-0.3-0.3-0.7-0.3-1.4c0.3-2,0.3-4.2,0.6-5.8V56.4z"/>
		<path id="XMLID_406_" class="st1" d="M379.7,62.6v0.2c0.1,0.3,0.3,0.5,0.3,0.8c-0.9,0,0.3,0.6,0,0.6c0-0.3-0.3,0.3-0.6,0.3
			c0.3,0.3,0.9,0,0.6,0.3v0.6c0-0.3-0.3-0.3-0.3-0.3c0.3,0.6,0.3,0.9,0,1.5c0.6,0.3-0.6,0.9,0.3,1.2c-0.3,0-0.1,0.3-0.3,0.3h0.3
			c0,0.3-0.3,0.3-0.3,0.3h-0.3c-0.3,0.6,0.3,0,0.3,0.6v0.9c0,0.3,0.3,0.9,0,1.2c0.3,0,0.3,0.3,0.3,0.6c-0.3,0.3-0.9,0-1.2,0l0.3,0.6
			c-0.6-0.3-0.3-0.6-0.6-0.9c-0.9-1.8,0-3.9-0.3-5.7c0.3-0.3,0.3-0.6,0-0.9c0-0.3,0.6-0.6,0.3-1.2c0.6-0.6-0.3-1.5,0.3-2.1
			c0.3,0.3,0.3,0,0.3-0.3l-0.3-0.3h0.6c0.6,0.3-0.3,0.9,0.3,0.9C379.4,62,379.5,62.3,379.7,62.6L379.7,62.6z M379.4,48.1h-0.3
			l0.3-0.3h-0.3c0.6-0.3,0.9,0.3,1.2,0.3h0.3c-0.6,0.3,0,0.6-0.3,0.9h0.6c-0.3,0.3,0.3,1.2-0.6,1.2v0.3h0.6v1.2l-0.3-0.3v0.3
			l-0.3,0.3h0.3l0.3,1.2c-0.3,0-0.6-0.3-0.6,0c0.3,0.3,0.3,0.3,0.3,0.6c-0.6,0,0.3,0.6-0.3,0.6v0.3h-0.6v0.3c0,0-0.3,0-0.3-0.3
			l0.3-0.3c-0.3-0.3-0.6-0.3-0.3-0.9l0.3-0.3h-0.3V53c-0.3-1.2-0.3-3-0.3-4.5L379.4,48.1z"/>
		<path id="XMLID_409_" class="st1" d="M387.7,62.8c0.3,0,0.5,0,0.6,0.2v-0.6H388c0-0.3,0.3,0,0.6-0.3c-0.3-0.3-0.3-0.3-0.3-0.6
			l0.3,0.3c0,0,0.3-0.3,0-0.3c0.6-0.3,0,0,0.3,0.3c0.3-0.3,0.3-0.3,0-0.6c0.3-0.3,0-0.9,0.3-1.3v0.3c0.3,0,0.3-0.3,0.3-0.3
			c-0.3-0.3,0-0.6,0-0.9c0.3,0,0.3-0.3,0.6-0.6V58c0.3,0.3,0.3,0.6,0.6,0.3V58h0.3l-0.3-0.3l0.3-0.3c0.9,0.3,0.3-0.6,0.9-0.3v-0.3
			c0.3,0,0.6,0,0.9,0.3h-0.3c0.3,0.3,0.3,0.3,0.6,0.3l0.3-0.3c0.6,0.3,0.3,1.3,0.6,1.6h-0.3c0.6,0.3,0,0.9,0.6,0.9
			c0.3,0.6-0.6,0.6-0.3,0.9c0.3,0.3-0.3,0.6,0.3,0.6h0.3v0.9c-0.3,0.3,0.3,0.6-0.3,0.9l0.3,0.3c-0.6,0,0,0.3,0,0.6l0.6-0.6
			c0-0.3,0-1.2,0.3-1.5c-0.3,0,0-0.6,0.3-0.9c0.3-0.3-0.3-1.3,0.6-1.6l0.3-0.3h-0.3c-0.3-0.6,0.6-0.6,0.3-1.5c0.6,0,0-0.3,0.6-0.6
			c0-0.3,0.3-0.9,0.6-1.3v0.3l0.3-0.3c0.3,0,0.3,0.3,0.3,0.3c0.3-0.3,0.3-0.3,0.6,0h0.3c0,0-0.3,0.3-0.3,0.6
			c0.2,0.2,0.3,0.2,0.5,0.2l-0.2,0.2c0,0.3,0.3,0,0.6,0l-0.3,0.3c0.9,0.3-0.3,0.6,0.3,0.6V58h-0.3c-0.3,0.3,0,0.3,0,0.3h0.6
			c0.3,0.3-0.2,0.3-0.1,0.5c-0.1,0.6,0.4,1.1,0.4,1.7h-0.3c0,0.5,0.2,0.5,0.3,0.5c-0.2,0-0.5,0.1-0.6,0.1l0.6,0.3
			c-0.3,0.3,0,0.3,0.3,0.3l-0.3,0.3c0.6,0.3,0.3,0.6,0.6,0.9c-0.3,0.3,0,0.9-0.6,1.2c0.3,0,0.6,0.3,0.6,1v0.3c0.3,0.3,0,0.6,0.3,1.2
			c0.3,1.3,0.3,2.2,0.6,2.9h0.3c0,0.3-0.3,0.9,0.1,0.9h-0.1l0.3,0.3c-0.9,0.9-1.2-0.6-2.1-0.9c0-0.9-0.6-1.3-0.9-2.2
			c0-0.6-0.6-1.5-0.3-2.5c0.3-0.6-0.9-1.6-0.3-2.9h-0.3c0.3-1.2,0-2.5-0.3-4.1c-0.6,0,0,0.9-0.6,0.6c-0.3,0.6,0.3,0.3,0.3,0.9
			c-0.3-0.3-0.9,0-0.6,0.3h0.3l-0.3,0.3c0.3,0.3,0,0.9,0,0.9c-0.1,0.5-0.3,0.7-0.6,0.9h-0.3c0,0.6,0.3,0.6,0,1.3
			c-0.6,0,0,0.6-0.3,0.6V65l-0.3,0.3l0.3,0.6h-0.3c0,0.3-0.3,0.6-0.6,0.9h0.2c-0.1,0-0.2,0.1-0.2,0.3c-0.3,0.3,0.3,0.9-0.3,1.2h-0.3
			c0.3,0.3,0.6,0.9,0,1.3c-0.3,0-0.9,0-0.9-0.3h-0.3l0.3-0.3c-1.2-0.6-0.9-2.5-1.2-3.8c0.6,0,0.3-0.6,0.3-0.6c0-0.3,0.3-0.6,0-0.9
			c-0.3-0.3,0.3-0.9-0.3-1.3c0.6-0.3,0-0.6,0.3-1.2c0-0.6-0.3-1.3-0.3-1.9c0.3-0.3-0.3-0.3-0.3-0.6c-0.6-0.3-0.3,0.3-0.6,0.9
			c-0.9,0.3-0.9,1.6-1.8,1.9l0.3,0.3c-0.8,1.1-0.9,2.5-1.6,3.7l0.1,0h-0.1c0,0.1-0.1,0.2-0.2,0.3c0.3,0.3,0.3,0,0.3,0.3h-0.3
			c0,0.3,0.6,0.3,0.3,0.6c-0.3,0.3-0.3,0.3-0.6,0c-0.3,0-0.3,0.3-0.3,0.3c0,0.3,0.3,0,0.6,0l-0.3,0.3c0,0,0,0.3,0.2,0.3
			c-0.2,0-0.2-0.3-0.2,0c0,0.3-0.3,0.9,0,1.3c-0.3,0,0,0.3-0.3,0.3c0.3,0.6,0,1.3-0.3,1.9c0,0-0.6,0.3-0.6,0
			c-0.3,0.3-0.6,0.3-0.9,0.3c0-0.6-0.6-0.9-0.6-1.6l-0.3-1.6c0.2,0,0.3-0.2,0.1-0.3h0.2l-0.3-0.6h0.3c0-0.3-0.9-0.3-0.3-0.6
			c0-0.3-0.3-0.9,0.3-1.2l-0.3-0.3c0-0.3,0.3-0.3,0-0.6c0.3,0,0-0.3,0-0.3H385c0.3-0.3,0.3-0.3,0-0.6l0.6-0.6H385
			c0.9-0.6,0-2.1,0.8-2.8c-0.3,0.1-0.8-0.4-0.5-0.7l0.3-0.3c-0.9-0.6,0.3-0.9,0-1.3c-0.6-0.3,0.9-1.5-0.3-0.9v-0.9l0.3-0.6l-0.3-0.3
			v-0.3l0.3-0.3c-0.3,0-0.6-0.3-0.3-0.6l0.3-0.3v0.3c0.3,0,0.6-0.6,0.6-0.3l0.3,0.6c1.2,0.3-0.6,0.9,0.3,1.6l-0.3,0.3
			c0,0.6,0.6,1.6,0.3,2.5c-0.3,0.3,0.3,0.3,0,0.3c0,1.3,0.3,2.2,0,3.2c-0.3,0.6,0.6,1.2,0,1.9c0,0.3,0.3,0.6,0.6,0.9v-0.6
			c0,0,0.3,0.3,0.3,0c0,0,0-0.3-0.3-0.3c0,0,0-0.6,0.3-0.6V62.8z"/>
		<path id="XMLID_411_" class="st1" d="M413.8,68.7V69c0.3,0,0.6-0.3,0.9,0h0.3v-0.3c0.3,0.3,0.3-0.3,0.6,0.3l0.3-0.6v0.3h0.3
			c-0.3-0.2-0.2-0.3-0.1-0.3h-0.2c0.3-0.3,0.9,0.3,1.2,0.3l-0.3,0.6l-1.5,0.6v-0.3c-0.3,0-0.3,0.3-0.3,0.3v0.3
			c-0.3,0.6-1.2-0.3-1.5,0.6l-1.2,0.1c-0.6,0.6-1.2-0.6-1.8,0c-0.6-0.3-0.6,0.6-1.2,0c-0.3-0.3-0.6,0.3-0.6-0.3H408
			c-0.3,0-0.6-0.3-0.6-0.6c-0.6,0.6-0.9,0-1.2,0c-0.3-0.3-0.9-0.6-0.6-1.2c-0.6,0,0-0.6-0.6-0.6c0-0.3-0.9-0.9-0.3-1.2
			c-0.6,0,0-0.9-0.3-1.5c0.6-0.3-0.6,0,0-0.6h0.3c0-0.3-0.6-0.3-0.3-0.6c0-0.3-0.3-1.2,0.3-1.2h0.2c-0.2,0,0-0.3-0.2-0.3
			c0-0.3,0-0.6,0.6-0.9c-0.3,0,0-0.3,0-0.6c0.6,0,0.3,0,0.9-0.3l-0.3-0.3h0.3V61l0.3-0.3c-0.3-0.3,0.3-0.3,0-0.6h0.3v-0.3h0.3
			c-0.6-0.3,0.3-0.6,0-0.9c0-0.3,0.6-0.3,0.9-0.6c0-0.2-0.2-0.3-0.3-0.3c0.1,0,0.4,0,0.3-0.2c0.2,0.2,0.3-0.1,0.5-0.1
			c0.6-0.6,1.2-0.3,1.2-0.9c0-0.9,1.5-0.3,1.2-1.2c0.3,0.3,0.3-0.3,0.6,0v0.3c0.3-0.6,0.9,0,1.2,0.3c-0.3,0.9,1.2,1.5,0.6,2.1
			c0,0.3,0.3,0.3,0,0.6l0.3,0.3l-0.3,0.3c-0.3,1.5-1.2,3.6-3,4.5c-0.9,0.3-0.9,0.6-1.8,0.6c0,0.3-0.3,0.3-0.6,0.3l-0.3-0.3v0.3h-0.3
			c0,0.3-0.3-0.3-0.6-0.3c-0.3-0.3-0.3-0.9-0.3-1.2c-0.9,1.5-1.2,3.6,0,5.1c0.6,0.6,1.5,0.6,2.1,0.9c0.6-0.3,1.5,0,1.8,0.3l0.3-0.3
			c0.3,0,0.6-0.3,0.9,0l0.3-0.1c0.3-0.3,0.6-0.3,0.9-0.3S413.5,69,413.8,68.7z M407.7,61c-0.9,0.6,0.3,0.9,0.3,1.5
			c-0.3,0-0.3,0.3-0.3,0.6c0.6,0,0.9-0.6,1.5-0.3c0-0.6,0.3-0.6,0.6-0.6v0.3l0.3-0.3c0.3-0.3,0.3-0.9,0.9-0.9
			c0.6-0.3,0.6-1.8,1.5-2.1h-0.3c0.6-0.3-0.3-0.6,0.3-0.9v-0.6c0-0.3-0.6-0.6-0.9-0.3C410.1,58,408.6,59.5,407.7,61z"/>
		<path id="XMLID_414_" class="st1" d="M420.7,60.5h-0.4c0.8,0.7-0.4,1.3,0.4,2c-0.4,0.3,0.4,0.7,0.4,1.3l0.8-0.6l-0.4-0.3h0.4
			l-0.4-0.3h0.4v-0.3h0.4c-0.8-0.7,0.4-0.7,0-1.7h0.3c-0.2,0,0.5-0.3,0.1-0.7h0.4c-0.4-0.3,0.4-0.7,0-1c0.4-0.3,0.8-0.3,0.8-0.6
			c0-0.3-0.2-0.3-0.3-0.3h0.3c0-0.3,0-1,0.8-1l-0.4-0.3c-0.4,0,0.3,0,0-0.3c0.8,0.6,0.8-1.1,1.5-0.4c0,0.3,0.4,0.3,0.4,0.3
			c0.4,1,2.3,1.4,2.3,2.4c0.4,0.6,0.4,1.3,0.8,1.7c0.8,0.7,0.4,2.3,0.8,3.4l-0.4,0.3h0.8c-0.4,0.3,0.4,1-0.4,1
			c0.4,0.3-0.4,0.7,0.4,1l-0.4,0.3l0.4,0.3H430l0.4,0.7l-0.4,0.3h-0.4c0.4,0.3,0.8,1,0.4,1.3h-0.4l0.4,0.3v1.7c-0.8,0-0.4,1.3-1.2,1
			l0.2,0.2c-0.2-0.2-0.3-0.2-0.5-0.2l0.4,0.3v0.3l-0.4-0.3v-0.3h-0.4c0-0.6-0.4-1,0.4-1.3c0.4-4,0-8-1.6-11.7l-1.2-1
			c0,0.3-0.4,0.7-0.4,1c-1.2,0.7-0.4,1.7-1.2,2.7c0,0.3,0,0.7-0.4,0.7c-0.4,1.4-0.4,2.3-1.5,3.4l0.4,0.3c-0.8,0-0.8,0.3-0.8,0.6
			h-0.3c0.6,0.1,0,0.7,0.7,0.7c0,0.3-2,0.7-0.4,0.7v0.3h-0.3c0.3,0.1,0.3,0.7-0.1,1v0.3c-1.2,0.3,0.8,1.7-0.8,2
			c-1.6,0.3-0.8-1.3-1.6-1.7l0.4-1.3l-0.4-7.7l-0.4-5.4c1.5,0.3,1.2,2,2,3C419.9,59.2,420.7,59.8,420.7,60.5z"/>
		<path id="XMLID_417_" class="st1" d="M431.9,62.2c0.2-0.2,0.1-0.3,0-0.3c0.3,0,0.6-0.3,0.6,0c0.3-0.3-0.3-0.3,0.3-0.6
			c0,0.3,0.3,0,0.3,0V61c0.3,0.6,0.6-0.2,0.9,0l-0.3-0.3c0.3,0,0.6-0.3,0.9,0v-0.3c0.9,0,0.9-0.6,1.8-1.2l0.9-6.5l0.3-2.7
			c1.5,0.9,0.6,3,0.9,4.5l-0.3,0.3c0.6,0.3,0.3,0.9,0.3,1.2c0,0.9-0.3,2.2,0,2.8v0.3l0.3-0.3c0.3,0.6,0.3,0,0.9-0.3l0.2,0l0.9-0.3
			h0.3l0.3,0.3c0.3-0.3,0.6-0.6,0.9-0.6c0.3,0.3,0,0.3-0.3,0.6l0.3,0.3c0.3-0.3,0.6-0.3,0.6-0.6v-0.3c0,0,0.3,0.6,0.3,0.9l0.3-0.9
			c0.3,0,0.6,0.3,0.9,0.3c0-0.9,0.9,0,1.5-0.3c0,0.3-0.6,0.3-0.6,0.3h-0.3c0,0,0.3,0.3,0,0.6c-0.3,0-0.6-0.3-0.9-0.3
			c0,0.9-0.9,0.3-1.8,0.9c-0.3-0.3-0.3,0-0.6,0.3l-3.5,1c-0.3,0.9,0,1.8-0.3,3c0,0-0.3,0,0,0.3h-0.3c0.6,0.6-0.3,1.8,0,2.7v0.6h-0.3
			c0,0.3,0.6,1.2-0.3,1.5c0,0.2,0.2,0.3,0.2,0.3H437c0,0.3,0.6,0.9,0.3,1.5H437c0,0.3,0,0.3,0.3,0.3l-0.3,0.3h0.2
			c-0.4,0,0.1,0.3,0.1,0.6H437c0,0.3,0,0.3,0.3,0.3c0,0-0.3,0.2-0.3,0.5v-0.2c-0.6,0.9-0.9,0-1.2,0c-0.6-0.6,0.3-1.5-0.3-2.1
			c0.3-0.9,0-1.2,0.3-2.1c-0.3-0.6,0.3-1.2,0-1.8c0.3-1.2,0.3-2.4,0.3-3.3c0-0.6,0.3-1.2,0-1.8c-1.2,0.3-2.1,1.2-3,2.1
			c-0.3,0-0.6-0.6-0.9-0.3s-0.6,0-0.3-0.6V62.2z"/>
		<path id="XMLID_419_" class="st1" d="M453.5,69.8v-0.4h-0.3v0.1c-0.1,0-0.2-0.1-0.3-0.1c0.2,0-0.1,0-0.1-0.3
			c0-0.4-0.8-1.5-0.8-1.8s-0.3-0.8,0-1.1c-0.3-0.4-0.3,0-0.3,0v0.7c0,0.4-0.8,0.8-0.8,1.1c0,0-0.4,0-0.4,0.4h0.3
			c-0.6,0.1-0.6,1-1.2,1.1h0.6c-0.4,0.4-0.4,0-0.8,0c0,0.3,0,0.4-0.2,0.4c0.1,0-0.2-0.1-0.5-0.4c0,0.4-0.4,0.8-0.8,0.4
			c-0.4-0.4-0.8-0.4-1.1-1.1v0.7c-0.3-0.7-0.7-1.5-1.1-1.8l0.4-0.4h-0.4v-2.2c-0.4-0.8,0.4-1.5,0.4-1.9c0.4-1.5,1.1-2.9,1.8-3.7
			h-0.3c1-0.1,0.3-1.5,1.4-1.1c0.4-1.1,1.1,0,1.1-1.1c0.3-0.4,1.1,0.4,1.1-0.4H451l0.8-0.4c0,0,0,0.4,0.3,0.4
			c0.8,0.8,1.1,1.5,1.1,2.2c0.3,0,0.8,0,0.8,0.4h-0.8l0.8,0.4v0.3l0.4-0.3c0.3,0.7-0.8,1.1,0,1.8c-0.8,0.4-0.4,0.8-0.4,0.8v1.1h-0.4
			v0.7c0.4-0.4,0.4,0.4,0.4,1.1c0,0.4,0,1.1,0.4,1.5h-0.4c0.7,0.4,0.7,1.8,1.1,2.6l0.3,0.5l-0.3,0.4c1.1,0,1.5,1.5,1.8,1.8
			c0,0.4,0.4,0.4,0.4,0.8h0.3v0.4c-0.8,0-1.1-0.4-1.5-0.8c0-0.4-0.3-0.4-0.3-0.4l0.3-0.3c-0.8,0-0.8,0-1.1-0.4l-0.4,0.4
			c-0.8-0.4,1.1-0.4,0-0.8l-0.6-0.2l0.2-0.3C453.6,70.7,453.6,70.2,453.5,69.8L453.5,69.8z M447.3,65.6c0.4,0.8,0,1.5,0.8,2.2
			c1.8-0.3,2.6-2.9,3.3-4.4c1.1-1.1,0.7-2.6,1.1-4.1c-0.4-0.8-0.7-1.1-1.1-1.1l-3,2.2l-1.1,3.7c0.4,0.8-0.4,0.8,0,1.1V65.6z"/>
		<path id="XMLID_422_" class="st1" d="M459.5,58.4v0.3c-0.3,0,0.2-0.5-0.1-0.6c0.2,0.1,0.4,0.2,0.4,0c-0.3-0.6,0.9-0.9,0-1.2
			c0.3-0.3,0-0.6,0.3-0.9c-0.3-0.3-0.3-0.9-0.3-1.5c0.6-0.3,0.6-0.6,0.6-0.9c-0.3-0.3-0.3-0.6-0.6-0.9l0.3-0.3
			c0.3-0.9-0.3-1.2,0-1.8l-0.3-0.3c0.3-0.3,0-0.6,0-0.6c-0.3,0,0.3,0,0.3-0.3l-0.3-0.3h0.3c0-0.6,0-0.9,0.6-1.2l0.6,0.6
			c0,1.5,0.3,3,0.3,4.5c0,0.6,0,0.9-0.3,1.5c0.3,1.2,0,2.1,0,3.3c0.6,0.3-0.6,0.9,0,1.2c-0.3,0.3-0.3,0.9-0.3,1.2
			c-0.3,0.3,0.3,0.9,0,1.5v0.6c-0.3,0.3,0,0.6,0,0.6c0.3,0.6-0.3,0.9,0,1.2c0,0.3,0,0.6-0.3,0.9l-0.3,0.3h0.6
			c0.3,0.6-0.6,0.6-0.6,0.9c0.3,0,0.6,0,0.6,0.3c-0.6,0-0.3,0.3-0.3,0.6l-0.3,0.6c0.3,0.6,0,1.2-0.3,1.5c0,0,0.3,0,0.3,0.3h-0.3
			l0.3,0.6v-0.3c0.3,0.3-0.3,0.9,0,0.9c0.3,0.3,0,0.9-0.3,0.9l-0.3,0.3c-0.1-0.1-0.2-0.2,0-0.3h-0.3v-0.3c0-0.6-0.6-1.2-0.3-1.5
			l0.3-0.3c0,0-0.6,0,0-0.3h-0.3c0.6-0.3-0.6-0.9,0.3-1.2h-0.3l0.3-0.3h-0.3c0-0.3,0.3-0.6,0.3-0.9c-0.6-0.3,0-0.6,0-0.9
			c-0.3-0.6-0.6-0.9-0.3-1.5v-0.1c0-0.3,0.3-0.8,0-1.1l0.3-0.3c0.6-0.3-0.3-0.6-0.3-0.9c0.3-0.3,0.3-0.6,0-0.9
			c0.9,0-0.3-0.9,0.6-1.2v-0.3c0,0-0.3-0.6-0.9-0.6l0.9-0.3L459.5,58.4z"/>
		<path id="XMLID_424_" class="st1" d="M84.2,107.9v0.2c0.1,0.3,0.3,0.5,0.3,0.8c-0.9,0,0.3,0.6,0,0.6c0-0.3-0.3,0.3-0.6,0.3
			c0.3,0.3,0.9,0,0.6,0.3v0.6c0-0.3-0.3-0.3-0.3-0.3c0.3,0.6,0.3,0.9,0,1.5c0.6,0.3-0.6,0.9,0.3,1.2c-0.3,0-0.1,0.3-0.3,0.3h0.3
			c0,0.3-0.3,0.3-0.3,0.3h-0.3c-0.3,0.6,0.3,0,0.3,0.6v0.9c0,0.3,0.3,0.9,0,1.2c0.3,0,0.3,0.3,0.3,0.6c-0.3,0.3-0.9,0-1.2,0l0.3,0.6
			c-0.6-0.3-0.3-0.6-0.6-0.9c-0.9-1.8,0-3.9-0.3-5.7c0.3-0.3,0.3-0.6,0-0.9c0-0.3,0.6-0.6,0.3-1.2c0.6-0.6-0.3-1.5,0.3-2.1
			c0.3,0.3,0.3,0,0.3-0.3l-0.3-0.3h0.6c0.6,0.3-0.3,0.9,0.3,0.9C83.9,107.3,84,107.6,84.2,107.9L84.2,107.9z M83.9,93.4h-0.3
			l0.3-0.3h-0.3c0.6-0.3,0.9,0.3,1.2,0.3h0.3c-0.6,0.3,0,0.6-0.3,0.9h0.6c-0.3,0.3,0.3,1.2-0.6,1.2v0.3h0.6V97l-0.3-0.3V97l-0.3,0.3
			h0.3l0.3,1.2c-0.3,0-0.6-0.3-0.6,0c0.3,0.3,0.3,0.3,0.3,0.6c-0.6,0,0.3,0.6-0.3,0.6v0.3h-0.6v0.3c0,0-0.3,0-0.3-0.3l0.3-0.3
			c-0.3-0.3-0.6-0.3-0.3-0.9l0.3-0.3h-0.3v-0.3c-0.3-1.2-0.3-3-0.3-4.5L83.9,93.4z"/>
		<path id="XMLID_427_" class="st1" d="M90.8,105.8h-0.4c0.8,0.7-0.4,1.3,0.4,2c-0.4,0.3,0.4,0.7,0.4,1.3l0.8-0.6l-0.4-0.3H92
			l-0.4-0.3H92v-0.3h0.4c-0.8-0.7,0.4-0.7,0-1.7h0.3c-0.2,0,0.5-0.3,0.1-0.7h0.4c-0.4-0.3,0.4-0.7,0-1c0.4-0.3,0.8-0.3,0.8-0.6
			c0-0.3-0.2-0.3-0.3-0.3h0.3c0-0.3,0-1,0.8-1l-0.4-0.3c-0.4,0,0.3,0,0-0.3c0.8,0.6,0.8-1.1,1.5-0.4c0,0.3,0.4,0.3,0.4,0.3
			c0.4,1,2.3,1.4,2.3,2.4c0.4,0.6,0.4,1.3,0.8,1.7c0.8,0.7,0.4,2.3,0.8,3.4l-0.4,0.3h0.8c-0.4,0.3,0.4,1-0.4,1
			c0.4,0.3-0.4,0.7,0.4,1l-0.4,0.3l0.4,0.3h-0.4l0.4,0.7l-0.4,0.3h-0.4c0.4,0.3,0.8,1,0.4,1.3h-0.4l0.4,0.3v1.7
			c-0.8,0-0.4,1.3-1.2,1l0.2,0.2c-0.2-0.2-0.3-0.2-0.5-0.2l0.4,0.3v0.3l-0.4-0.3v-0.3h-0.4c0-0.6-0.4-1,0.4-1.3c0.4-4,0-8-1.6-11.7
			l-1.2-1c0,0.3-0.4,0.7-0.4,1c-1.2,0.7-0.4,1.7-1.2,2.7c0,0.3,0,0.7-0.4,0.7c-0.4,1.4-0.4,2.3-1.5,3.4l0.4,0.3
			c-0.8,0-0.8,0.3-0.8,0.6h-0.3c0.6,0.1,0,0.7,0.7,0.7c0,0.3-2,0.7-0.4,0.7v0.3h-0.3c0.3,0.1,0.3,0.7-0.1,1v0.3
			c-1.2,0.3,0.8,1.7-0.8,2c-1.6,0.3-0.8-1.3-1.6-1.7l0.4-1.3l-0.4-7.7l-0.4-5.4c1.5,0.3,1.2,2,2,3C90.1,104.4,90.8,105.1,90.8,105.8
			z"/>
		<path id="XMLID_429_" class="st1" d="M105,109.3h-0.3c0-0.6,0.6-0.9,0.9-1.2c-0.3-0.3-0.3,0-0.6,0c0.1,0,0.5-0.3,0.3-0.6
			c0,0,0.3,0.3,0.3,0v-0.3c0.6-0.3,0.6-1.5,1.5-1.2c0.3,0.3,0.6,0.3,0.9,0.3l0.9,0.6c0.3-1.5-0.3-2.7,0-3.9v-0.3c0-1.5,0-2.5,0.3-4
			c0.3,0,0-0.3,0-0.3c-0.3-0.6,0.3-1.2,0-1.8c0.3-0.9,0-2.1,0.3-3.3c-0.3-0.3,0-0.6,0-0.6c0-1.2,0-2.1-0.3-3
			c0.3,0.3,0.9,0.3,1.2,0.9c0.3,1.2,0,2.1,0.3,3.3h-0.3l0.3,0.3h-0.3c0,0.3,0.6,0,0.3,0.6h-0.3c0.3,0.6,0.6,1.8,0,2.4
			c0.6,0.3,0,1.2,0.3,1.5c-0.3,0.3,0,0.9-0.3,1.2c0.3,0.3,0,0.6,0,1.2c0.3,0,0,0.3,0,0.3l-0.3,0.3l0.3,0.3c-0.6,0,0,0.3,0,0.9
			c-0.3-0.3,0,0-0.3,0.3c0.3,0.3,0.6,0.1,0.3,0.7c0,0,0.3,0.6,0,0.6v0.3l-0.3,0.3c0.9,0.6,0,2.1,0.6,2.7c-0.3,0.9,0.3,1.2,0,2.1
			h-0.3l0.3,0.3c0,0.3-0.3,2,0,2.9c0,0.6,0.3,0.3,0.6,0.3h0.6l0.3-0.3l0.6,0.3c-0.3,0,0,0.3-0.3,0.3s0,0.3-0.3,0.3l-0.3-0.3
			c-0.3,0.3,0,1.2-0.6,0.9c-0.3,0-0.6,0.6-1.2,0.3c-0.3,0.3-0.9,0.3-1.5,0.9c0-0.3,0-0.3-0.3-0.3c-0.3,0.6-0.6,0-1.2,0.3
			c-0.6,0.6-1.5,0.6-2.4,0.9c-0.3-0.3-1.5,0.3-1.2-0.6l-0.3-0.3l0.3-0.3h-0.6l0.3-0.3V115c0,0-0.3-0.3,0-0.6v0.3
			c0.6-0.3,0-0.6,0.3-0.6c-0.3-0.6,0.3-0.9-0.3-0.9c0.3-0.6,0-0.6,0.6-1.2c0.3,0.3,0.6,0.3,0.6-0.3h0.1c-0.1,0-0.1-1.2-0.1-1.4
			c0,0,0.3-0.9,0.6-0.6V109.3z M108.6,114.4h0.3v-0.3h0.3l-0.3-0.3c0-1.2-0.3-3.2-0.3-4.5c0,0-0.3-0.3-0.3-0.6
			c-0.3-0.3-0.3-0.9-0.3-1.2c-0.6,0-0.9,0.9-1.5,1.2l-1.5,5.1l-0.3,1.5h1.5c0-0.3-0.3-0.3,0-0.3c0.3,0.3,0.9-0.6,1.2-0.6
			c0.3,0.3,0.3,0,0.6-0.3c0.3,0.3,0.3,0.3,0.3,0.6c0,0,0.3-0.2,0.3-0.1V114.4z"/>
		<path id="XMLID_432_" class="st1" d="M115.9,107.9v0.2c0.1,0.3,0.3,0.5,0.3,0.8c-0.9,0,0.3,0.6,0,0.6c0-0.3-0.3,0.3-0.6,0.3
			c0.3,0.3,0.9,0,0.6,0.3v0.6c0-0.3-0.3-0.3-0.3-0.3c0.3,0.6,0.3,0.9,0,1.5c0.6,0.3-0.6,0.9,0.3,1.2c-0.3,0-0.1,0.3-0.3,0.3h0.3
			c0,0.3-0.3,0.3-0.3,0.3h-0.3c-0.3,0.6,0.3,0,0.3,0.6v0.9c0,0.3,0.3,0.9,0,1.2c0.3,0,0.3,0.3,0.3,0.6c-0.3,0.3-0.9,0-1.2,0l0.3,0.6
			c-0.6-0.3-0.3-0.6-0.6-0.9c-0.9-1.8,0-3.9-0.3-5.7c0.3-0.3,0.3-0.6,0-0.9c0-0.3,0.6-0.6,0.3-1.2c0.6-0.6-0.3-1.5,0.3-2.1
			c0.3,0.3,0.3,0,0.3-0.3l-0.3-0.3h0.6c0.6,0.3-0.3,0.9,0.3,0.9C115.6,107.3,115.7,107.6,115.9,107.9L115.9,107.9z M115.6,93.4h-0.3
			l0.3-0.3h-0.3c0.6-0.3,0.9,0.3,1.2,0.3h0.3c-0.6,0.3,0,0.6-0.3,0.9h0.6c-0.3,0.3,0.3,1.2-0.6,1.2v0.3h0.6V97l-0.3-0.3V97l-0.3,0.3
			h0.3l0.3,1.2c-0.3,0-0.6-0.3-0.6,0c0.3,0.3,0.3,0.3,0.3,0.6c-0.6,0,0.3,0.6-0.3,0.6v0.3h-0.6v0.3c0,0-0.3,0-0.3-0.3l0.3-0.3
			c-0.3-0.3-0.6-0.3-0.3-0.9l0.3-0.3h-0.3v-0.3c-0.3-1.2-0.3-3-0.3-4.5L115.6,93.4z"/>
		<path id="XMLID_435_" class="st1" d="M130,114v0.3c0.3,0,0.6-0.3,0.9,0h0.3V114c0.3,0.3,0.3-0.3,0.6,0.3l0.3-0.6v0.3h0.3
			c-0.3-0.2-0.2-0.3-0.1-0.3h-0.2c0.3-0.3,0.9,0.3,1.2,0.3l-0.3,0.6l-1.5,0.6v-0.3c-0.3,0-0.3,0.3-0.3,0.3v0.3
			c-0.3,0.6-1.2-0.3-1.5,0.6l-1.2,0.1c-0.6,0.6-1.2-0.6-1.8,0c-0.6-0.3-0.6,0.6-1.2,0c-0.3-0.3-0.6,0.3-0.6-0.3h-0.6
			c-0.3,0-0.6-0.3-0.6-0.6c-0.6,0.6-0.9,0-1.2,0c-0.3-0.3-0.9-0.6-0.6-1.2c-0.6,0,0-0.6-0.6-0.6c0-0.3-0.9-0.9-0.3-1.2
			c-0.6,0,0-0.9-0.3-1.5c0.6-0.3-0.6,0,0-0.6h0.3c0-0.3-0.6-0.3-0.3-0.6c0-0.3-0.3-1.2,0.3-1.2h0.2c-0.2,0,0-0.3-0.2-0.3
			c0-0.3,0-0.6,0.6-0.9c-0.3,0,0-0.3,0-0.6c0.6,0,0.3,0,0.9-0.3l-0.3-0.3h0.3v0.3l0.3-0.3c-0.3-0.3,0.3-0.3,0-0.6h0.3v-0.3h0.3
			c-0.6-0.3,0.3-0.6,0-0.9c0-0.3,0.6-0.3,0.9-0.6c0-0.2-0.2-0.3-0.3-0.3c0.1,0,0.4,0,0.3-0.2c0.2,0.2,0.3-0.1,0.5-0.1
			c0.6-0.6,1.2-0.3,1.2-0.9c0-0.9,1.5-0.3,1.2-1.2c0.3,0.3,0.3-0.3,0.6,0v0.3c0.3-0.6,0.9,0,1.2,0.3c-0.3,0.9,1.2,1.5,0.6,2.1
			c0,0.3,0.3,0.3,0,0.6l0.3,0.3l-0.3,0.3c-0.3,1.5-1.2,3.6-3,4.5c-0.9,0.3-0.9,0.6-1.8,0.6c0,0.3-0.3,0.3-0.6,0.3l-0.3-0.3v0.3h-0.3
			c0,0.3-0.3-0.3-0.6-0.3c-0.3-0.3-0.3-0.9-0.3-1.2c-0.9,1.5-1.2,3.6,0,5.1c0.6,0.6,1.5,0.6,2.1,0.9c0.6-0.3,1.5,0,1.8,0.3l0.3-0.3
			c0.3,0,0.6-0.3,0.9,0l0.3-0.1c0.3-0.3,0.6-0.3,0.9-0.3S129.7,114.3,130,114z M123.9,106.3c-0.9,0.6,0.3,0.9,0.3,1.5
			c-0.3,0-0.3,0.3-0.3,0.6c0.6,0,0.9-0.6,1.5-0.3c0-0.6,0.3-0.6,0.6-0.6v0.3l0.3-0.3c0.3-0.3,0.3-0.9,0.9-0.9
			c0.6-0.3,0.6-1.8,1.5-2.1h-0.3c0.6-0.3-0.3-0.6,0.3-0.9V103c0-0.3-0.6-0.6-0.9-0.3C126.4,103.3,124.9,104.8,123.9,106.3z"/>
		<path id="XMLID_438_" class="st1" d="M141.8,103.2c-0.4-1.2,1.1-2.1,1.8-2.7h0.3c0-0.6,0.7,0,1.1-0.6c0,0,0,0.3,0.3,0.3v-0.3
			c0.7,0,1.1-0.3,1.8,0c1.8,0,2.9,1.8,3.9,2.4c0.7,0.3,0.7,1.2,1.4,1.2v0.3c-0.4,0,0,0.3,0,0.3h0.3c-0.3,0.6,0.7,1.8-0.3,1.8
			c0.7,0.6-0.4,0.6,0,1.2l-0.4,0.9c0-0.3,0,0-0.3,0c0.3,0,0.3,0.3,0,0.6c0,0,0-0.3-0.3-0.3c0,0.1-0.1,0.2-0.1,0.3h-0.3v0.3h0.1
			c-0.1,0.1-0.1,0.2-0.1,0.3h-0.3v0.3c-0.3,0.1-0.7,0.2-0.7,0.3l0.3,0.3l-0.7,0.3c0,0,0-0.6-0.3-0.3c0.3,0.6-0.9,0.6-0.9,1.2
			l-0.3-0.3c0,0.3-0.4,0.3,0,0.6c-0.4,0-0.7,0-1.1,0.3v0.3h-0.3c0.3,0.6,0,1.2,0.3,1.5l-0.6,4c0.4,0.3,0,0.6,0,0.9l0.4,0.3
			c-0.4,0.6-0.4,1.5-0.7,2.1l0.3,0.3l-0.3,0.3c0,0.9,0.3,1.8,0,2.4c-0.4,0.3-0.7,0-0.7,0h0.2c-0.3-0.1,0.2-0.3-0.2-0.6
			c-0.4-0.3-0.4-0.9-0.4-1.2v-0.9c0-0.2,0-0.3,0.2-0.3c-0.8-0.1-0.2-0.9-0.2-1.2v-2.7l0.1-2.8c0-0.6,0.7-0.9,0-1.5
			c-0.4,0.3-0.4,0-0.7,0c0-0.6,1.8-1.2,0.7-1.8c0.3,0,0.3-0.3,0.3-0.6c0.4-0.6-0.3-1.2,0.4-1.5l-0.4-0.3v-1.8h-0.7
			c0,0,0-0.3-0.3-0.3v0.3c-0.7-0.9-2.9-1.2-2.9-2.4c-0.3,0,0.4-0.6,0-0.9L141.8,103.2z M143.3,105.6c0.6,0.5,2-0.5,2.1,0.4
			c0-0.5,0-0.8,0.4-1c0.3,0,1.1,0.3,1.4,0.6c0,0.6,0.2,1.2-0.2,1.8c0.4,0.3,0.4,0.6,0,0.6c0.4,0.6,0.4,1.5,0,2.1
			c1.4-0.6,2.7-2.1,3.8-3c0.3-1.8,0.7-3.6-0.7-4.8c-1.1-0.6-2.5-0.9-3.9-0.6c0,0.3-0.7,0.3-1.1,0.3c-0.7,0.9-1.1,1.5-1.8,2.7h0.3
			c-0.3,0-0.3,0.3-0.3,0.3C142.9,105.3,143.6,105.3,143.3,105.6z"/>
		<path id="XMLID_441_" class="st1" d="M158.1,103.9c-0.3,0.3,0.3,0.3,0,0.6c0.6,0,0.6,0.3,0.9,0.3v0.3c-0.3,0,0,0.3,0,0.3v0.9
			c-0.3,0,0.3,0.3-0.3,0.3v0.3c-0.3,0.6-0.3,0.9,0,1.2h-0.3c0,0,0.3,0.6,0.3,0.9c-0.3,0.6-0.9,0.9-0.3,1.5l-0.3,0.3
			c0,0.3,0.3-0.3,0.3,0l-0.6,0.3c0,0,0.3,0.3,0.6,0v0.3c-0.3,0-0.6-0.3-0.6,0v0.3h-0.3c0.6,0.3,0.6,0.3,0.6,0.6l-0.3,0.3
			c0,0.3,0.3,0.3,0,0.6c0.3,0,0.3,0.3,0.3,0.6s0.3,0.6,0.9,0.6c0.6-0.3,1.5-1.5,2.1-1.8h-0.3l0.9-0.3v-0.3c0.6-1.2,1.8-2.7,2.4-4.2
			l0.3-0.3c-0.5-0.2,0.1-0.6,0.3-0.9v0h0.3v-0.3h-0.3l0.1-0.3h0.2v-0.3H165c0.2-0.7,0.4-1.4,0.4-2.1h0.3c-0.3-0.3-0.3-1.2,0-1.8
			c0.6,0.3,1.2-0.3,1.8,0h-0.3l0.6,0.6h-0.6c0.6,0.3,0.6,0.6,0.6,0.9h-0.6c0.6,0.3,0,0.6,0.6,0.9c-0.6,0.9,0,1.8,0,2.7
			c0.3,0.3-0.3,0.9,0,1.2c-0.6,0.6,0.3,1.5,0,1.8c0,0.3,0.3,0.6,0,0.6c0.3,0.3,0.3,0.6,0.3,0.9c0,0.1,0,0.1,0,0.1
			c0.1,0.2-0.2,0.6,0,0.8v0.6c0,0-0.3,0.6-0.3,0l-0.3,0.3c0.6,0,0.9,0.3,0.6,0.9c-0.3,0,0,0.3,0.3,0.3c0.3,0.6-0.3,0.9-0.3,1.5
			c-0.3,0.3,0.3,0.9-0.3,0.9v0.3c-0.3-0.3-1.5,0.3-1.2-0.9v-0.6l-0.3-0.6h0.3c-0.3-0.3,0-0.6-0.3-0.6l-0.3-1.2l0.3-0.3
			c-0.3-0.3-0.3-1.2-0.6-1.8v-0.6c0.3,0-0.3,0,0-0.3c-0.3-0.3,0-0.6-0.3-1.2l-0.3,0.3V109c-0.3,0.3-0.3,0.6-0.6,0.9h0.3l-0.3,0.3
			v-0.3c-0.6,0-0.3,0.6-0.6,0.6c0,0.3,0.2,0.6,0.5,0.6h-0.5c0.3,0,0.3,0.3,0.3,0.3l-0.6,0.3l0.3,0.3l-0.6,0.3c0,0.3,0,0.3-0.6,0.6
			l0.3,0.3l-0.3,0.3v0.3c-0.3,0-0.3,0.6-0.6,0.6v-0.3h-0.3v0.2c-0.1,0-0.2,0.1-0.3,0.1c0,0.3,0.3,0.3,0.3,0.3s0,0.3,0.3,0.3
			c-0.3,0.3-0.3,0-0.6-0.3v0.6c0-0.3-0.3,0-0.3,0c0.3,0-0.3,0.3-0.3,0.6c-0.3,0-0.6-0.3-0.6,0v0.3c-0.3,0,0.3-0.3-0.3-0.3v0.6
			c0-0.2-0.3,0-0.3-0.3s-0.6,0-0.6,0c0-0.3-0.3-0.3-0.6-0.3c0-0.3-0.3-0.3-0.3,0l-0.3-0.6h-0.3c0,0.3-0.3,0-0.3,0s0.3,0,0.3-0.3
			h-0.3c-0.6,0,0-0.9-0.6-0.9v-0.3c-0.3,0-0.3-0.6,0-0.9c-0.3-0.3,0-0.9-0.3-1.2l0.9-6c0-0.3,0.9-0.6,0.3-0.9c0.3-0.3-0.3-0.6,0-0.9
			c0.3,0,0.3-0.3,0.6-0.3s0.3,0.3,0.3,0.6L158.1,103.9z"/>
		<path id="XMLID_443_" class="st1" d="M173.3,105.8h-0.4c0.8,0.7-0.4,1.3,0.4,2c-0.4,0.3,0.4,0.7,0.4,1.3l0.8-0.6l-0.4-0.3h0.4
			l-0.4-0.3h0.4v-0.3h0.4c-0.8-0.7,0.4-0.7,0-1.7h0.3c-0.2,0,0.5-0.3,0.1-0.7h0.4c-0.4-0.3,0.4-0.7,0-1c0.4-0.3,0.8-0.3,0.8-0.6
			c0-0.3-0.2-0.3-0.3-0.3h0.3c0-0.3,0-1,0.8-1l-0.4-0.3c-0.4,0,0.3,0,0-0.3c0.8,0.6,0.8-1.1,1.5-0.4c0,0.3,0.4,0.3,0.4,0.3
			c0.4,1,2.3,1.4,2.3,2.4c0.4,0.6,0.4,1.3,0.8,1.7c0.8,0.7,0.4,2.3,0.8,3.4l-0.4,0.3h0.8c-0.4,0.3,0.4,1-0.4,1
			c0.4,0.3-0.4,0.7,0.4,1l-0.4,0.3l0.4,0.3h-0.4l0.4,0.7l-0.4,0.3h-0.4c0.4,0.3,0.8,1,0.4,1.3h-0.4l0.4,0.3v1.7
			c-0.8,0-0.4,1.3-1.2,1l0.2,0.2c-0.2-0.2-0.3-0.2-0.5-0.2l0.4,0.3v0.3l-0.4-0.3v-0.3h-0.4c0-0.6-0.4-1,0.4-1.3c0.4-4,0-8-1.6-11.7
			l-1.2-1c0,0.3-0.4,0.7-0.4,1c-1.2,0.7-0.4,1.7-1.2,2.7c0,0.3,0,0.7-0.4,0.7c-0.4,1.4-0.4,2.3-1.5,3.4l0.4,0.3
			c-0.8,0-0.8,0.3-0.8,0.6h-0.3c0.6,0.1,0,0.7,0.7,0.7c0,0.3-2,0.7-0.4,0.7v0.3h-0.3c0.3,0.1,0.3,0.7-0.1,1v0.3
			c-1.2,0.3,0.8,1.7-0.8,2c-1.6,0.3-0.8-1.3-1.6-1.7l0.4-1.3l-0.4-7.7l-0.4-5.4c1.5,0.3,1.2,2,2,3
			C172.6,104.4,173.3,105.1,173.3,105.8z"/>
		<path id="XMLID_445_" class="st1" d="M187.5,111.1l-0.6-0.3c-0.3-0.3,0.9-0.9,0.3-1.5c0.6,0,0-0.6,0.3-0.9c-0.3-0.3,0.6-0.6,0-0.9
			c0.6-0.6,0-1.5,0-2.1c-0.3-0.6,0-1.2,0-1.8c0-0.3-0.3-0.9,0.3-1.2c-0.3-0.6,0-1.5-0.3-2.1h0.3c-0.3-0.6,0.3-1.5-0.3-2.1
			c0.3-0.9,0.3-2.1,0.9-3c1.2,0,0.6,1.2,0.9,1.8c-0.6,1.2,0.9,2.1-0.3,3l-0.3,4.5c0,0.9,0,2.7,0.3,3.9c0,0,0.3,0.3,0.6,0l-0.3-0.3
			c0.6-0.3,0.9-0.6,1.2-0.3c0-0.6,0-0.9,0.6-0.9h0.3l0.3-0.9c0.3,0,0.3,0.3,0.6,0.3l0.3-0.3H192c0.2-0.2,0.5,0,0.6-0.2v0.2
			c0-0.2,0.3-0.6,0.6-0.6c0,0-0.3-0.3,0-0.3v-0.3l0.9-0.6v0.3l0.5-0.5l0.1,0.2c0-0.1-0.1-0.2,0-0.2l0.1-0.1h-0.1
			c0.1-0.2,0.5-0.4,0.7-0.6v-0.3c0.6,0.6,0.9-0.3,1.5,0c0-0.3,0.3-0.3,0-0.6h-0.3v0.3h-0.6c0.6-0.3,0.3-0.9,0.9-1.2l0.6,0.3
			c-0.1,0.1-0.5,0.3-0.3,0.3c0.3,0,0.3-0.6,0.6-0.3l0.3,0.3c-0.6,0,0,0.3-0.3,0.3c-0.6,0.3-0.9,1.2-1.5,1.5l-3,3h-0.3
			c-0.3,0.3-0.6,0.9-1.2,0.9c0,0.3-0.6,0.9-0.9,1.2c0,0.6-1.2,0-0.9,0.9c-0.3,0-0.3,0-0.6,0.3l3.6,2.7l3.6,1.8l0.8,0.3
			c1.2,0.4,2.5,0.9,3.4,1.5c0,0.3-0.3,0-0.3,0.3c0.3,0.3,0.6-0.3,0.6,0l-0.9,0.3c-0.3,0-0.6-0.6-1.5-0.3c0-0.3,0-0.3-0.3-0.3
			s-1.2-0.6-1.5-0.3l-0.5-0.2l-0.7-0.4l-0.9-0.3V115l-0.2,0.2c-0.3,0-0.9,0.2-0.7-0.5c-0.3,0-0.6-0.3-0.9,0c-0.3-0.3,0.3-0.6,0-0.6
			s0,0.3-0.3,0.3v-0.3h-0.3l-0.3-0.3v0.3c-0.3-0.6-1.2-0.3-1.2-0.9h-0.3v-0.3c-0.6,0-0.9-0.3-1.2-0.9c-0.3,0.3-0.3,0.3-0.3,0.6
			c0,0.9,0,2.9,0.3,3.5l-0.3,0.3c0,0-0.3,0.3,0,0.6c-0.3,0.3,0.3,0.9-0.3,0.9l-0.3,0.9c0-0.3-0.6,0-0.6-0.3l0.3-0.3
			c-0.6-0.3-0.3-1.2-0.3-1.8s0.3-2.6,0-3.2c-0.3,0-0.3-0.3-0.3-0.3c0.6,0,0.3-0.6,0.3-0.9l-0.6-0.3c0,0,0.3,0,0.3-0.3V111.1z"/>
		<path id="XMLID_447_" class="st1" d="M221.4,112.2c0.3,0,0-0.3,0.3-0.3c-0.3,0.6,0.9,0.9,0,1.2l0.3,0.3c0-0.3,0,0.3,0.3,0.3
			c0.9-1.8,0.9-3.3,1.2-5.1l0.3-0.3h-0.3c0.6-1.2,0-2.1,0.3-3c0.3-0.3,0-0.6,0.3-0.6l0.3-1.8c-0.3-0.3,0.3-0.9,0-1.2
			c0.3-1.5,0.3-2.7,0.6-3.9c0.6,0.3,0.3,1.2,0.6,1.8l-0.3,0.3h0.3l-0.3,0.3c0.6,0.6,0,1.2,0.3,1.8h-0.3c0,0.6,0.3,1.2,0.3,1.8h-0.3
			c-0.3,0.3,0,0.3,0,0.6v0.6h0.3l-0.3,0.6c0.4,0.2,0.1,0.3,0,0.3c-0.3,0.6,0.6,0.9-0.3,1.2h0.3l-0.3,0.3c0.9,0,0.3,0.9,0.6,1.5
			c-0.6,0,0,0.3,0,0.6c-0.3,0-0.3,0.3-0.6,0.6l0.3,0.3v0.3l-0.3-0.3v0.6l0.1,0.1c-0.4,0.3,0.7,0.8-0.1,1.1c0.6,0.3,0,1.2,0,1.5
			l-0.3,0.3c0,0.3-0.3,0.6,0,0.9c-0.3,0-0.3,0.3-0.3,0.3c0,0.3-0.6,0.6-0.3,1.2c0,0.9-0.9,0.3-1.2,0.9c-0.3-0.3-1.2-0.3-1.5-0.6
			l0.3-0.3h-0.3c0-0.6-0.9-0.6-0.6-1.5c-0.6-0.3-0.3-1.2-0.9-1.5v-0.6c-0.3-0.3-0.6-0.9-0.6-1.5c0.3,0,0-0.3,0-0.3
			c0.3-1.2-0.6-1.8-0.6-2.4c-0.3-0.9-0.9-2.1-0.6-3l-0.3-0.6l-0.3,0.3h0.3l-0.3,0.6c0.3,0-0.2,0.2-0.1,0.5c-0.1,0-0.2,0.1-0.2,0.1
			l0.5,0.5c-0.1,0.1-0.2,0.3-0.2,0.4c0.3,0.3,0,0.6,0,0.9v0.3c-0.6,0.6-0.3-0.9-0.9-0.3c0.6,0.3,0.6,0.6,0.9,0.9
			c0,0.3-0.3,0.9-0.9,0.9c0,0.1,0,0.2,0.1,0.3h-0.1v0.3h0.3v-0.1c0.1,0.1,0.1,0.3,0,0.4l-0.3,0.3c0,0.3,0.3,0,0.3,0.3
			c-0.3-0.3-0.3,0.3-0.6,0.3c0.2,0.1,0,0.9,0,1.2c0,0,0,0.3-0.2,0.3c0.2,0,0.2,0.3-0.1,0.6c-0.3,0,0,0.6-0.3,0.9h0.3
			c-0.3,0.6-0.6,1.2-0.6,1.5c0,0.9-0.6,0.9-0.3,1.8h-0.3v-0.3l-0.6,0.3h-0.9v-0.3c-0.6-0.3-0.3-0.6-0.3-0.9l-0.6-0.9l0.6-0.3
			l-0.6-0.3c0.3-0.6-0.3-0.9,0-1.5c-0.6,0-0.3-0.6-0.3-0.9c0-0.6-0.3-1.5,0-2.4l-0.6-0.6c0.3-0.3,0-0.9,0.3-0.9
			c-0.6-0.6-0.3-0.9,0-1.5l-0.3-1.8h-0.3c0.9-0.6-0.3-0.9-0.3-1.2l0.6-0.6c-0.3,0-0.6,0-0.3-0.3c0,0.3,0.3,0,0.3,0h0.3
			c-0.3,0.3,0.3,0.3,0.6,0.6H212c0.3,0.1,0.3,0.6,0.6,0c0,0.6,0.6,2.1,0.3,2.7c0.3,0.3,0,0.6,0,0.9c-0.3,0,0.3,0.6,0,0.9h0.3
			c0,0,0,0.3-0.2,0.3c0.2,0.1,0.2,0.3,0.2,0.6c-0.3,0.3,0.3,0.3,0.3,0.6v1.2c0.3,0.6,0.3,1.2,0.3,1.8c0.6-1.2,0.9-3.3,1.5-4.5v-0.3
			c0.3-0.6,0-1.2,0.3-1.5c0.6-0.6,0-0.9,0.6-1.5c-0.3,0,0-0.3,0-0.6h0.3l-0.3-0.3c0.3-0.3,0.3-0.6,0.3-0.9h-0.3
			c0.3-0.1,0.3-0.6,0.6-0.9v-0.3c0-0.3,0.3-0.6,0-0.9l0.3,0.3v-0.3c-0.3-0.3-0.3-0.9,0-0.9l0.3,0.3h-0.3l0.6,0.3V101
			c0.3,0.3,0.3,0.3,0.3,0.6c0.3,0,0.6,0,0.9,0.3l-0.3,0.3h0.3v0.3c0.3,0,0.3,0.3,0.3,0.6v0.9h0.3c0.6,0.3,0,1.2,0.3,1.5l0.3,0.3
			l-0.3,0.3l0.6,0.9l-0.3,0.3c0.6,0.3,0.3,0.3,0.6,0.9v0.3l-0.3,0.3h0.3v0.3c0,0.3,0,0,0.3,0l-0.3,0.3l0.3,0.3h-0.3
			c0.3,0.3,0.3,0.3,0.6,0.3c0,0.3-0.3,0.3-0.3,0.6c0,0,0.3-0.3,0.3,0c0.3,0,0,0.3,0,0.6l0.3,0.3l-0.3,0.3v-0.3
			c-0.3,0-0.3,0.3-0.3,0.6H221.4z"/>
		<path id="XMLID_449_" class="st1" d="M230.9,107.9v0.2c0.1,0.3,0.3,0.5,0.3,0.8c-0.9,0,0.3,0.6,0,0.6c0-0.3-0.3,0.3-0.6,0.3
			c0.3,0.3,0.9,0,0.6,0.3v0.6c0-0.3-0.3-0.3-0.3-0.3c0.3,0.6,0.3,0.9,0,1.5c0.6,0.3-0.6,0.9,0.3,1.2c-0.3,0-0.1,0.3-0.3,0.3h0.3
			c0,0.3-0.3,0.3-0.3,0.3h-0.3c-0.3,0.6,0.3,0,0.3,0.6v0.9c0,0.3,0.3,0.9,0,1.2c0.3,0,0.3,0.3,0.3,0.6c-0.3,0.3-0.9,0-1.2,0l0.3,0.6
			c-0.6-0.3-0.3-0.6-0.6-0.9c-0.9-1.8,0-3.9-0.3-5.7c0.3-0.3,0.3-0.6,0-0.9c0-0.3,0.6-0.6,0.3-1.2c0.6-0.6-0.3-1.5,0.3-2.1
			c0.3,0.3,0.3,0,0.3-0.3l-0.3-0.3h0.6c0.6,0.3-0.3,0.9,0.3,0.9C230.6,107.3,230.7,107.6,230.9,107.9L230.9,107.9z M230.6,93.4h-0.3
			l0.3-0.3h-0.3c0.6-0.3,0.9,0.3,1.2,0.3h0.3c-0.6,0.3,0,0.6-0.3,0.9h0.6c-0.3,0.3,0.3,1.2-0.6,1.2v0.3h0.6V97l-0.3-0.3V97l-0.3,0.3
			h0.3l0.3,1.2c-0.3,0-0.6-0.3-0.6,0c0.3,0.3,0.3,0.3,0.3,0.6c-0.6,0,0.3,0.6-0.3,0.6v0.3h-0.6v0.3c0,0-0.3,0-0.3-0.3l0.3-0.3
			c-0.3-0.3-0.6-0.3-0.3-0.9l0.3-0.3h-0.3v-0.3c-0.3-1.2-0.3-3-0.3-4.5L230.6,93.4z"/>
		<path id="XMLID_452_" class="st1" d="M233.5,107.5c0.2-0.2,0.1-0.3,0-0.3c0.3,0,0.6-0.3,0.6,0c0.3-0.3-0.3-0.3,0.3-0.6
			c0,0.3,0.3,0,0.3,0v-0.3c0.3,0.6,0.6-0.2,0.9,0l-0.3-0.3c0.3,0,0.6-0.3,0.9,0v-0.3c0.9,0,0.9-0.6,1.8-1.2l0.9-6.5l0.3-2.7
			c1.5,0.9,0.6,3,0.9,4.5l-0.3,0.3c0.6,0.3,0.3,0.9,0.3,1.2c0,0.9-0.3,2.2,0,2.8v0.3l0.3-0.3c0.3,0.6,0.3,0,0.9-0.3l0.2,0l0.9-0.3
			h0.3l0.3,0.3c0.3-0.3,0.6-0.6,0.9-0.6c0.3,0.3,0,0.3-0.3,0.6l0.3,0.3c0.3-0.3,0.6-0.3,0.6-0.6v-0.3c0,0,0.3,0.6,0.3,0.9l0.3-0.9
			c0.3,0,0.6,0.3,0.9,0.3c0-0.9,0.9,0,1.5-0.3c0,0.3-0.6,0.3-0.6,0.3h-0.3c0,0,0.3,0.3,0,0.6c-0.3,0-0.6-0.3-0.9-0.3
			c0,0.9-0.9,0.3-1.8,0.9c-0.3-0.3-0.3,0-0.6,0.3l-3.5,1c-0.3,0.9,0,1.8-0.3,3c0,0-0.3,0,0,0.3h-0.3c0.6,0.6-0.3,1.8,0,2.7v0.6h-0.3
			c0,0.3,0.6,1.2-0.3,1.5c0,0.2,0.2,0.3,0.2,0.3h-0.2c0,0.3,0.6,0.9,0.3,1.5h-0.3c0,0.3,0,0.3,0.3,0.3l-0.3,0.3h0.2
			c-0.4,0,0.1,0.3,0.1,0.6h-0.3c0,0.3,0,0.3,0.3,0.3c0,0-0.3,0.2-0.3,0.5v-0.2c-0.6,0.9-0.9,0-1.2,0c-0.6-0.6,0.3-1.5-0.3-2.1
			c0.3-0.9,0-1.2,0.3-2.1c-0.3-0.6,0.3-1.2,0-1.8c0.3-1.2,0.3-2.4,0.3-3.3c0-0.6,0.3-1.2,0-1.8c-1.2,0.3-2.1,1.2-3,2.1
			c-0.3,0-0.6-0.6-0.9-0.3c-0.3,0.3-0.6,0-0.3-0.6V107.5z"/>
		<path id="XMLID_454_" class="st1" d="M248.4,108.9l0.3-3.9c0,0,0-0.3,0.3-0.3c-0.6-0.9,0-4.9,0-5.8s0-1.5,0.3-2.4
			c-0.6,0-0.3-0.6-0.3-0.6c0.3-0.6-0.3-1.5,0-2.1h0.6v0.3h0.3c0,0.6,0.3,0,0.6,0.3c-0.3,0.6,0.6,1.5,0,2.1v0.6
			c0.3,0.6-0.3,1.2,0.3,1.5l-0.3,0.3c0.6,0.6,0,4,0,4.9c0.3,0.6-0.3,1.5,0,2.1c0,0.3-0.6,0.3-0.3,0.6h0.3c0,0.3,0.3,0.6-0.3,0.6
			l0.3,0.3c-0.3,0.6,0,1.5-0.3,2.4c0.9-0.3,0.3-1.5,0.9-1.8c0.3,0,0,0.3,0.3,0c-0.3-0.3,0.3-1.2,0.3-1.5c0.3-0.6,0.6-0.9,0.9-1.5
			v-0.3c0.3,0,0.3-0.3,0.6-0.6c0,0.3,0.3,0,0.6,0c-0.6,0-0.3-0.6-0.6-0.6c0,0,0-0.3,0.3-0.3v0.3c0-0.2,0.3-0.5,0.6-0.3
			c-0.3-0.6,0-0.3,0.3-0.9h-0.3l0.3-0.3c0,0,0.6-0.9,0.3,0c0.3,0.3,0.6,0,0.3-0.3c0.6-0.3,0.9-0.6,1.5,0h-0.3c0.3,0.3,0.6,0,0.9,0
			l-0.3,0.6c0.3,0.3,1.2,0,0.9,0.6h0.3v1c-0.1,0.3-0.6,0.8,0,0.8c0,0.6,0.3,1.5,0.3,2.1c0.6,0.3,0.3,0.9,0.3,1.2
			c0,0.6,0.3,1.2,0.3,1.8c-0.3-0.3-0.3,0-0.3,0.3c0,0,0.3-0.3,0.3,0c-0.3,0.6,0.3,0.9,0,1.8c0.6,0.3,0,0.9-0.3,1.2h0.6l-0.3,0.3
			c0.6,0,0,0.6,0.3,0.6s0,0.3,0.3,0.6l-0.6,0.3c0.3,0,0.9,0,0.9,0.3c-0.3,0.3-0.3,0-0.3,0.3c0.6-0.3,0.6,0.6,0.9,1.2h-0.6v-0.6
			c-0.3,0.3-0.6,0.3-0.9,0.3l-0.3-0.6v0.2c-0.1-0.3-0.3-0.5-0.3-0.5l-0.6-0.3h0.3c-0.9-0.3-0.3-1.2-0.9-1.5c0.3-0.3,0-0.3,0-0.6
			c0.3-0.3-0.6-0.3,0-0.6c-0.3-1.5-0.6-3-0.6-4.8c0.3-0.3,0-0.6,0-0.6c0-1.5-0.3-2.7-0.6-4.2l-0.3,0.6h-0.3c0,0.6-0.6,0.9-0.6,1.5
			l-0.6,0.6c0.3,0,0,0.6,0,0.6l-0.6,0.3l0.3,0.3h-0.6c0.9,0.6-0.3,1.2-0.3,2.1h-0.5c0.2,0.1,0.2,0.3,0.2,0.6l-0.9,0.6l0.6,0.3
			c-0.3,0-0.3,0.3-0.6,0.6h0.3v0.3h-0.3c0.3,0.6,0,0.9-0.3,1.5c-0.6,0.6,0,1.2-0.6,1.8c-0.6,0.3,0,0.9-0.6,0.9v0.9
			c-0.6,0.6-1.2,0-1.8,0.3l-0.3-0.3h0.3c-0.6-2.1-0.6-4.5,0-7.2V108.9z"/>
		<path id="XMLID_456_" class="st1" d="M274.1,108.9l0.3-3.9c0,0,0-0.3,0.3-0.3c-0.6-0.9,0-4.9,0-5.8s0-1.5,0.3-2.4
			c-0.6,0-0.3-0.6-0.3-0.6c0.3-0.6-0.3-1.5,0-2.1h0.6v0.3h0.3c0,0.6,0.3,0,0.6,0.3c-0.3,0.6,0.6,1.5,0,2.1v0.6
			c0.3,0.6-0.3,1.2,0.3,1.5l-0.3,0.3c0.6,0.6,0,4,0,4.9c0.3,0.6-0.3,1.5,0,2.1c0,0.3-0.6,0.3-0.3,0.6h0.3c0,0.3,0.3,0.6-0.3,0.6
			l0.3,0.3c-0.3,0.6,0,1.5-0.3,2.4c0.9-0.3,0.3-1.5,0.9-1.8c0.3,0,0,0.3,0.3,0c-0.3-0.3,0.3-1.2,0.3-1.5c0.3-0.6,0.6-0.9,0.9-1.5
			v-0.3c0.3,0,0.3-0.3,0.6-0.6c0,0.3,0.3,0,0.6,0c-0.6,0-0.3-0.6-0.6-0.6c0,0,0-0.3,0.3-0.3v0.3c0-0.2,0.3-0.5,0.6-0.3
			c-0.3-0.6,0-0.3,0.3-0.9h-0.3l0.3-0.3c0,0,0.6-0.9,0.3,0c0.3,0.3,0.6,0,0.3-0.3c0.6-0.3,0.9-0.6,1.5,0H282c0.3,0.3,0.6,0,0.9,0
			l-0.3,0.6c0.3,0.3,1.2,0,0.9,0.6h0.3v1c-0.1,0.3-0.6,0.8,0,0.8c0,0.6,0.3,1.5,0.3,2.1c0.6,0.3,0.3,0.9,0.3,1.2
			c0,0.6,0.3,1.2,0.3,1.8c-0.3-0.3-0.3,0-0.3,0.3c0,0,0.3-0.3,0.3,0c-0.3,0.6,0.3,0.9,0,1.8c0.6,0.3,0,0.9-0.3,1.2h0.6l-0.3,0.3
			c0.6,0,0,0.6,0.3,0.6s0,0.3,0.3,0.6l-0.6,0.3c0.3,0,0.9,0,0.9,0.3c-0.3,0.3-0.3,0-0.3,0.3c0.6-0.3,0.6,0.6,0.9,1.2h-0.6v-0.6
			c-0.3,0.3-0.6,0.3-0.9,0.3l-0.3-0.6v0.2c-0.1-0.3-0.3-0.5-0.3-0.5l-0.6-0.3h0.3c-0.9-0.3-0.3-1.2-0.9-1.5c0.3-0.3,0-0.3,0-0.6
			c0.3-0.3-0.6-0.3,0-0.6c-0.3-1.5-0.6-3-0.6-4.8c0.3-0.3,0-0.6,0-0.6c0-1.5-0.3-2.7-0.6-4.2l-0.3,0.6h-0.3c0,0.6-0.6,0.9-0.6,1.5
			l-0.6,0.6c0.3,0,0,0.6,0,0.6l-0.6,0.3l0.3,0.3h-0.6c0.9,0.6-0.3,1.2-0.3,2.1h-0.5c0.2,0.1,0.2,0.3,0.2,0.6l-0.9,0.6l0.6,0.3
			c-0.3,0-0.3,0.3-0.6,0.6h0.3v0.3h-0.3c0.3,0.6,0,0.9-0.3,1.5c-0.6,0.6,0,1.2-0.6,1.8c-0.6,0.3,0,0.9-0.6,0.9v0.9
			c-0.6,0.6-1.2,0-1.8,0.3l-0.3-0.3h0.3c-0.6-2.1-0.6-4.5,0-7.2V108.9z"/>
		<path id="XMLID_458_" class="st1" d="M290.8,107.9v0.2c0.1,0.3,0.3,0.5,0.3,0.8c-0.9,0,0.3,0.6,0,0.6c0-0.3-0.3,0.3-0.6,0.3
			c0.3,0.3,0.9,0,0.6,0.3v0.6c0-0.3-0.3-0.3-0.3-0.3c0.3,0.6,0.3,0.9,0,1.5c0.6,0.3-0.6,0.9,0.3,1.2c-0.3,0-0.1,0.3-0.3,0.3h0.3
			c0,0.3-0.3,0.3-0.3,0.3h-0.3c-0.3,0.6,0.3,0,0.3,0.6v0.9c0,0.3,0.3,0.9,0,1.2c0.3,0,0.3,0.3,0.3,0.6c-0.3,0.3-0.9,0-1.2,0l0.3,0.6
			c-0.6-0.3-0.3-0.6-0.6-0.9c-0.9-1.8,0-3.9-0.3-5.7c0.3-0.3,0.3-0.6,0-0.9c0-0.3,0.6-0.6,0.3-1.2c0.6-0.6-0.3-1.5,0.3-2.1
			c0.3,0.3,0.3,0,0.3-0.3l-0.3-0.3h0.6c0.6,0.3-0.3,0.9,0.3,0.9C290.5,107.3,290.6,107.6,290.8,107.9L290.8,107.9z M290.5,93.4h-0.3
			l0.3-0.3h-0.3c0.6-0.3,0.9,0.3,1.2,0.3h0.3c-0.6,0.3,0,0.6-0.3,0.9h0.6c-0.3,0.3,0.3,1.2-0.6,1.2v0.3h0.6V97l-0.3-0.3V97l-0.3,0.3
			h0.3l0.3,1.2c-0.3,0-0.6-0.3-0.6,0c0.3,0.3,0.3,0.3,0.3,0.6c-0.6,0,0.3,0.6-0.3,0.6v0.3h-0.6v0.3c0,0-0.3,0-0.3-0.3l0.3-0.3
			c-0.3-0.3-0.6-0.3-0.3-0.9l0.3-0.3h-0.3v-0.3c-0.3-1.2-0.3-3-0.3-4.5L290.5,93.4z"/>
		<path id="XMLID_461_" class="st1" d="M293.7,103.2c-0.4-1.2,1.1-2.1,1.8-2.7h0.3c0-0.6,0.7,0,1.1-0.6c0,0,0,0.3,0.3,0.3v-0.3
			c0.7,0,1.1-0.3,1.8,0c1.8,0,2.9,1.8,3.9,2.4c0.7,0.3,0.7,1.2,1.4,1.2v0.3c-0.4,0,0,0.3,0,0.3h0.3c-0.3,0.6,0.7,1.8-0.3,1.8
			c0.7,0.6-0.4,0.6,0,1.2L304,108c0-0.3,0,0-0.3,0c0.3,0,0.3,0.3,0,0.6c0,0,0-0.3-0.3-0.3c0,0.1-0.1,0.2-0.1,0.3h-0.3v0.3h0.1
			c-0.1,0.1-0.1,0.2-0.1,0.3h-0.3v0.3c-0.3,0.1-0.7,0.2-0.7,0.3l0.3,0.3l-0.7,0.3c0,0,0-0.6-0.3-0.3c0.3,0.6-0.9,0.6-0.9,1.2
			l-0.3-0.3c0,0.3-0.4,0.3,0,0.6c-0.4,0-0.7,0-1.1,0.3v0.3h-0.3c0.3,0.6,0,1.2,0.3,1.5l-0.6,4c0.4,0.3,0,0.6,0,0.9l0.4,0.3
			c-0.4,0.6-0.4,1.5-0.7,2.1l0.3,0.3l-0.3,0.3c0,0.9,0.3,1.8,0,2.4c-0.4,0.3-0.7,0-0.7,0h0.2c-0.3-0.1,0.2-0.3-0.2-0.6
			c-0.4-0.3-0.4-0.9-0.4-1.2v-0.9c0-0.2,0-0.3,0.2-0.3c-0.8-0.1-0.2-0.9-0.2-1.2v-2.7l0.1-2.8c0-0.6,0.7-0.9,0-1.5
			c-0.4,0.3-0.4,0-0.7,0c0-0.6,1.8-1.2,0.7-1.8c0.3,0,0.3-0.3,0.3-0.6c0.4-0.6-0.3-1.2,0.4-1.5l-0.4-0.3v-1.8h-0.7
			c0,0,0-0.3-0.3-0.3v0.3c-0.7-0.9-2.9-1.2-2.9-2.4c-0.3,0,0.4-0.6,0-0.9L293.7,103.2z M295.1,105.6c0.6,0.5,2-0.5,2.1,0.4
			c0-0.5,0-0.8,0.4-1c0.3,0,1.1,0.3,1.4,0.6c0,0.6,0.2,1.2-0.2,1.8c0.4,0.3,0.4,0.6,0,0.6c0.4,0.6,0.4,1.5,0,2.1
			c1.4-0.6,2.7-2.1,3.8-3c0.3-1.8,0.7-3.6-0.7-4.8c-1.1-0.6-2.5-0.9-3.9-0.6c0,0.3-0.7,0.3-1.1,0.3c-0.7,0.9-1.1,1.5-1.8,2.7h0.3
			c-0.3,0-0.3,0.3-0.3,0.3C294.8,105.3,295.5,105.3,295.1,105.6z"/>
		<path id="XMLID_464_" class="st1" d="M311.1,105.8l-0.7,0.3l-1.6,0.3l0.2,0.2c-0.4,0.2-0.9,0-1.3,0c-0.2-0.2-0.2-0.6-0.2-0.9
			c0.2-0.2,0.4-0.2,0.6-0.5l0.9-0.2c0,0,0.4-0.2,0.6-0.2c0-0.2,0.5,0,0.6-0.2l0.9-0.2l0.6,0l0.5-0.4l0.2,0.2c0,0,0-0.5,0.2-0.2
			c0.5,0.2,0.9-0.6,1.3,0v-0.2c0.2,0,0.6,0,0.6-0.2h0.2c0.1-0.1,0.3-0.1,0.4,0c0.2,0,0.3,0,0.2-0.2c0.2,0,0.4-0.4,0.6,0
			c0,0.2-0.2-0.2-0.2,0.2h0.5c0-0.2,0-0.2,0.2-0.2v0.2c0-0.5,0.4-0.2,0.6-0.4c0.2,0,0.4,0.2,0.6,0c0,0,0.4-0.1,0.5-0.2l0.2,0.2h0.2
			c0.2,0.2,0.4,0,0.6,0.2v-0.2c0.2,0,0.4,0,0.6-0.2v0.2c0.5,0.2,0.6,0,0.9,0.2H320l-0.2,0.2c0,0.3-0.2,0.2-0.4,0.2l0.2-0.2
			c-0.2-0.2-0.5,0-0.5,0H319l0.2,0.2v0.2c-0.2-0.2-0.6,0.2-0.6-0.2l-0.2,0.2v-0.2c-0.4,0.5-0.9,0.5-1.5,0.7v-0.2l-0.4,0.2
			c-0.2,0.2-0.6,0-0.9,0.2h-0.5v0.2c-1.1,0.2-1.9,0.5-3,0.6c-0.2,0-0.4,0.2-0.4,0.2l-0.2,0L311.1,105.8z"/>
		<path id="XMLID_466_" class="st1" d="M324.3,108.9l0.3-3.9c0,0,0-0.3,0.3-0.3c-0.6-0.9,0-4.9,0-5.8s0-1.5,0.3-2.4
			c-0.6,0-0.3-0.6-0.3-0.6c0.3-0.6-0.3-1.5,0-2.1h0.6v0.3h0.3c0,0.6,0.3,0,0.6,0.3c-0.3,0.6,0.6,1.5,0,2.1v0.6
			c0.3,0.6-0.3,1.2,0.3,1.5l-0.3,0.3c0.6,0.6,0,4,0,4.9c0.3,0.6-0.3,1.5,0,2.1c0,0.3-0.6,0.3-0.3,0.6h0.3c0,0.3,0.3,0.6-0.3,0.6
			l0.3,0.3c-0.3,0.6,0,1.5-0.3,2.4c0.9-0.3,0.3-1.5,0.9-1.8c0.3,0,0,0.3,0.3,0c-0.3-0.3,0.3-1.2,0.3-1.5c0.3-0.6,0.6-0.9,0.9-1.5
			v-0.3c0.3,0,0.3-0.3,0.6-0.6c0,0.3,0.3,0,0.6,0c-0.6,0-0.3-0.6-0.6-0.6c0,0,0-0.3,0.3-0.3v0.3c0-0.2,0.3-0.5,0.6-0.3
			c-0.3-0.6,0-0.3,0.3-0.9H330l0.3-0.3c0,0,0.6-0.9,0.3,0c0.3,0.3,0.6,0,0.3-0.3c0.6-0.3,0.9-0.6,1.5,0h-0.3c0.3,0.3,0.6,0,0.9,0
			l-0.3,0.6c0.3,0.3,1.2,0,0.9,0.6h0.3v1c-0.1,0.3-0.6,0.8,0,0.8c0,0.6,0.3,1.5,0.3,2.1c0.6,0.3,0.3,0.9,0.3,1.2
			c0,0.6,0.3,1.2,0.3,1.8c-0.3-0.3-0.3,0-0.3,0.3c0,0,0.3-0.3,0.3,0c-0.3,0.6,0.3,0.9,0,1.8c0.6,0.3,0,0.9-0.3,1.2h0.6l-0.3,0.3
			c0.6,0,0,0.6,0.3,0.6s0,0.3,0.3,0.6l-0.6,0.3c0.3,0,0.9,0,0.9,0.3c-0.3,0.3-0.3,0-0.3,0.3c0.6-0.3,0.6,0.6,0.9,1.2h-0.6v-0.6
			c-0.3,0.3-0.6,0.3-0.9,0.3l-0.3-0.6v0.2c-0.1-0.3-0.3-0.5-0.3-0.5l-0.6-0.3h0.3c-0.9-0.3-0.3-1.2-0.9-1.5c0.3-0.3,0-0.3,0-0.6
			c0.3-0.3-0.6-0.3,0-0.6c-0.3-1.5-0.6-3-0.6-4.8c0.3-0.3,0-0.6,0-0.6c0-1.5-0.3-2.7-0.6-4.2l-0.3,0.6h-0.3c0,0.6-0.6,0.9-0.6,1.5
			l-0.6,0.6c0.3,0,0,0.6,0,0.6l-0.6,0.3l0.3,0.3h-0.6c0.9,0.6-0.3,1.2-0.3,2.1h-0.5c0.2,0.1,0.2,0.3,0.2,0.6l-0.9,0.6l0.6,0.3
			c-0.3,0-0.3,0.3-0.6,0.6h0.3v0.3h-0.3c0.3,0.6,0,0.9-0.3,1.5c-0.6,0.6,0,1.2-0.6,1.8c-0.6,0.3,0,0.9-0.6,0.9v0.9
			c-0.6,0.6-1.2,0-1.8,0.3l-0.3-0.3h0.3c-0.6-2.1-0.6-4.5,0-7.2V108.9z"/>
		<path id="XMLID_468_" class="st1" d="M338.2,111c-0.4-0.7,1.1-0.3,0.4-1c0-0.3-0.4-1,0-1c-0.4-0.4,0-1.1,0.4-1.4
			c0-0.3,0.3-0.3,0.3-1l0.4-0.3l-0.4-0.4l0.8-0.3c-0.8,0-0.4-0.3-0.4-0.7l0.7-0.3c-0.3-0.3-0.6-0.1-0.7,0c0.3-0.3,0.7-0.3,1.1-0.3
			c-0.4-0.7,0-1.1,0.4-1.7c0.7,0,1.4,0.4,1.8,1c-1.1-0.3-0.7,1.1-1.1,1.4c-0.4,0.7-0.7,1.7-1.1,2.1c0.7,0.3-0.4,0.6,0,1.4
			c-0.4,1-0.4,1.7-0.4,2.7c0,0.3,0,0.7-0.3,1c0.3,0.3,0,1.4,0.7,2.1c1.5,0,2.2-1.4,3.3-2.1c0.8-0.3,0.4-1.3,1.1-1.7c0.4-1,0-2,0-2.8
			c0,0,0.8-0.3,0-0.3l0.4-0.3c-0.7,0,0-1.1-0.4-1.4c-0.3-0.3,0-1-0.3-1c0.7-0.7-0.8-1.4-0.4-2.1c0-0.3-1.1,0-1.1-0.7
			c0.4,0,0.4,0,0.7-0.3h-0.3c0.3-0.7,0.7,0.3,1.1,0.3c0,0.7,0.7,0.3,0.7,0.7c-0.4,0.7,0.7,1,0.4,1.7l0.3,0.3c0.4,0.3,0.4,1,0,1.3
			l0.4,0.4c0.4,0.7-0.4,1.3,0.4,2c-0.8,0.3,0,0.7,0,1c0.4,0.3-0.8,0.3-0.4,1l0.4,0.4c0,0-0.4,0.3-0.4,0.6v0.4c0.4,0.6-0.4,1-0.4,1.7
			c0,0-0.3-0.3-0.3,0c-0.4,0.3,0,0.3,0,0.3c-0.8,1.1-2.2,1.7-3.7,2.1c-0.4-0.3-0.8-0.7-1.1,0c0-0.7-1.1-0.3-1.5-0.7
			c-0.7-1-1.1-2-1.5-3.4V111z"/>
		<path id="XMLID_470_" class="st1" d="M348.5,103.2c-0.4-1.2,1.1-2.1,1.8-2.7h0.3c0-0.6,0.7,0,1.1-0.6c0,0,0,0.3,0.3,0.3v-0.3
			c0.7,0,1.1-0.3,1.8,0c1.8,0,2.9,1.8,3.9,2.4c0.7,0.3,0.7,1.2,1.4,1.2v0.3c-0.4,0,0,0.3,0,0.3h0.3c-0.3,0.6,0.7,1.8-0.3,1.8
			c0.7,0.6-0.4,0.6,0,1.2l-0.4,0.9c0-0.3,0,0-0.3,0c0.3,0,0.3,0.3,0,0.6c0,0,0-0.3-0.3-0.3c0,0.1-0.1,0.2-0.1,0.3h-0.3v0.3h0.1
			c-0.1,0.1-0.1,0.2-0.1,0.3h-0.3v0.3c-0.3,0.1-0.7,0.2-0.7,0.3l0.3,0.3l-0.7,0.3c0,0,0-0.6-0.3-0.3c0.3,0.6-0.9,0.6-0.9,1.2
			l-0.3-0.3c0,0.3-0.4,0.3,0,0.6c-0.4,0-0.7,0-1.1,0.3v0.3h-0.3c0.3,0.6,0,1.2,0.3,1.5l-0.6,4c0.4,0.3,0,0.6,0,0.9l0.4,0.3
			c-0.4,0.6-0.4,1.5-0.7,2.1l0.3,0.3l-0.3,0.3c0,0.9,0.3,1.8,0,2.4c-0.4,0.3-0.7,0-0.7,0h0.2c-0.3-0.1,0.2-0.3-0.2-0.6
			c-0.4-0.3-0.4-0.9-0.4-1.2v-0.9c0-0.2,0-0.3,0.2-0.3c-0.8-0.1-0.2-0.9-0.2-1.2v-2.7l0.1-2.8c0-0.6,0.7-0.9,0-1.5
			c-0.4,0.3-0.4,0-0.7,0c0-0.6,1.8-1.2,0.7-1.8c0.3,0,0.3-0.3,0.3-0.6c0.4-0.6-0.3-1.2,0.4-1.5l-0.4-0.3v-1.8h-0.7
			c0,0,0-0.3-0.3-0.3v0.3c-0.7-0.9-2.9-1.2-2.9-2.4c-0.3,0,0.4-0.6,0-0.9L348.5,103.2z M349.9,105.6c0.6,0.5,2-0.5,2.1,0.4
			c0-0.5,0-0.8,0.4-1c0.3,0,1.1,0.3,1.4,0.6c0,0.6,0.2,1.2-0.2,1.8c0.4,0.3,0.4,0.6,0,0.6c0.4,0.6,0.4,1.5,0,2.1
			c1.4-0.6,2.7-2.1,3.8-3c0.3-1.8,0.7-3.6-0.7-4.8c-1.1-0.6-2.5-0.9-3.9-0.6c0,0.3-0.7,0.3-1.1,0.3c-0.7,0.9-1.1,1.5-1.8,2.7h0.3
			c-0.3,0-0.3,0.3-0.3,0.3C349.6,105.3,350.3,105.3,349.9,105.6z"/>
		<path id="XMLID_473_" class="st1" d="M375.4,103.9c-0.3,0.3,0.3,0.3,0,0.6c0.6,0,0.6,0.3,0.9,0.3v0.3c-0.3,0,0,0.3,0,0.3v0.9
			c-0.3,0,0.3,0.3-0.3,0.3v0.3c-0.3,0.6-0.3,0.9,0,1.2h-0.3c0,0,0.3,0.6,0.3,0.9c-0.3,0.6-0.9,0.9-0.3,1.5l-0.3,0.3
			c0,0.3,0.3-0.3,0.3,0l-0.6,0.3c0,0,0.3,0.3,0.6,0v0.3c-0.3,0-0.6-0.3-0.6,0v0.3h-0.3c0.6,0.3,0.6,0.3,0.6,0.6l-0.3,0.3
			c0,0.3,0.3,0.3,0,0.6c0.3,0,0.3,0.3,0.3,0.6s0.3,0.6,0.9,0.6c0.6-0.3,1.5-1.5,2.1-1.8h-0.3l0.9-0.3v-0.3c0.6-1.2,1.8-2.7,2.4-4.2
			l0.3-0.3c-0.5-0.2,0.1-0.6,0.3-0.9v0h0.3v-0.3H382l0.1-0.3h0.2v-0.3h-0.1c0.2-0.7,0.4-1.4,0.4-2.1h0.3c-0.3-0.3-0.3-1.2,0-1.8
			c0.6,0.3,1.2-0.3,1.8,0h-0.3l0.6,0.6h-0.6c0.6,0.3,0.6,0.6,0.6,0.9h-0.6c0.6,0.3,0,0.6,0.6,0.9c-0.6,0.9,0,1.8,0,2.7
			c0.3,0.3-0.3,0.9,0,1.2c-0.6,0.6,0.3,1.5,0,1.8c0,0.3,0.3,0.6,0,0.6c0.3,0.3,0.3,0.6,0.3,0.9c0,0.1,0,0.1,0,0.1
			c0.1,0.2-0.2,0.6,0,0.8v0.6c0,0-0.3,0.6-0.3,0l-0.3,0.3c0.6,0,0.9,0.3,0.6,0.9c-0.3,0,0,0.3,0.3,0.3c0.3,0.6-0.3,0.9-0.3,1.5
			c-0.3,0.3,0.3,0.9-0.3,0.9v0.3c-0.3-0.3-1.5,0.3-1.2-0.9v-0.6l-0.3-0.6h0.3c-0.3-0.3,0-0.6-0.3-0.6l-0.3-1.2l0.3-0.3
			c-0.3-0.3-0.3-1.2-0.6-1.8v-0.6c0.3,0-0.3,0,0-0.3c-0.3-0.3,0-0.6-0.3-1.2l-0.3,0.3V109c-0.3,0.3-0.3,0.6-0.6,0.9h0.3l-0.3,0.3
			v-0.3c-0.6,0-0.3,0.6-0.6,0.6c0,0.3,0.2,0.6,0.5,0.6h-0.5c0.3,0,0.3,0.3,0.3,0.3l-0.6,0.3l0.3,0.3l-0.6,0.3c0,0.3,0,0.3-0.6,0.6
			l0.3,0.3l-0.3,0.3v0.3c-0.3,0-0.3,0.6-0.6,0.6v-0.3H379v0.2c-0.1,0-0.2,0.1-0.3,0.1c0,0.3,0.3,0.3,0.3,0.3s0,0.3,0.3,0.3
			c-0.3,0.3-0.3,0-0.6-0.3v0.6c0-0.3-0.3,0-0.3,0c0.3,0-0.3,0.3-0.3,0.6c-0.3,0-0.6-0.3-0.6,0v0.3c-0.3,0,0.3-0.3-0.3-0.3v0.6
			c0-0.2-0.3,0-0.3-0.3s-0.6,0-0.6,0c0-0.3-0.3-0.3-0.6-0.3c0-0.3-0.3-0.3-0.3,0l-0.3-0.6h-0.3c0,0.3-0.3,0-0.3,0s0.3,0,0.3-0.3
			h-0.3c-0.6,0,0-0.9-0.6-0.9v-0.3c-0.3,0-0.3-0.6,0-0.9c-0.3-0.3,0-0.9-0.3-1.2l0.9-6c0-0.3,0.9-0.6,0.3-0.9c0.3-0.3-0.3-0.6,0-0.9
			c0.3,0,0.3-0.3,0.6-0.3s0.3,0.3,0.3,0.6L375.4,103.9z"/>
		<path id="XMLID_475_" class="st1" d="M390.6,105.8h-0.4c0.8,0.7-0.4,1.3,0.4,2c-0.4,0.3,0.4,0.7,0.4,1.3l0.8-0.6l-0.4-0.3h0.4
			l-0.4-0.3h0.4v-0.3h0.4c-0.8-0.7,0.4-0.7,0-1.7h0.3c-0.2,0,0.5-0.3,0.1-0.7h0.4c-0.4-0.3,0.4-0.7,0-1c0.4-0.3,0.8-0.3,0.8-0.6
			c0-0.3-0.2-0.3-0.3-0.3h0.3c0-0.3,0-1,0.8-1l-0.4-0.3c-0.4,0,0.3,0,0-0.3c0.8,0.6,0.8-1.1,1.5-0.4c0,0.3,0.4,0.3,0.4,0.3
			c0.4,1,2.3,1.4,2.3,2.4c0.4,0.6,0.4,1.3,0.8,1.7c0.8,0.7,0.4,2.3,0.8,3.4l-0.4,0.3h0.8c-0.4,0.3,0.4,1-0.4,1
			c0.4,0.3-0.4,0.7,0.4,1l-0.4,0.3l0.4,0.3h-0.4l0.4,0.7l-0.4,0.3h-0.4c0.4,0.3,0.8,1,0.4,1.3h-0.4l0.4,0.3v1.7
			c-0.8,0-0.4,1.3-1.2,1l0.2,0.2c-0.2-0.2-0.3-0.2-0.5-0.2l0.4,0.3v0.3l-0.4-0.3v-0.3H398c0-0.6-0.4-1,0.4-1.3c0.4-4,0-8-1.6-11.7
			l-1.2-1c0,0.3-0.4,0.7-0.4,1c-1.2,0.7-0.4,1.7-1.2,2.7c0,0.3,0,0.7-0.4,0.7c-0.4,1.4-0.4,2.3-1.5,3.4l0.4,0.3
			c-0.8,0-0.8,0.3-0.8,0.6h-0.3c0.6,0.1,0,0.7,0.7,0.7c0,0.3-2,0.7-0.4,0.7v0.3h-0.3c0.3,0.1,0.3,0.7-0.1,1v0.3
			c-1.2,0.3,0.8,1.7-0.8,2c-1.6,0.3-0.8-1.3-1.6-1.7l0.4-1.3l-0.4-7.7l-0.4-5.4c1.5,0.3,1.2,2,2,3
			C389.8,104.4,390.6,105.1,390.6,105.8z"/>
		<path id="XMLID_477_" class="st1" d="M404.7,109.3h-0.3c0-0.6,0.6-0.9,0.9-1.2c-0.3-0.3-0.3,0-0.6,0c0.1,0,0.5-0.3,0.3-0.6
			c0,0,0.3,0.3,0.3,0v-0.3c0.6-0.3,0.6-1.5,1.5-1.2c0.3,0.3,0.6,0.3,0.9,0.3l0.9,0.6c0.3-1.5-0.3-2.7,0-3.9v-0.3c0-1.5,0-2.5,0.3-4
			c0.3,0,0-0.3,0-0.3c-0.3-0.6,0.3-1.2,0-1.8c0.3-0.9,0-2.1,0.3-3.3c-0.3-0.3,0-0.6,0-0.6c0-1.2,0-2.1-0.3-3
			c0.3,0.3,0.9,0.3,1.2,0.9c0.3,1.2,0,2.1,0.3,3.3h-0.3l0.3,0.3h-0.3c0,0.3,0.6,0,0.3,0.6h-0.3c0.3,0.6,0.6,1.8,0,2.4
			c0.6,0.3,0,1.2,0.3,1.5c-0.3,0.3,0,0.9-0.3,1.2c0.3,0.3,0,0.6,0,1.2c0.3,0,0,0.3,0,0.3l-0.3,0.3l0.3,0.3c-0.6,0,0,0.3,0,0.9
			c-0.3-0.3,0,0-0.3,0.3c0.3,0.3,0.6,0.1,0.3,0.7c0,0,0.3,0.6,0,0.6v0.3l-0.3,0.3c0.9,0.6,0,2.1,0.6,2.7c-0.3,0.9,0.3,1.2,0,2.1
			h-0.3l0.3,0.3c0,0.3-0.3,2,0,2.9c0,0.6,0.3,0.3,0.6,0.3h0.6l0.3-0.3l0.6,0.3c-0.3,0,0,0.3-0.3,0.3c-0.3,0,0,0.3-0.3,0.3l-0.3-0.3
			c-0.3,0.3,0,1.2-0.6,0.9c-0.3,0-0.6,0.6-1.2,0.3c-0.3,0.3-0.9,0.3-1.5,0.9c0-0.3,0-0.3-0.3-0.3c-0.3,0.6-0.6,0-1.2,0.3
			c-0.6,0.6-1.5,0.6-2.4,0.9c-0.3-0.3-1.5,0.3-1.2-0.6l-0.3-0.3l0.3-0.3h-0.6l0.3-0.3V115c0,0-0.3-0.3,0-0.6v0.3
			c0.6-0.3,0-0.6,0.3-0.6c-0.3-0.6,0.3-0.9-0.3-0.9c0.3-0.6,0-0.6,0.6-1.2c0.3,0.3,0.6,0.3,0.6-0.3h0.1c-0.1,0-0.1-1.2-0.1-1.4
			c0,0,0.3-0.9,0.6-0.6V109.3z M408.3,114.4h0.3v-0.3h0.3l-0.3-0.3c0-1.2-0.3-3.2-0.3-4.5c0,0-0.3-0.3-0.3-0.6
			c-0.3-0.3-0.3-0.9-0.3-1.2c-0.6,0-0.9,0.9-1.5,1.2l-1.5,5.1l-0.3,1.5h1.5c0-0.3-0.3-0.3,0-0.3c0.3,0.3,0.9-0.6,1.2-0.6
			c0.3,0.3,0.3,0,0.6-0.3c0.3,0.3,0.3,0.3,0.3,0.6c0,0,0.3-0.2,0.3-0.1V114.4z"/>
		<path id="XMLID_480_" class="st1" d="M423.5,114v0.3c0.3,0,0.6-0.3,0.9,0h0.3V114c0.3,0.3,0.3-0.3,0.6,0.3l0.3-0.6v0.3h0.3
			c-0.3-0.2-0.2-0.3-0.1-0.3h-0.2c0.3-0.3,0.9,0.3,1.2,0.3l-0.3,0.6l-1.5,0.6v-0.3c-0.3,0-0.3,0.3-0.3,0.3v0.3
			c-0.3,0.6-1.2-0.3-1.5,0.6l-1.2,0.1c-0.6,0.6-1.2-0.6-1.8,0c-0.6-0.3-0.6,0.6-1.2,0c-0.3-0.3-0.6,0.3-0.6-0.3h-0.6
			c-0.3,0-0.6-0.3-0.6-0.6c-0.6,0.6-0.9,0-1.2,0c-0.3-0.3-0.9-0.6-0.6-1.2c-0.6,0,0-0.6-0.6-0.6c0-0.3-0.9-0.9-0.3-1.2
			c-0.6,0,0-0.9-0.3-1.5c0.6-0.3-0.6,0,0-0.6h0.3c0-0.3-0.6-0.3-0.3-0.6c0-0.3-0.3-1.2,0.3-1.2h0.2c-0.2,0,0-0.3-0.2-0.3
			c0-0.3,0-0.6,0.6-0.9c-0.3,0,0-0.3,0-0.6c0.6,0,0.3,0,0.9-0.3l-0.3-0.3h0.3v0.3l0.3-0.3c-0.3-0.3,0.3-0.3,0-0.6h0.3v-0.3h0.3
			c-0.6-0.3,0.3-0.6,0-0.9c0-0.3,0.6-0.3,0.9-0.6c0-0.2-0.2-0.3-0.3-0.3c0.1,0,0.4,0,0.3-0.2c0.2,0.2,0.3-0.1,0.5-0.1
			c0.6-0.6,1.2-0.3,1.2-0.9c0-0.9,1.5-0.3,1.2-1.2c0.3,0.3,0.3-0.3,0.6,0v0.3c0.3-0.6,0.9,0,1.2,0.3c-0.3,0.9,1.2,1.5,0.6,2.1
			c0,0.3,0.3,0.3,0,0.6l0.3,0.3l-0.3,0.3c-0.3,1.5-1.2,3.6-3,4.5c-0.9,0.3-0.9,0.6-1.8,0.6c0,0.3-0.3,0.3-0.6,0.3l-0.3-0.3v0.3h-0.3
			c0,0.3-0.3-0.3-0.6-0.3c-0.3-0.3-0.3-0.9-0.3-1.2c-0.9,1.5-1.2,3.6,0,5.1c0.6,0.6,1.5,0.6,2.1,0.9c0.6-0.3,1.5,0,1.8,0.3l0.3-0.3
			c0.3,0,0.6-0.3,0.9,0l0.3-0.1c0.3-0.3,0.6-0.3,0.9-0.3S423.2,114.3,423.5,114z M417.4,106.3c-0.9,0.6,0.3,0.9,0.3,1.5
			c-0.3,0-0.3,0.3-0.3,0.6c0.6,0,0.9-0.6,1.5-0.3c0-0.6,0.3-0.6,0.6-0.6v0.3l0.3-0.3c0.3-0.3,0.3-0.9,0.9-0.9
			c0.6-0.3,0.6-1.8,1.5-2.1h-0.3c0.6-0.3-0.3-0.6,0.3-0.9V103c0-0.3-0.6-0.6-0.9-0.3C419.8,103.3,418.3,104.8,417.4,106.3z"/>
		<path id="XMLID_483_" class="st1" d="M428.7,101.7h0.3v0.4l0.6,0.3c0.6,0-0.3,0.7,0.3,0.7l-0.3,0.4l0.6,1
			c-0.3,0.4,0.3,0.7-0.3,1.4h0.3v1.1c0,0.3,0,0.3-0.3,0.3c-0.3,0.3,0,0.7,0.3,0.7v-0.3c0.6,0.3-0.3,0.7,0,1l-0.3,0.7h0.3
			c-0.3,0.1-0.3,0.7-0.3,1.1c-0.3,0,0.1,0.2,0.1,0.5c0.6-0.9,1.2-1.6,1.7-2.6c0-0.3,0.3-0.7,0.6-0.7l-0.2-0.3
			c0.2,0.1,0.2-0.4,0.2-0.4l0.3,0.3c-0.3-1,0.9-1,0.9-1.7l0.3-0.3v-0.3l0.3,0.3v-0.3l0.3,0.3c0-0.7,0.3-0.7,0.6-1.1h0.3
			c-0.6-0.6,0.6-0.3,0.6-1.4c0.3,0.3,0.6,0,0.9,0.3c0.3-0.7,1.2-1,1.5-1l-0.3,0.3c0.6,0.3,0.3-0.3,0.6-0.7c0.6,1.1,0.9-0.3,1.2,0.7
			v-0.3l0.3,0.3c-0.3,0.3-1.2,1.1-1.5,1.4h-0.3c-0.3,0.3-0.6,1.1-0.9,0.7c0,0.6-0.4,0.5-0.8,0.6c0,0,0-0.1-0.1-0.3
			c-0.3,0.3,0,1-0.6,1c0,0.7-1.5,1.1-1.5,1.7c0,1-1.1,0.5-1.1,1.9l-0.4,0.9l-0.3,0.6l-0.6,0.3h0.2c-0.2,0.1-0.3,0.7-0.5,0.4v0.7
			c-0.3,0-0.3,0.3-0.3,0.7c-0.3,0-0.9,0.7-1.2,1c0.3,0.4,0,0.7,0,1c0,0.3,0,0.7-0.3,0.7h-0.6c0,0.3,0,0.4-0.2,0.6
			c0.1-0.1,0.1-0.3-0.1-0.3c-0.3,0-0.3,0.3-0.6,0.3c0.6-0.3-0.3-0.7-0.3-1.4c0.3-2,0.3-4.2,0.6-5.8V101.7z"/>
		<path id="XMLID_485_" class="st1" d="M439,107.5c0.2-0.2,0.1-0.3,0-0.3c0.3,0,0.6-0.3,0.6,0c0.3-0.3-0.3-0.3,0.3-0.6
			c0,0.3,0.3,0,0.3,0v-0.3c0.3,0.6,0.6-0.2,0.9,0l-0.3-0.3c0.3,0,0.6-0.3,0.9,0v-0.3c0.9,0,0.9-0.6,1.8-1.2l0.9-6.5l0.3-2.7
			c1.5,0.9,0.6,3,0.9,4.5l-0.3,0.3c0.6,0.3,0.3,0.9,0.3,1.2c0,0.9-0.3,2.2,0,2.8v0.3l0.3-0.3c0.3,0.6,0.3,0,0.9-0.3l0.2,0l0.9-0.3
			h0.3l0.3,0.3c0.3-0.3,0.6-0.6,0.9-0.6c0.3,0.3,0,0.3-0.3,0.6l0.3,0.3c0.3-0.3,0.6-0.3,0.6-0.6v-0.3c0,0,0.3,0.6,0.3,0.9l0.3-0.9
			c0.3,0,0.6,0.3,0.9,0.3c0-0.9,0.9,0,1.5-0.3c0,0.3-0.6,0.3-0.6,0.3h-0.3c0,0,0.3,0.3,0,0.6c-0.3,0-0.6-0.3-0.9-0.3
			c0,0.9-0.9,0.3-1.8,0.9c-0.3-0.3-0.3,0-0.6,0.3l-3.5,1c-0.3,0.9,0,1.8-0.3,3c0,0-0.3,0,0,0.3h-0.3c0.6,0.6-0.3,1.8,0,2.7v0.6h-0.3
			c0,0.3,0.6,1.2-0.3,1.5c0,0.2,0.2,0.3,0.2,0.3h-0.2c0,0.3,0.6,0.9,0.3,1.5h-0.3c0,0.3,0,0.3,0.3,0.3l-0.3,0.3h0.2
			c-0.4,0,0.1,0.3,0.1,0.6h-0.3c0,0.3,0,0.3,0.3,0.3c0,0-0.3,0.2-0.3,0.5v-0.2c-0.6,0.9-0.9,0-1.2,0c-0.6-0.6,0.3-1.5-0.3-2.1
			c0.3-0.9,0-1.2,0.3-2.1c-0.3-0.6,0.3-1.2,0-1.8c0.3-1.2,0.3-2.4,0.3-3.3c0-0.6,0.3-1.2,0-1.8c-1.2,0.3-2.1,1.2-3,2.1
			c-0.3,0-0.6-0.6-0.9-0.3s-0.6,0-0.3-0.6V107.5z"/>
		<path id="XMLID_487_" class="st1" d="M452.8,111c-0.4-0.7,1.1-0.3,0.4-1c0-0.3-0.4-1,0-1c-0.4-0.4,0-1.1,0.4-1.4
			c0-0.3,0.3-0.3,0.3-1l0.4-0.3l-0.4-0.4l0.8-0.3c-0.8,0-0.4-0.3-0.4-0.7l0.7-0.3c-0.3-0.3-0.6-0.1-0.7,0c0.3-0.3,0.7-0.3,1.1-0.3
			c-0.4-0.7,0-1.1,0.4-1.7c0.7,0,1.4,0.4,1.8,1c-1.1-0.3-0.7,1.1-1.1,1.4c-0.4,0.7-0.7,1.7-1.1,2.1c0.7,0.3-0.4,0.6,0,1.4
			c-0.4,1-0.4,1.7-0.4,2.7c0,0.3,0,0.7-0.3,1c0.3,0.3,0,1.4,0.7,2.1c1.5,0,2.2-1.4,3.3-2.1c0.8-0.3,0.4-1.3,1.1-1.7c0.4-1,0-2,0-2.8
			c0,0,0.8-0.3,0-0.3l0.4-0.3c-0.7,0,0-1.1-0.4-1.4c-0.3-0.3,0-1-0.3-1c0.7-0.7-0.8-1.4-0.4-2.1c0-0.3-1.1,0-1.1-0.7
			c0.4,0,0.4,0,0.7-0.3h-0.3c0.3-0.7,0.7,0.3,1.1,0.3c0,0.7,0.7,0.3,0.7,0.7c-0.4,0.7,0.7,1,0.4,1.7l0.3,0.3c0.4,0.3,0.4,1,0,1.3
			l0.4,0.4c0.4,0.7-0.4,1.3,0.4,2c-0.8,0.3,0,0.7,0,1c0.4,0.3-0.8,0.3-0.4,1l0.4,0.4c0,0-0.4,0.3-0.4,0.6v0.4c0.4,0.6-0.4,1-0.4,1.7
			c0,0-0.3-0.3-0.3,0c-0.4,0.3,0,0.3,0,0.3c-0.8,1.1-2.2,1.7-3.7,2.1c-0.4-0.3-0.8-0.7-1.1,0c0-0.7-1.1-0.3-1.5-0.7
			c-0.7-1-1.1-2-1.5-3.4V111z"/>
		<path id="XMLID_489_" class="st1" d="M465.8,105.8h-0.4c0.8,0.7-0.4,1.3,0.4,2c-0.4,0.3,0.4,0.7,0.4,1.3l0.8-0.6l-0.4-0.3h0.4
			l-0.4-0.3h0.4v-0.3h0.4c-0.8-0.7,0.4-0.7,0-1.7h0.3c-0.2,0,0.5-0.3,0.1-0.7h0.4c-0.4-0.3,0.4-0.7,0-1c0.4-0.3,0.8-0.3,0.8-0.6
			c0-0.3-0.2-0.3-0.3-0.3h0.3c0-0.3,0-1,0.8-1l-0.4-0.3c-0.4,0,0.3,0,0-0.3c0.8,0.6,0.8-1.1,1.5-0.4c0,0.3,0.4,0.3,0.4,0.3
			c0.4,1,2.3,1.4,2.3,2.4c0.4,0.6,0.4,1.3,0.8,1.7c0.8,0.7,0.4,2.3,0.8,3.4l-0.4,0.3h0.8c-0.4,0.3,0.4,1-0.4,1
			c0.4,0.3-0.4,0.7,0.4,1l-0.4,0.3l0.4,0.3h-0.4l0.4,0.7l-0.4,0.3h-0.4c0.4,0.3,0.8,1,0.4,1.3h-0.4l0.4,0.3v1.7
			c-0.8,0-0.4,1.3-1.2,1l0.2,0.2c-0.2-0.2-0.3-0.2-0.5-0.2l0.4,0.3v0.3l-0.4-0.3v-0.3h-0.4c0-0.6-0.4-1,0.4-1.3c0.4-4,0-8-1.6-11.7
			l-1.2-1c0,0.3-0.4,0.7-0.4,1c-1.2,0.7-0.4,1.7-1.2,2.7c0,0.3,0,0.7-0.4,0.7c-0.4,1.4-0.4,2.3-1.5,3.4l0.4,0.3
			c-0.8,0-0.8,0.3-0.8,0.6h-0.3c0.6,0.1,0,0.7,0.7,0.7c0,0.3-2,0.7-0.4,0.7v0.3h-0.3c0.3,0.1,0.3,0.7-0.1,1v0.3
			c-1.2,0.3,0.8,1.7-0.8,2c-1.6,0.3-0.8-1.3-1.6-1.7l0.4-1.3l-0.4-7.7l-0.4-5.4c1.5,0.3,1.2,2,2,3
			C465,104.4,465.8,105.1,465.8,105.8z"/>
		<path id="XMLID_491_" class="st1" d="M487.4,114v0.3c0.3,0,0.6-0.3,0.9,0h0.3V114c0.3,0.3,0.3-0.3,0.6,0.3l0.3-0.6v0.3h0.3
			c-0.3-0.2-0.2-0.3-0.1-0.3h-0.2c0.3-0.3,0.9,0.3,1.2,0.3l-0.3,0.6l-1.5,0.6v-0.3c-0.3,0-0.3,0.3-0.3,0.3v0.3
			c-0.3,0.6-1.2-0.3-1.5,0.6l-1.2,0.1c-0.6,0.6-1.2-0.6-1.8,0c-0.6-0.3-0.6,0.6-1.2,0c-0.3-0.3-0.6,0.3-0.6-0.3h-0.6
			c-0.3,0-0.6-0.3-0.6-0.6c-0.6,0.6-0.9,0-1.2,0c-0.3-0.3-0.9-0.6-0.6-1.2c-0.6,0,0-0.6-0.6-0.6c0-0.3-0.9-0.9-0.3-1.2
			c-0.6,0,0-0.9-0.3-1.5c0.6-0.3-0.6,0,0-0.6h0.3c0-0.3-0.6-0.3-0.3-0.6c0-0.3-0.3-1.2,0.3-1.2h0.2c-0.2,0,0-0.3-0.2-0.3
			c0-0.3,0-0.6,0.6-0.9c-0.3,0,0-0.3,0-0.6c0.6,0,0.3,0,0.9-0.3l-0.3-0.3h0.3v0.3l0.3-0.3c-0.3-0.3,0.3-0.3,0-0.6h0.3v-0.3h0.3
			c-0.6-0.3,0.3-0.6,0-0.9c0-0.3,0.6-0.3,0.9-0.6c0-0.2-0.2-0.3-0.3-0.3c0.1,0,0.4,0,0.3-0.2c0.2,0.2,0.3-0.1,0.5-0.1
			c0.6-0.6,1.2-0.3,1.2-0.9c0-0.9,1.5-0.3,1.2-1.2c0.3,0.3,0.3-0.3,0.6,0v0.3c0.3-0.6,0.9,0,1.2,0.3c-0.3,0.9,1.2,1.5,0.6,2.1
			c0,0.3,0.3,0.3,0,0.6l0.3,0.3l-0.3,0.3c-0.3,1.5-1.2,3.6-3,4.5c-0.9,0.3-0.9,0.6-1.8,0.6c0,0.3-0.3,0.3-0.6,0.3l-0.3-0.3v0.3H481
			c0,0.3-0.3-0.3-0.6-0.3c-0.3-0.3-0.3-0.9-0.3-1.2c-0.9,1.5-1.2,3.6,0,5.1c0.6,0.6,1.5,0.6,2.1,0.9c0.6-0.3,1.5,0,1.8,0.3l0.3-0.3
			c0.3,0,0.6-0.3,0.9,0l0.3-0.1c0.3-0.3,0.6-0.3,0.9-0.3S487.1,114.3,487.4,114z M481.3,106.3c-0.9,0.6,0.3,0.9,0.3,1.5
			c-0.3,0-0.3,0.3-0.3,0.6c0.6,0,0.9-0.6,1.5-0.3c0-0.6,0.3-0.6,0.6-0.6v0.3l0.3-0.3c0.3-0.3,0.3-0.9,0.9-0.9
			c0.6-0.3,0.6-1.8,1.5-2.1h-0.3c0.6-0.3-0.3-0.6,0.3-0.9V103c0-0.3-0.6-0.6-0.9-0.3C483.7,103.3,482.2,104.8,481.3,106.3z"/>
		<path id="XMLID_494_" class="st1" d="M491.5,102.9c0-0.3,0.8-0.3,0.8-0.9h-0.4c0.4-0.6,1.5-0.6,1.8-0.9h0.7v-0.6l0.4,0.3v-0.3
			c0.4,0,0,0.3,0.4,0.3l0.4-0.3l0.4,0.3c-0.4-0.6,0.3-0.3,0.7-0.6v0.3c0.4,0.3,1.1,0.6,1.5,0.6l-0.3,0.3v0.3l0.3-0.3l0.4,0.3v0.3
			c-0.4,0,0.4,0.6,0,0.6l0.4,0.3l-0.8,0.3h0.4c-0.4,0.3-0.7,0.9-1.1,1.2c-0.4-0.9,0.7-2.1-0.4-3c-0.8-0.3-1.5,0-1.8,0.3
			c-1.5,0.6-2.9,1.8-3.3,3c0.8,2.7,5.2,2.7,6.3,5.4v0.9c0.4,0,0.4,0.3,0.8,0.6c-0.4,0.3,0,0.6-0.4,0.9v-0.2
			c-0.1,0.5-0.4,0.8-0.4,1.4l-0.3-0.3c-0.4,0.3,0.3,0.3,0.3,0.6c-0.7,0-0.3,0.3-1.1,0.6c0,0,0.4,0.3,0.8,0c0,0.9-1.5,0.9-1.5,1.8
			v0.3c-0.3-0.3,0-0.6-0.3-0.6c-0.8,0.6,0.3,1.2-0.8,1.2l0.4,0.3c-0.3,0-0.8,0.2-0.9,0.4c-0.1-0.1-0.3,0-0.3,0.2h0.4
			c0,0.6-1.5,0-1.1,0.9h0.7c-0.7,0.3-1.1,0.3-1.5,0c-0.3-0.3-0.3-0.9-0.3-1.5c0.7,0,0-0.6,0.7-0.6c0.4,0-0.7-1.5,0.8-1.2v-0.3
			c0.3-0.3-0.4-0.3,0-0.6h0.3v-0.3l0.4,0.3v-0.3h0.4c-0.4-0.3,0-0.6,0.4-0.6c0-0.6,1.8-1.5,1.5-2.4l-0.4-0.9l0.4-0.3
			c-1.1,0,0-0.9-1.1-0.9c0-0.6-1.1-0.9-1.5-1.2c-0.3-0.6-0.7-0.3-1.1-0.3l-1.1-0.6c0.4-0.3-0.4-0.3-0.4-0.3c-0.4,0,0-0.9-0.8-0.6
			l-0.3-0.3v0.3l-0.8-1.2c0.4-1.2,0.4-2.1,1.1-2.7L491.5,102.9z"/>
		<path id="XMLID_496_" class="st1" d="M500.6,121.6c0-0.2,0-0.3,0.2-0.5l0.2-0.2c-0.2-0.5,0.5-0.5,0.5-0.8c-0.3-0.2,0-0.2,0-0.3
			c0-0.2,0.2-0.5,0.5-0.5c0-0.2,0-0.5,0.3-0.6c0.4-1,1.1-2,1.4-3.1c0.1-0.2,0.1-0.4,0.2-0.6c0.1-0.5,0-1.1-0.2-1.7
			c-0.2-0.5,0.2-0.5,0.2-0.7c0.2-0.1,0.9-0.1,1,0.4h-0.2c0.3,0.3,0.2,0.6,0.5,0.9c-0.2,0.2,0.2,0.3,0,0.5L505,115h0.2
			c-0.2,0.6-0.5,0.8-0.3,1.4c-0.2,0.5-0.7,0.6-0.5,1.2h-0.2l-0.2,0.3c-0.2,0.2-0.2,0.2-0.2,0.3c0,0-0.2,0-0.2,0.2h0.2l-0.2,0.2
			c0,0.2-0.2,0.2,0,0.3c-0.2,0.3-0.5,0.3-0.5,0.6l-1.5,2.2c0.2,0.2-0.2,0.2-0.2,0.3l-0.1-0.2c0.1,0.2-0.1,0.3-0.2,0.5H501
			c0.2-0.2,0.3-0.3,0.2-0.4c0.1,0-0.4-0.2-0.4-0.2C500.8,121.4,500.6,121.6,500.6,121.6z"/>
		<path id="XMLID_498_" class="st1" d="M510.5,91.6c0,0,0.3,0.3,0.3-0.3h-0.3v-0.9h0.3c0-0.3-0.9-0.6,0-0.9c0.3-0.3,0.6-0.3,1.2-0.3
			c0,0,0.3,0.3,0.3,0.6H512l0.6,0.3c-0.9,0,0.3,0.9-0.6,0.9l0.3,0.3c0.6,0.3-0.3,0.3,0,0.9h0.3c0.3,0.3-0.3,0.3-0.3,0.6h0.2
			c-0.2,0.1,0.1,0.3,0.1,0.3c0,0.3-0.9,0.6-0.3,1.2c0,0.3-0.3,0.3-0.3,0.6h0.2c-0.6,0.1,0,0.8-0.6,0.9c0.3,0,0.3,0.2,0.3,0.3
			c-0.1,0-0.2,0-0.2,0l-0.3,0.6v-0.3h-0.3c0-0.3-0.3-0.9-0.3-1.2c-0.3,0,0-0.3-0.3-0.3c-0.3-0.3,0-0.6,0-0.6
			C510.2,93.5,510.5,92.9,510.5,91.6z M515.3,91.9c0.3,0-0.3-0.3,0-0.6c0.1-0.2,0.1-0.4,0.1-0.6c-0.1-0.5-0.3-1.2-0.1-2.1
			c0.3-0.6,0.9-0.6,1.5-0.6h0.3v0.3c0.6-0.3,0,0.6,0.6,0.6c-0.3,0.6,0.3,2.1-0.3,2.7c0.3,0,0,0.6,0.3,0.9l-0.3,0.3
			c0.3,0,0,0.3,0,0.3v0.3c0.3,0.3-0.6,0.3-0.3,0.6c0.3,0,0,0.3,0,0.6h0.3c-0.6,0.3,0,0.9,0,1.5h-0.3c0,0,0,0.9-0.6,1.2
			c-0.3,0-0.6-0.6-0.6-0.9v-0.3c-0.6,0-0.3-0.6-0.6-0.9c0-0.3,0.6-0.3,0.3-0.6c0-0.3-0.9-0.6-0.3-0.9l-0.3-0.3l0.3-0.3H515
			c0.6-0.3,0-0.6,0.3-0.9V91.9z"/>
	</g>
</g>
<g id="XMLID_355_">
</g>
<g id="XMLID_501_">
</g>
<g id="XMLID_502_">
</g>
<g id="XMLID_503_">
</g>
<g id="XMLID_504_">
</g>
<g id="XMLID_505_">
</g>
</svg>
