<?xml version="1.0" encoding="utf-8"?>
<!-- Generator: Adobe Illustrator 19.0.0, SVG Export Plug-In . SVG Version: 6.00 Build 0)  -->
<svg version="1.1" id="레이어_1" xmlns="http://www.w3.org/2000/svg" xmlns:xlink="http://www.w3.org/1999/xlink" x="0px"
	 y="0px" viewBox="0 0 408.5 122" style="enable-background:new 0 0 408.5 122;" xml:space="preserve">
<style type="text/css">
	.st0{fill:#FFFFFF;stroke:#040000;stroke-width:2.0198;stroke-miterlimit:10;}
	.st1{fill:#040000;}
</style>
<g id="XMLID_934_">
	<ellipse id="XMLID_936_" class="st0" cx="202.3" cy="60.1" rx="201.9" ry="58"/>
	<g id="XMLID_935_">
		<path id="XMLID_457_" class="st1" d="M71.7,45.6l0.2-0.4c-0.1-0.5,0.4-0.7,0.7-0.9c0,0.3,0.3,0.3,0.3,0.3
			c-0.3-0.5-0.9-0.3-0.3-1.1c0.3,0.3,0.3-0.3,0.6-0.3L73,42.9h0.3v-0.3c0.3-0.3,0.3-0.8,0.6-0.8l-0.3-0.3c0.3-0.3,0.6,0,0.9-0.3
			c-0.6,0-0.3-0.3,0-0.6c0.2,0,0.1-0.5,0.3-0.6c0.1,0,0.2,0,0.3,0v-0.3l0.3-0.3v-0.3h0.3C76,39,76,39,76.6,39l-0.9-0.3
			c0.3-0.3,0.6,0,0.9-0.6c0.3,0,0-0.3,0.3-0.3c0.3,0.3,0.9,0.5,1.2,1.1c0.3,0.3,0.3,0.8,0.6,1.1c-0.4,0-0.5,0.3-0.6,0.5l-0.3-0.3
			c0-0.3-0.3-0.8,0-0.8c0-0.3-0.3-0.3-0.3-0.3c-1.8,1.9-3.3,4.3-3.9,6.5c0,0.2-0.2,0.7-0.5,1c0.4-0.3,0.3,0.5,0.7,0.6h-0.2
			c0.2,0.3,0.3,0.2,0.3,0.1c0,0.2-0.3,0.2,0,0.5c0.9-0.3,0,0.8,0.6,1.1l-0.3,0.3l0.3,0.3c0,0.5-0.9,0.3-1.5,0.5
			c-0.3,0-0.3-0.5-0.6-0.5c0.1,0,0.3-0.1,0.3-0.3l-0.3,0.3c-0.6-1.1-1.2-2.5-0.6-3.8V45.6z M78.9,43.4c0-0.5,0.3-0.8,0.6-1.4h0.3
			v-0.3h0.3c-0.6-0.2,0.2-0.5,0.3-0.8v0.2c0.3-0.3,0-0.8,0.6-0.6c0.3,0,0.3-0.3,0.3-0.3h0.3c0-0.3,0.6-0.3,0.3-0.6
			c0.3-0.3,0.6-0.3,0.6-0.3c-0.3-0.3-0.3-0.5,0-0.8v-0.3l1.2,0.8c0,0.8-0.9,0.3-0.6,1.1c-1.2,0.5-1.2,1.6-2.1,2.2
			c0.3,0-0.3,0.5-0.6,1.1c-0.3,0.8-1.2,1.7-1.2,2.5h0.3l-0.3,0.3c0.9,0,0.6,0.6,1.2,0.8c0,0.6,0.3,0.6,0.6,0.8l-0.3,0.8
			c0.3,0,0.3,0.3,0.3,0.3s-0.3,0-0.3,0.3c0.3,0.3,0,0.5-0.3,0.8c-0.3,0-0.6,0.3-0.6,0.6c-0.6-0.3-0.6,0-1.2,0.3
			c-0.6,0-0.6-1.1-1.5-1.1v-0.5c-0.3,0,0-0.3-0.3-0.3c0-1.9,0.6-3.3,1.2-4.6C78.3,44.2,78.3,43.4,78.9,43.4z M78.3,48.6
			c0.3,0.3-0.3,0.6,0,0.8c0.6-0.3,0.9-0.3,1.2-0.8c0-0.5,0.3-1.4-0.6-1.1C78.3,47.5,78.6,48,78.3,48.6z"/>
		<path id="XMLID_461_" class="st1" d="M99.6,54.1c-0.3-0.3-0.3-0.6,0.3-0.9c0-2.7,0.6-5.1,0.9-8.2l0.3-0.3c0.6,0.3,0.9,0.9,1.5,0.6
			c-0.7,0.7,0.1,1.4-0.3,1.8v0H102v0.2c-0.1,0-0.2,0.1-0.3,0.1c0.3,0.3,0,1.2,0.6,0.9c0,0.6-0.6,0.9-0.3,1.8v0.3
			c-0.3,0-0.3-0.3-0.3,0c0.3,0.3,0,0.9,0,1.2h0.3l-0.3,0.3c0.6,0,0,0.6,0.3,0.6v0.9c0,0.3-0.3,0.6,0,0.9l-0.3,0.3
			c0.6,0.3,0.3,0.6,0.3,0.9l-0.6-0.6v0.3c0,0.3,0.3,0.6,0.3,0.9h0.3c-0.3,0.3-0.6-0.3-0.6,0v0.3c0.1-0.2,0.6,0,0.6,0v0.3h-0.3
			c0,0-0.3,0.3,0,0.3c-0.3,0.3,0.3,0.9,0,1.2h-0.3c-0.3,0.3,0.3,0.3,0.3,0.3c-0.3,0.3,0,1.1-0.5,1.2h0.2v0.3l0.3,0.3l-0.3,0.3
			l0.3,0.6h-0.3c0-0.3-0.3-0.3-0.3-0.3v0.6h0.3c-0.2,0.2-0.1,0.2,0,0.3c0.1,0.1,0.3,0.3,0.3,0.6c-0.3,0-0.3-0.3-0.6-0.3
			c-0.3,0.3,0,0.3-0.3,0.6c0.3,0,0.6-0.3,0.6,0v0.3c0-0.3-0.3-0.3-0.3,0c0.3,0,0.9,0.6,0.6,1.2c0,0.3,0.3,0.3,0,0.3
			c0,0,0-0.3-0.3-0.3c0,0.3-0.3,0.6,0,0.9v0.3c0.3,0.3,0,0.9,0.3,1.2c-0.3,0-0.3,0.6-0.3,0.9V68c0,0,0-0.3-0.3-0.3
			c-0.3,0.3-0.1,0.6,0.2,0.6c-0.2,0.1-0.3,0.3-0.4,0.5l-0.2-0.2c0,0.3,0.3,0.6,0.3,0.9l-0.6-0.3v-0.3h-0.3c0.6-0.6-0.3-0.9-0.3-1.5
			c0,0,0.3-0.3,0.3-0.6h-0.3l0.3-0.3l-0.6-0.6h0.6l-0.6-0.3l0.3-0.3c-0.6,0-0.1-0.8-0.3-0.9c0.5,0,0-0.3,0.3-0.3l-0.6-0.3h0.3
			c-0.3-0.3,0-0.6-0.3-1.2v-0.3c0-0.3,0.3-0.9,0-0.9v-1.8l0.3-4.2c0.3,0,0-0.3,0-0.6c-0.3,0-0.3,0-0.3,0.3c-0.6,0-0.9,0.6-1.2,0.9
			v-0.3c-0.3,0-0.3,0.3-0.3,0.3c-0.3,0-0.6,0.6-0.9,0.3l-0.3,0.3c-0.3,0-0.3-0.6-0.6-0.3v0.3c-0.6,0.6-1.2,0.3-1.8,0.9
			c-0.3-0.3-0.3,0-0.6,0l-1.2,0.3l-3.3,1.5c-0.3,0-0.6,0.3-0.9,0.3v-0.3c-0.3,0,0,0.3-0.3,0.6l0.3,0.3l-0.3,0.3l0.3,0.3
			c-0.3,0.3-0.3,0.6-0.6,0.6c0.3,0.3-0.3,0.6,0.3,0.9l-0.6,0.6c0.6,0,0.3,0.6,0,0.9c0.3,0.6-0.3,1.2,0,1.8c0,0.6-0.9,0.9-0.3,1.2
			h-0.3c0.6,0.3,0,0.6,0,0.9H86c0.3,0.3,0.6,0,0.9,0.3c-0.2,0.7-0.3,1-0.3,1.5L86,69.8c0.3,0,0.3,0.3,0.3,0.6h0.3
			c0,0.2-0.5,0.2-0.6,0.3v-0.3c-0.3,0-0.3,0.3-0.9,0.3c-0.3-0.3,0.3-0.9-0.3-0.9c0.2,0-0.6-0.6,0-0.9c-0.3-0.3,0-0.9,0-1.5
			c-0.3,0,0.3-0.3,0.3-0.6c-0.3-0.3,0-0.6,0-0.9c-0.3-0.6,0.6-1.2,0.3-1.8c0.6-1.5,0.3-2.7,0.6-3.9l0.3-0.3v-0.3
			c-0.3-0.3,0.3-0.6,0.3-0.9c-0.3-0.6,0.3-1.5,0-1.8c0.6-0.9-0.3-1.8,0.3-3c0-0.6-0.3-1.2,0-2.1c-0.3-0.3,0-0.6,0-0.6
			c0-0.3-0.3-0.9,0-0.9c-0.3-0.3,0-0.9-0.3-1.2c0-0.3,0.6-0.6,0-0.6l0.3-3l-0.3-0.3c0-0.3,0.3,0,0.3-0.3l0.3,0.3l0.3-0.3
			c0-0.3-0.6,0-0.3-0.3c0.3,0,0.6,0.3,0.6,0.6c0.3,0,0,0.3,0.3,0.3s0.3,0.3,0,0.6c0.3,0.3,0.3,0.6,0.3,1.2h-0.3l0.3,0.3h-0.3
			c0.3,0.6,0.6,1.2,0.3,1.8c0,0.6,0.3,1.2,0,1.8c0.6,0-0.3,0.6,0.3,0.9v0.6h-0.3c0.3,0.3,0.3,0.6,0.3,0.9l-0.6,0.9h0.5
			c-0.2,0.1,0.1,0.3,0.1,0.3h-0.3c0.6,0.3-0.3,0.6,0,0.9V56c0.3,0,0,0.6,0.3,0.9h-0.6c0.6,0.3,0.3,0.3,0.3,0.6l-0.3,0.3
			c0.6,0.6,0.9-0.6,1.5-0.6l0.3-0.3l0.3,0.3c0.3-0.3,0.6-0.9,0.9-0.3v-0.3c0.3-0.6,0.9,0.9,0.9,0h-0.3c0-0.6,0.9-0.3,0.9-0.3
			c0.3,0,0.6,0,0.6-0.3l0.3-0.3c0.6,0.6,0.6-0.6,1.2-0.3c0.3,0.3,0.3-0.3,0.3-0.3c0.6-0.3,0.9,0,1.5-0.3c0.1,0.1,0.2,0.2,0.3,0.1
			v-0.1h0.3c0.5-0.3,1-1.1,1.2,0c0.6,0,0-0.3,0-0.6c0-0.3,0.3-0.9,0.6-0.3h-0.3c0,0.2,0.3,0.3,0.6,0.3H99.6z"/>
		<path id="XMLID_463_" class="st1" d="M115.8,65.2v0.3c0.3,0,0.6-0.3,0.9,0h0.3v-0.3c0.3,0.3,0.3-0.3,0.6,0.3l0.3-0.6v0.3h0.3
			c-0.3-0.2-0.2-0.3-0.1-0.3h-0.2c0.3-0.3,0.9,0.3,1.2,0.3l-0.3,0.6l-1.5,0.6v-0.3c-0.3,0-0.3,0.3-0.3,0.3v0.3
			c-0.3,0.6-1.2-0.3-1.5,0.6l-1.2,0.1c-0.6,0.6-1.2-0.6-1.8,0c-0.6-0.3-0.6,0.6-1.2,0c-0.3-0.3-0.6,0.3-0.6-0.3H110
			c-0.3,0-0.6-0.3-0.6-0.6c-0.6,0.6-0.9,0-1.2,0c-0.3-0.3-0.9-0.6-0.6-1.2c-0.6,0,0-0.6-0.6-0.6c0-0.3-0.9-0.9-0.3-1.2
			c-0.6,0,0-0.9-0.3-1.5c0.6-0.3-0.6,0,0-0.6h0.3c0-0.3-0.6-0.3-0.3-0.6c0-0.3-0.3-1.2,0.3-1.2h0.2c-0.2,0,0-0.3-0.2-0.3
			c0-0.3,0-0.6,0.6-0.9c-0.3,0,0-0.3,0-0.6c0.6,0,0.3,0,0.9-0.3l-0.3-0.3h0.3v0.3l0.3-0.3c-0.3-0.3,0.3-0.3,0-0.6h0.3v-0.3h0.3
			c-0.6-0.3,0.3-0.6,0-0.9c0-0.3,0.6-0.3,0.9-0.6c0-0.2-0.2-0.3-0.3-0.3c0.1,0,0.4,0,0.3-0.2c0.2,0.2,0.3-0.1,0.5-0.1
			c0.6-0.6,1.2-0.3,1.2-0.9c0-0.9,1.5-0.3,1.2-1.2c0.3,0.3,0.3-0.3,0.6,0v0.3c0.3-0.6,0.9,0,1.2,0.3c-0.3,0.9,1.2,1.5,0.6,2.1
			c0,0.3,0.3,0.3,0,0.6l0.3,0.3l-0.3,0.3c-0.3,1.5-1.2,3.6-3,4.5c-0.9,0.3-0.9,0.6-1.8,0.6c0,0.3-0.3,0.3-0.6,0.3l-0.3-0.3v0.3h-0.3
			c0,0.3-0.3-0.3-0.6-0.3c-0.3-0.3-0.3-0.9-0.3-1.2c-0.9,1.5-1.2,3.6,0,5.1c0.6,0.6,1.5,0.6,2.1,0.9c0.6-0.3,1.5,0,1.8,0.3l0.3-0.3
			c0.3,0,0.6-0.3,0.9,0l0.3-0.1c0.3-0.3,0.6-0.3,0.9-0.3S115.5,65.5,115.8,65.2z M109.7,57.5c-0.9,0.6,0.3,0.9,0.3,1.5
			c-0.3,0-0.3,0.3-0.3,0.6c0.6,0,0.9-0.6,1.5-0.3c0-0.6,0.3-0.6,0.6-0.6V59l0.3-0.3c0.3-0.3,0.3-0.9,0.9-0.9
			c0.6-0.3,0.6-1.8,1.5-2.1h-0.3c0.6-0.3-0.3-0.6,0.3-0.9v-0.6c0-0.3-0.6-0.6-0.9-0.3C112.1,54.5,110.6,56,109.7,57.5z"/>
		<path id="XMLID_466_" class="st1" d="M131.8,57h-0.4c0.8,0.7-0.4,1.3,0.4,2c-0.4,0.3,0.4,0.7,0.4,1.3l0.8-0.6l-0.4-0.3h0.4
			l-0.4-0.3h0.4v-0.3h0.4c-0.8-0.7,0.4-0.7,0-1.7h0.3c-0.2,0,0.5-0.3,0.1-0.7h0.4c-0.4-0.3,0.4-0.7,0-1c0.4-0.3,0.8-0.3,0.8-0.6
			c0-0.3-0.2-0.3-0.3-0.3h0.3c0-0.3,0-1,0.8-1l-0.4-0.3c-0.4,0,0.3,0,0-0.3c0.8,0.6,0.8-1.1,1.5-0.4c0,0.3,0.4,0.3,0.4,0.3
			c0.4,1,2.3,1.4,2.3,2.4c0.4,0.6,0.4,1.3,0.8,1.7c0.8,0.7,0.4,2.3,0.8,3.4l-0.4,0.3h0.8c-0.4,0.3,0.4,1-0.4,1
			c0.4,0.3-0.4,0.7,0.4,1l-0.4,0.3l0.4,0.3h-0.4l0.4,0.7l-0.4,0.3h-0.4c0.4,0.3,0.8,1,0.4,1.3h-0.4l0.4,0.3v1.7
			c-0.8,0-0.4,1.3-1.2,1l0.2,0.2c-0.2-0.2-0.3-0.2-0.5-0.2l0.4,0.3V69l-0.4-0.3v-0.3h-0.4c0-0.6-0.4-1,0.4-1.3c0.4-4,0-8-1.6-11.7
			l-1.2-1c0,0.3-0.4,0.7-0.4,1c-1.2,0.7-0.4,1.7-1.2,2.7c0,0.3,0,0.7-0.4,0.7c-0.4,1.4-0.4,2.3-1.5,3.4l0.4,0.3
			c-0.8,0-0.8,0.3-0.8,0.6h-0.3c0.6,0.1,0,0.7,0.7,0.7c0,0.3-2,0.7-0.4,0.7v0.3h-0.3c0.3,0.1,0.3,0.7-0.1,1V66
			c-1.2,0.3,0.8,1.7-0.8,2c-1.6,0.3-0.8-1.3-1.6-1.7l0.4-1.3l-0.4-7.7l-0.4-5.4c1.5,0.3,1.2,2,2,3C131,55.7,131.8,56.3,131.8,57z"/>
		<path id="XMLID_468_" class="st1" d="M152.8,66.3v-0.4h-0.3v0.1c-0.1,0-0.2-0.1-0.3-0.1c0.2,0-0.1,0-0.1-0.3
			c0-0.4-0.8-1.5-0.8-1.8s-0.3-0.8,0-1.1c-0.3-0.4-0.3,0-0.3,0v0.7c0,0.4-0.8,0.8-0.8,1.1c0,0-0.4,0-0.4,0.4h0.3
			c-0.6,0.1-0.6,1-1.2,1.1h0.6c-0.4,0.4-0.4,0-0.8,0c0,0.3,0,0.4-0.2,0.4c0.1,0-0.2-0.1-0.5-0.4c0,0.4-0.4,0.8-0.8,0.4
			c-0.4-0.4-0.8-0.4-1.1-1.1v0.7c-0.3-0.7-0.7-1.5-1.1-1.8l0.4-0.4h-0.4v-2.2c-0.4-0.8,0.4-1.5,0.4-1.9c0.4-1.5,1.1-2.9,1.8-3.7H147
			c1-0.1,0.3-1.5,1.4-1.1c0.4-1.1,1.1,0,1.1-1.1c0.3-0.4,1.1,0.4,1.1-0.4h-0.4l0.8-0.4c0,0,0,0.4,0.3,0.4c0.8,0.8,1.1,1.5,1.1,2.2
			c0.3,0,0.8,0,0.8,0.4h-0.8l0.8,0.4v0.3l0.4-0.3c0.3,0.7-0.8,1.1,0,1.8c-0.8,0.4-0.4,0.8-0.4,0.8V60h-0.4v0.7
			c0.4-0.4,0.4,0.4,0.4,1.1c0,0.4,0,1.1,0.4,1.5h-0.4c0.7,0.4,0.7,1.8,1.1,2.6l0.3,0.5l-0.3,0.4c1.1,0,1.5,1.5,1.8,1.8
			c0,0.4,0.4,0.4,0.4,0.8h0.3v0.4c-0.8,0-1.1-0.4-1.5-0.8c0-0.4-0.3-0.4-0.3-0.4l0.3-0.3c-0.8,0-0.8,0-1.1-0.4l-0.4,0.4
			c-0.8-0.4,1.1-0.4,0-0.8l-0.6-0.2l0.2-0.3C152.9,67.2,153,66.7,152.8,66.3L152.8,66.3z M146.6,62.1c0.4,0.8,0,1.5,0.8,2.2
			c1.8-0.3,2.6-2.9,3.3-4.4c1.1-1.1,0.7-2.6,1.1-4.1c-0.4-0.8-0.7-1.1-1.1-1.1l-3,2.2l-1.1,3.7c0.4,0.8-0.4,0.8,0,1.1V62.1z"/>
		<path id="XMLID_471_" class="st1" d="M160.2,59.3c0.3,0,0.5,0,0.6,0.2v-0.6h-0.3c0-0.3,0.3,0,0.6-0.3c-0.3-0.3-0.3-0.3-0.3-0.6
			l0.3,0.3c0,0,0.3-0.3,0-0.3c0.6-0.3,0,0,0.3,0.3c0.3-0.3,0.3-0.3,0-0.6c0.3-0.3,0-0.9,0.3-1.3v0.3c0.3,0,0.3-0.3,0.3-0.3
			c-0.3-0.3,0-0.6,0-0.9c0.3,0,0.3-0.3,0.6-0.6v-0.3c0.3,0.3,0.3,0.6,0.6,0.3v-0.3h0.3l-0.3-0.3l0.3-0.3c0.9,0.3,0.3-0.6,0.9-0.3
			v-0.3c0.3,0,0.6,0,0.9,0.3h-0.3c0.3,0.3,0.3,0.3,0.6,0.3l0.3-0.3c0.6,0.3,0.3,1.3,0.6,1.6h-0.3c0.6,0.3,0,0.9,0.6,0.9
			c0.3,0.6-0.6,0.6-0.3,0.9c0.3,0.3-0.3,0.6,0.3,0.6h0.3v0.9c-0.3,0.3,0.3,0.6-0.3,0.9l0.3,0.3c-0.6,0,0,0.3,0,0.6l0.6-0.6
			c0-0.3,0-1.2,0.3-1.5c-0.3,0,0-0.6,0.3-0.9c0.3-0.3-0.3-1.3,0.6-1.6l0.3-0.3H169c-0.3-0.6,0.6-0.6,0.3-1.5c0.6,0,0-0.3,0.6-0.6
			c0-0.3,0.3-0.9,0.6-1.3v0.3l0.3-0.3c0.3,0,0.3,0.3,0.3,0.3c0.3-0.3,0.3-0.3,0.6,0h0.3c0,0-0.3,0.3-0.3,0.6
			c0.2,0.2,0.3,0.2,0.5,0.2l-0.2,0.2c0,0.3,0.3,0,0.6,0l-0.3,0.3c0.9,0.3-0.3,0.6,0.3,0.6v0.3h-0.3c-0.3,0.3,0,0.3,0,0.3h0.6
			c0.3,0.3-0.2,0.3-0.1,0.5c-0.1,0.6,0.4,1.1,0.4,1.7h-0.3c0,0.5,0.2,0.5,0.3,0.5c-0.2,0-0.5,0.1-0.6,0.1l0.6,0.3
			c-0.3,0.3,0,0.3,0.3,0.3l-0.3,0.3c0.6,0.3,0.3,0.6,0.6,0.9c-0.3,0.3,0,0.9-0.6,1.2c0.3,0,0.6,0.3,0.6,1v0.3c0.3,0.3,0,0.6,0.3,1.2
			c0.3,1.3,0.3,2.2,0.6,2.9h0.3c0,0.3-0.3,0.9,0.1,0.9H175l0.3,0.3c-0.9,0.9-1.2-0.6-2.1-0.9c0-0.9-0.6-1.3-0.9-2.2
			c0-0.6-0.6-1.5-0.3-2.5c0.3-0.6-0.9-1.6-0.3-2.9h-0.3c0.3-1.2,0-2.5-0.3-4.1c-0.6,0,0,0.9-0.6,0.6c-0.3,0.6,0.3,0.3,0.3,0.9
			c-0.3-0.3-0.9,0-0.6,0.3h0.3l-0.3,0.3c0.3,0.3,0,0.9,0,0.9c-0.1,0.5-0.3,0.7-0.6,0.9h-0.3c0,0.6,0.3,0.6,0,1.3
			c-0.6,0,0,0.6-0.3,0.6v0.6l-0.3,0.3l0.3,0.6h-0.3c0,0.3-0.3,0.6-0.6,0.9h0.2c-0.1,0-0.2,0.1-0.2,0.3c-0.3,0.3,0.3,0.9-0.3,1.2
			h-0.3c0.3,0.3,0.6,0.9,0,1.3c-0.3,0-0.9,0-0.9-0.3h-0.3l0.3-0.3c-1.2-0.6-0.9-2.5-1.2-3.8c0.6,0,0.3-0.6,0.3-0.6
			c0-0.3,0.3-0.6,0-0.9c-0.3-0.3,0.3-0.9-0.3-1.3c0.6-0.3,0-0.6,0.3-1.2c0-0.6-0.3-1.3-0.3-1.9c0.3-0.3-0.3-0.3-0.3-0.6
			c-0.6-0.3-0.3,0.3-0.6,0.9c-0.9,0.3-0.9,1.6-1.8,1.9l0.3,0.3c-0.8,1.1-0.9,2.5-1.6,3.7l0.1,0h-0.1c0,0.1-0.1,0.2-0.2,0.3
			c0.3,0.3,0.3,0,0.3,0.3h-0.3c0,0.3,0.6,0.3,0.3,0.6c-0.3,0.3-0.3,0.3-0.6,0c-0.3,0-0.3,0.3-0.3,0.3c0,0.3,0.3,0,0.6,0l-0.3,0.3
			c0,0,0,0.3,0.2,0.3c-0.2,0-0.2-0.3-0.2,0c0,0.3-0.3,0.9,0,1.3c-0.3,0,0,0.3-0.3,0.3c0.3,0.6,0,1.3-0.3,1.9c0,0-0.6,0.3-0.6,0
			c-0.3,0.3-0.6,0.3-0.9,0.3c0-0.6-0.6-0.9-0.6-1.6l-0.3-1.6c0.2,0,0.3-0.2,0.1-0.3h0.2l-0.3-0.6h0.3c0-0.3-0.9-0.3-0.3-0.6
			c0-0.3-0.3-0.9,0.3-1.2l-0.3-0.3c0-0.3,0.3-0.3,0-0.6c0.3,0,0-0.3,0-0.3h-0.3c0.3-0.3,0.3-0.3,0-0.6l0.6-0.6h-0.6
			c0.9-0.6,0-2.1,0.8-2.8c-0.3,0.1-0.8-0.4-0.5-0.7l0.3-0.3c-0.9-0.6,0.3-0.9,0-1.3c-0.6-0.3,0.9-1.5-0.3-0.9v-0.9l0.3-0.6l-0.3-0.3
			v-0.3l0.3-0.3c-0.3,0-0.6-0.3-0.3-0.6l0.3-0.3v0.3c0.3,0,0.6-0.6,0.6-0.3l0.3,0.6c1.2,0.3-0.6,0.9,0.3,1.6l-0.3,0.3
			c0,0.6,0.6,1.6,0.3,2.5c-0.3,0.3,0.3,0.3,0,0.3c0,1.3,0.3,2.2,0,3.2c-0.3,0.6,0.6,1.2,0,1.9c0,0.3,0.3,0.6,0.6,0.9v-0.6
			c0,0,0.3,0.3,0.3,0c0,0,0-0.3-0.3-0.3c0,0,0-0.6,0.3-0.6V59.3z"/>
		<path id="XMLID_473_" class="st1" d="M186.4,65.2v0.3c0.3,0,0.6-0.3,0.9,0h0.3v-0.3c0.3,0.3,0.3-0.3,0.6,0.3l0.3-0.6v0.3h0.3
			c-0.3-0.2-0.2-0.3-0.1-0.3h-0.2c0.3-0.3,0.9,0.3,1.2,0.3l-0.3,0.6l-1.5,0.6v-0.3c-0.3,0-0.3,0.3-0.3,0.3v0.3
			c-0.3,0.6-1.2-0.3-1.5,0.6l-1.2,0.1c-0.6,0.6-1.2-0.6-1.8,0c-0.6-0.3-0.6,0.6-1.2,0c-0.3-0.3-0.6,0.3-0.6-0.3h-0.6
			c-0.3,0-0.6-0.3-0.6-0.6c-0.6,0.6-0.9,0-1.2,0c-0.3-0.3-0.9-0.6-0.6-1.2c-0.6,0,0-0.6-0.6-0.6c0-0.3-0.9-0.9-0.3-1.2
			c-0.6,0,0-0.9-0.3-1.5c0.6-0.3-0.6,0,0-0.6h0.3c0-0.3-0.6-0.3-0.3-0.6c0-0.3-0.3-1.2,0.3-1.2h0.2c-0.2,0,0-0.3-0.2-0.3
			c0-0.3,0-0.6,0.6-0.9c-0.3,0,0-0.3,0-0.6c0.6,0,0.3,0,0.9-0.3l-0.3-0.3h0.3v0.3l0.3-0.3c-0.3-0.3,0.3-0.3,0-0.6h0.3v-0.3h0.3
			c-0.6-0.3,0.3-0.6,0-0.9c0-0.3,0.6-0.3,0.9-0.6c0-0.2-0.2-0.3-0.3-0.3c0.1,0,0.4,0,0.3-0.2c0.2,0.2,0.3-0.1,0.5-0.1
			c0.6-0.6,1.2-0.3,1.2-0.9c0-0.9,1.5-0.3,1.2-1.2c0.3,0.3,0.3-0.3,0.6,0v0.3c0.3-0.6,0.9,0,1.2,0.3c-0.3,0.9,1.2,1.5,0.6,2.1
			c0,0.3,0.3,0.3,0,0.6l0.3,0.3L186,56c-0.3,1.5-1.2,3.6-3,4.5c-0.9,0.3-0.9,0.6-1.8,0.6c0,0.3-0.3,0.3-0.6,0.3l-0.3-0.3v0.3H180
			c0,0.3-0.3-0.3-0.6-0.3c-0.3-0.3-0.3-0.9-0.3-1.2c-0.9,1.5-1.2,3.6,0,5.1c0.6,0.6,1.5,0.6,2.1,0.9c0.6-0.3,1.5,0,1.8,0.3l0.3-0.3
			c0.3,0,0.6-0.3,0.9,0l0.3-0.1c0.3-0.3,0.6-0.3,0.9-0.3C185.8,65.5,186.1,65.5,186.4,65.2z M180.3,57.5c-0.9,0.6,0.3,0.9,0.3,1.5
			c-0.3,0-0.3,0.3-0.3,0.6c0.6,0,0.9-0.6,1.5-0.3c0-0.6,0.3-0.6,0.6-0.6V59l0.3-0.3c0.3-0.3,0.3-0.9,0.9-0.9
			c0.6-0.3,0.6-1.8,1.5-2.1h-0.3c0.6-0.3-0.3-0.6,0.3-0.9v-0.6c0-0.3-0.6-0.6-0.9-0.3C182.7,54.5,181.2,56,180.3,57.5z"/>
		<path id="XMLID_476_" class="st1" d="M202.1,59.1v0.2c0.1,0.3,0.3,0.5,0.3,0.8c-0.9,0,0.3,0.6,0,0.6c0-0.3-0.3,0.3-0.6,0.3
			c0.3,0.3,0.9,0,0.6,0.3v0.6c0-0.3-0.3-0.3-0.3-0.3c0.3,0.6,0.3,0.9,0,1.5c0.6,0.3-0.6,0.9,0.3,1.2c-0.3,0-0.1,0.3-0.3,0.3h0.3
			c0,0.3-0.3,0.3-0.3,0.3h-0.3c-0.3,0.6,0.3,0,0.3,0.6v0.9c0,0.3,0.3,0.9,0,1.2c0.3,0,0.3,0.3,0.3,0.6c-0.3,0.3-0.9,0-1.2,0l0.3,0.6
			c-0.6-0.3-0.3-0.6-0.6-0.9c-0.9-1.8,0-3.9-0.3-5.7c0.3-0.3,0.3-0.6,0-0.9c0-0.3,0.6-0.6,0.3-1.2c0.6-0.6-0.3-1.5,0.3-2.1
			c0.3,0.3,0.3,0,0.3-0.3l-0.3-0.3h0.6c0.6,0.3-0.3,0.9,0.3,0.9C201.8,58.5,201.9,58.8,202.1,59.1L202.1,59.1z M201.8,44.6h-0.3
			l0.3-0.3h-0.3c0.6-0.3,0.9,0.3,1.2,0.3h0.3c-0.6,0.3,0,0.6-0.3,0.9h0.6c-0.3,0.3,0.3,1.2-0.6,1.2V47h0.6v1.2L203,48v0.3l-0.3,0.3
			h0.3l0.3,1.2c-0.3,0-0.6-0.3-0.6,0c0.3,0.3,0.3,0.3,0.3,0.6c-0.6,0,0.3,0.6-0.3,0.6v0.3h-0.6v0.3c0,0-0.3,0-0.3-0.3l0.3-0.3
			c-0.3-0.3-0.6-0.3-0.3-0.9l0.3-0.3h-0.3v-0.3c-0.3-1.2-0.3-3-0.3-4.5L201.8,44.6z"/>
		<path id="XMLID_479_" class="st1" d="M206.7,54.1c0-0.3,0.8-0.3,0.8-0.9h-0.4c0.4-0.6,1.5-0.6,1.8-0.9h0.7v-0.6L210,52v-0.3
			c0.4,0,0,0.3,0.4,0.3l0.4-0.3l0.4,0.3c-0.4-0.6,0.3-0.3,0.7-0.6v0.3c0.4,0.3,1.1,0.6,1.5,0.6l-0.3,0.3v0.3l0.3-0.3l0.4,0.3v0.3
			c-0.4,0,0.4,0.6,0,0.6l0.4,0.3l-0.8,0.3h0.4c-0.4,0.3-0.7,0.9-1.1,1.2c-0.4-0.9,0.7-2.1-0.4-3c-0.8-0.3-1.5,0-1.8,0.3
			c-1.5,0.6-2.9,1.8-3.3,3c0.8,2.7,5.2,2.7,6.3,5.4v0.9c0.4,0,0.4,0.3,0.8,0.6c-0.4,0.3,0,0.6-0.4,0.9v-0.2
			c-0.1,0.5-0.4,0.8-0.4,1.4l-0.3-0.3c-0.4,0.3,0.3,0.3,0.3,0.6c-0.7,0-0.3,0.3-1.1,0.6c0,0,0.4,0.3,0.8,0c0,0.9-1.5,0.9-1.5,1.8V68
			c-0.3-0.3,0-0.6-0.3-0.6c-0.8,0.6,0.3,1.2-0.8,1.2l0.4,0.3c-0.3,0-0.8,0.2-0.9,0.4c-0.1-0.1-0.3,0-0.3,0.2h0.4
			c0,0.6-1.5,0-1.1,0.9h0.7c-0.7,0.3-1.1,0.3-1.5,0c-0.3-0.3-0.3-0.9-0.3-1.5c0.7,0,0-0.6,0.7-0.6c0.4,0-0.7-1.5,0.8-1.2v-0.3
			c0.3-0.3-0.4-0.3,0-0.6h0.3v-0.3l0.4,0.3v-0.3h0.4c-0.4-0.3,0-0.6,0.4-0.6c0-0.6,1.8-1.5,1.5-2.4l-0.4-0.9l0.4-0.3
			c-1.1,0,0-0.9-1.1-0.9c0-0.6-1.1-0.9-1.5-1.2c-0.3-0.6-0.7-0.3-1.1-0.3l-1.1-0.6c0.4-0.3-0.4-0.3-0.4-0.3c-0.4,0,0-0.9-0.8-0.6
			l-0.3-0.3v0.3l-0.8-1.2c0.4-1.2,0.4-2.1,1.1-2.7L206.7,54.1z"/>
		<path id="XMLID_481_" class="st1" d="M228.1,40l3.6,6.3l2.1,3c0.3,0.3,0.6,0.9,1.2,1.5c0.6,0.9,1.2,2.1,1.8,3l0.6-0.3
			c0-0.3-0.3-0.3,0-0.3s0-0.6,0.6-0.6c0-0.3,0-0.3-0.3-0.3c0.6-0.3,0-1.2,0.9-1.2l-0.3-0.3l0.6-0.3h-0.3l0.3-0.3v-0.3
			c0.6-0.6,0.6-1.5,1.8-1.8c-0.3,0-0.3-0.3,0-0.3c0.3,0.3,0-0.6,0.6-0.6l-0.3-0.3l0.3-0.3c0.2,0,0.3-0.1,0-0.3
			c0.3-0.3,0.3-0.6,0.6-0.6v-0.3c0.6,0,0-1.2,0.9-1.2c0.3-0.6,0.6-1.2,0.9-1.2c0.3-0.3-0.3-0.3,0-0.3c0-0.6,0.3-0.9,0.9-1.2
			c0-0.2-0.2-0.1-0.3,0c0.5-0.6,0-1.7,1.2-1.2l0.9,0.3c-0.3,0.6,0,1.2-0.6,1.5v0.3c-0.9,0.3-1.2,1.5-1.5,2.1c-0.6,0.3,0,0.6-0.6,0.9
			l-2.7,4.8c-0.3,0.3-0.3,0.3-0.6,0.9c-0.6,0.9-0.9,2.7-1.8,3.3l0.3,0.3h-0.3l-0.3,0.6h0.3c0,1.5-0.3,3.3-0.3,4.8
			c-0.3,0.3-0.3,0.9,0,1.5c-0.3,0.6-0.3,1.5-0.6,1.8c0.3,0.9,0,1.5,0.3,2.7c0,0.6-0.3,1.2-0.3,1.8c0.6,0.3-0.3,0.9,0.3,1.5
			c-0.3,0.3,0,1.5-0.3,1.8c0,0,0.3,0,0,0.3l-0.3,0.3l-0.3-0.3c-0.3,0,0,0,0,0.3c-0.3-0.3-0.6-0.6-0.6-0.9l-0.3-0.6
			c-0.3,0,0.3-0.3,0.3-0.3l0.2,0.2c-0.1-0.1-0.3-0.2-0.5,0.1h0.6c0-0.3-0.3-0.3,0-0.6c-0.3,0-1.2,0.3-1.2-0.3
			c0.3-0.6,0.3-1.2,0.3-1.8c-0.3-0.9,0.3-2.1-0.3-3.3c0.9-0.6-0.3-1.5,0.6-1.8c-0.6-0.6,0-1.5,0-1.8h0.3l-0.3-0.3
			c0.6-0.3-0.3-1.2,0.3-1.5c-0.3-0.6-0.3-0.9,0-1.5v-0.3c0.6-0.3,0-0.9,0.3-1.5c0,0-0.3-0.6-0.3-1.2c-0.3,0-0.6-0.3-0.6-0.6
			c-0.6-0.6-0.9-1.5-1.5-2.1h0.3c-0.9-0.6-0.9-1.5-1.8-1.8c-0.3-0.6-0.6-0.9-0.9-1.8c-0.6-0.3-0.9-1.2-1.2-1.8
			c-1.5-2.1-2.7-4.8-4.2-6.9C227.2,39.4,227.5,39.7,228.1,40z"/>
		<path id="XMLID_483_" class="st1" d="M253.6,65.2v0.3c0.3,0,0.6-0.3,0.9,0h0.3v-0.3c0.3,0.3,0.3-0.3,0.6,0.3l0.3-0.6v0.3h0.3
			c-0.3-0.2-0.2-0.3-0.1-0.3h-0.2c0.3-0.3,0.9,0.3,1.2,0.3l-0.3,0.6l-1.5,0.6v-0.3c-0.3,0-0.3,0.3-0.3,0.3v0.3
			c-0.3,0.6-1.2-0.3-1.5,0.6l-1.2,0.1c-0.6,0.6-1.2-0.6-1.8,0c-0.6-0.3-0.6,0.6-1.2,0c-0.3-0.3-0.6,0.3-0.6-0.3h-0.6
			c-0.3,0-0.6-0.3-0.6-0.6c-0.6,0.6-0.9,0-1.2,0c-0.3-0.3-0.9-0.6-0.6-1.2c-0.6,0,0-0.6-0.6-0.6c0-0.3-0.9-0.9-0.3-1.2
			c-0.6,0,0-0.9-0.3-1.5c0.6-0.3-0.6,0,0-0.6h0.3c0-0.3-0.6-0.3-0.3-0.6c0-0.3-0.3-1.2,0.3-1.2h0.2c-0.2,0,0-0.3-0.2-0.3
			c0-0.3,0-0.6,0.6-0.9c-0.3,0,0-0.3,0-0.6c0.6,0,0.3,0,0.9-0.3l-0.3-0.3h0.3v0.3l0.3-0.3c-0.3-0.3,0.3-0.3,0-0.6h0.3v-0.3h0.3
			c-0.6-0.3,0.3-0.6,0-0.9c0-0.3,0.6-0.3,0.9-0.6c0-0.2-0.2-0.3-0.3-0.3c0.1,0,0.4,0,0.3-0.2c0.2,0.2,0.3-0.1,0.5-0.1
			c0.6-0.6,1.2-0.3,1.2-0.9c0-0.9,1.5-0.3,1.2-1.2c0.3,0.3,0.3-0.3,0.6,0v0.3c0.3-0.6,0.9,0,1.2,0.3c-0.3,0.9,1.2,1.5,0.6,2.1
			c0,0.3,0.3,0.3,0,0.6l0.3,0.3l-0.3,0.3c-0.3,1.5-1.2,3.6-3,4.5c-0.9,0.3-0.9,0.6-1.8,0.6c0,0.3-0.3,0.3-0.6,0.3l-0.3-0.3v0.3h-0.3
			c0,0.3-0.3-0.3-0.6-0.3c-0.3-0.3-0.3-0.9-0.3-1.2c-0.9,1.5-1.2,3.6,0,5.1c0.6,0.6,1.5,0.6,2.1,0.9c0.6-0.3,1.5,0,1.8,0.3l0.3-0.3
			c0.3,0,0.6-0.3,0.9,0l0.3-0.1c0.3-0.3,0.6-0.3,0.9-0.3C253,65.5,253.3,65.5,253.6,65.2z M247.5,57.5c-0.9,0.6,0.3,0.9,0.3,1.5
			c-0.3,0-0.3,0.3-0.3,0.6c0.6,0,0.9-0.6,1.5-0.3c0-0.6,0.3-0.6,0.6-0.6V59l0.3-0.3c0.3-0.3,0.3-0.9,0.9-0.9
			c0.6-0.3,0.6-1.8,1.5-2.1h-0.3c0.6-0.3-0.3-0.6,0.3-0.9v-0.6c0-0.3-0.6-0.6-0.9-0.3C249.9,54.5,248.4,56,247.5,57.5z"/>
		<path id="XMLID_486_" class="st1" d="M267.2,65.2v0.3c0.3,0,0.6-0.3,0.9,0h0.3v-0.3c0.3,0.3,0.3-0.3,0.6,0.3l0.3-0.6v0.3h0.3
			c-0.3-0.2-0.2-0.3-0.1-0.3h-0.2c0.3-0.3,0.9,0.3,1.2,0.3l-0.3,0.6l-1.5,0.6v-0.3c-0.3,0-0.3,0.3-0.3,0.3v0.3
			c-0.3,0.6-1.2-0.3-1.5,0.6l-1.2,0.1c-0.6,0.6-1.2-0.6-1.8,0c-0.6-0.3-0.6,0.6-1.2,0c-0.3-0.3-0.6,0.3-0.6-0.3h-0.6
			c-0.3,0-0.6-0.3-0.6-0.6c-0.6,0.6-0.9,0-1.2,0c-0.3-0.3-0.9-0.6-0.6-1.2c-0.6,0,0-0.6-0.6-0.6c0-0.3-0.9-0.9-0.3-1.2
			c-0.6,0,0-0.9-0.3-1.5c0.6-0.3-0.6,0,0-0.6h0.3c0-0.3-0.6-0.3-0.3-0.6c0-0.3-0.3-1.2,0.3-1.2h0.2c-0.2,0,0-0.3-0.2-0.3
			c0-0.3,0-0.6,0.6-0.9c-0.3,0,0-0.3,0-0.6c0.6,0,0.3,0,0.9-0.3l-0.3-0.3h0.3v0.3l0.3-0.3c-0.3-0.3,0.3-0.3,0-0.6h0.3v-0.3h0.3
			c-0.6-0.3,0.3-0.6,0-0.9c0-0.3,0.6-0.3,0.9-0.6c0-0.2-0.2-0.3-0.3-0.3c0.1,0,0.4,0,0.3-0.2c0.2,0.2,0.3-0.1,0.5-0.1
			c0.6-0.6,1.2-0.3,1.2-0.9c0-0.9,1.5-0.3,1.2-1.2c0.3,0.3,0.3-0.3,0.6,0v0.3c0.3-0.6,0.9,0,1.2,0.3c-0.3,0.9,1.2,1.5,0.6,2.1
			c0,0.3,0.3,0.3,0,0.6l0.3,0.3l-0.3,0.3c-0.3,1.5-1.2,3.6-3,4.5c-0.9,0.3-0.9,0.6-1.8,0.6c0,0.3-0.3,0.3-0.6,0.3l-0.3-0.3v0.3h-0.3
			c0,0.3-0.3-0.3-0.6-0.3c-0.3-0.3-0.3-0.9-0.3-1.2c-0.9,1.5-1.2,3.6,0,5.1c0.6,0.6,1.5,0.6,2.1,0.9c0.6-0.3,1.5,0,1.8,0.3l0.3-0.3
			c0.3,0,0.6-0.3,0.9,0l0.3-0.1c0.3-0.3,0.6-0.3,0.9-0.3C266.6,65.5,266.9,65.5,267.2,65.2z M261.2,57.5c-0.9,0.6,0.3,0.9,0.3,1.5
			c-0.3,0-0.3,0.3-0.3,0.6c0.6,0,0.9-0.6,1.5-0.3c0-0.6,0.3-0.6,0.6-0.6V59l0.3-0.3c0.3-0.3,0.3-0.9,0.9-0.9
			c0.6-0.3,0.6-1.8,1.5-2.1h-0.3c0.6-0.3-0.3-0.6,0.3-0.9v-0.6c0-0.3-0.6-0.6-0.9-0.3C263.6,54.5,262.1,56,261.2,57.5z"/>
		<path id="XMLID_489_" class="st1" d="M271.4,62.3l-0.6-0.3c-0.3-0.3,0.9-0.9,0.3-1.5c0.6,0,0-0.6,0.3-0.9c-0.3-0.3,0.6-0.6,0-0.9
			c0.6-0.6,0-1.5,0-2.1c-0.3-0.6,0-1.2,0-1.8c0-0.3-0.3-0.9,0.3-1.2c-0.3-0.6,0-1.5-0.3-2.1h0.3c-0.3-0.6,0.3-1.5-0.3-2.1
			c0.3-0.9,0.3-2.1,0.9-3c1.2,0,0.6,1.2,0.9,1.8c-0.6,1.2,0.9,2.1-0.3,3l-0.3,4.5c0,0.9,0,2.7,0.3,3.9c0,0,0.3,0.3,0.6,0l-0.3-0.3
			c0.6-0.3,0.9-0.6,1.2-0.3c0-0.6,0-0.9,0.6-0.9h0.3l0.3-0.9c0.3,0,0.3,0.3,0.6,0.3l0.3-0.3h-0.6c0.2-0.2,0.5,0,0.6-0.2v0.2
			c0-0.2,0.3-0.6,0.6-0.6c0,0-0.3-0.3,0-0.3V56l0.9-0.6v0.3l0.5-0.5l0.1,0.2c0-0.1-0.1-0.2,0-0.2l0.1-0.1h-0.1
			c0.1-0.2,0.5-0.4,0.7-0.6v-0.3c0.6,0.6,0.9-0.3,1.5,0c0-0.3,0.3-0.3,0-0.6h-0.3v0.3h-0.6c0.6-0.3,0.3-0.9,0.9-1.2l0.6,0.3
			c-0.1,0.1-0.5,0.3-0.3,0.3c0.3,0,0.3-0.6,0.6-0.3l0.3,0.3c-0.6,0,0,0.3-0.3,0.3c-0.6,0.3-0.9,1.2-1.5,1.5l-3,3h-0.3
			c-0.3,0.3-0.6,0.9-1.2,0.9c0,0.3-0.6,0.9-0.9,1.2c0,0.6-1.2,0-0.9,0.9c-0.3,0-0.3,0-0.6,0.3l3.6,2.7l3.6,1.8l0.8,0.3
			c1.2,0.4,2.5,0.9,3.4,1.5c0,0.3-0.3,0-0.3,0.3c0.3,0.3,0.6-0.3,0.6,0l-0.9,0.3c-0.3,0-0.6-0.6-1.5-0.3c0-0.3,0-0.3-0.3-0.3
			s-1.2-0.6-1.5-0.3l-0.5-0.2l-0.7-0.4l-0.9-0.3v-0.3l-0.2,0.2c-0.3,0-0.9,0.2-0.7-0.5c-0.3,0-0.6-0.3-0.9,0c-0.3-0.3,0.3-0.6,0-0.6
			s0,0.3-0.3,0.3v-0.3h-0.3l-0.3-0.3v0.3c-0.3-0.6-1.2-0.3-1.2-0.9h-0.3v-0.3c-0.6,0-0.9-0.3-1.2-0.9c-0.3,0.3-0.3,0.3-0.3,0.6
			c0,0.9,0,2.9,0.3,3.5l-0.3,0.3c0,0-0.3,0.3,0,0.6c-0.3,0.3,0.3,0.9-0.3,0.9l-0.3,0.9c0-0.3-0.6,0-0.6-0.3l0.3-0.3
			c-0.6-0.3-0.3-1.2-0.3-1.8s0.3-2.6,0-3.2c-0.3,0-0.3-0.3-0.3-0.3c0.6,0,0.3-0.6,0.3-0.9l-0.6-0.3c0,0,0.3,0,0.3-0.3V62.3z"/>
		<path id="XMLID_491_" class="st1" d="M287,51c0-0.3,0.1-0.7,0.3-0.7c-0.3-0.4,0-1.1,0-1.5c0-0.4,0-1.1,0.3-1.1
			c-0.3-0.4,0.3-1.1-0.3-1.5c0-1.1-0.3-2.2,0-2.6v-0.4h0.3c-0.6-1.1,0.3-1.5,0.3-2.6l0.9-0.4l1.2,1.1h-0.3c0.2,0.3,0.3,0.2,0.3,0.2
			c0,0.7,0.6,1.4,0,2.1c0.3,0,0.3,0.3,0.3,0.3c-0.9,0.4,0.3,1.1-0.3,1.5c0.3,0.4,0,1.1,0,1.1c-0.3,0-0.3,0-0.6,0.3h0.6l-0.3,0.8
			c0.3,0.3-0.6,0.7,0,1.1l-0.3,0.4c0,0,0-0.4-0.3-0.4c0,0.4,0.3,0.7,0.3,0.7V50l-0.3,0.4h0.3c0,0.3,0,0.7-0.2,0.7
			c0.2,0.1-0.1,0.4-0.1,0.8l-0.3,0.4c0.3,0.3,0.3,0.7,0,1.1v0.4c0.3,0-0.3,0.7-0.3,0.7c0,0.2,0.1,0.3,0.2,0.4
			c-0.4,0.1,0.3,0.7-0.5,0.7c0,0.3,0.2,0.4,0.2,0.4c-0.2,0-0.2,0.4-0.2,0.4c-0.3,0.3,0,0.3-0.3,0.7h0.3c-0.3,0.4,0.3,0.4,0,0.8
			c-0.3,0.3,0.3,1.1-0.3,1.5h0.3c-0.3,0.7,0.3,1.1-0.3,1.8l-0.3,0.4c-0.6-1.1-0.6-1.5-0.6-2.6c0-0.4-0.3-1.1,0-1.1
			c0.3,0,0.3-0.4,0-0.4l-0.6-0.4l0.6-0.4c-0.3-0.3-0.6,0-0.6-0.3l0.3-0.4v0.4c0,0,0.3,0,0.3-0.3v-0.1h-0.3c0,0,0.1-0.1,0.1-0.1
			c-0.6-0.5,0.2-1.4,0.2-1.8h0.3c0.3-0.3-0.3-0.3-0.3-0.7c0.3,0,0-0.8,0-1.1c-0.6,0,0.3-0.8,0-0.8V51z M286.7,67.3
			c-0.3-0.3,0-0.9,0-1.2c0.3-0.3,1.2-0.3,0.9-0.9c0.6-0.3,0.9,0.3,0.9,0.9c-0.3,0.6,0,1.2,0.3,1.8h-0.5c0.6,0.1,0.2,0.9,0.2,1.2
			c0.3,0-0.3,0.6,0,0.9c0,0-0.6,0-0.6,0.3h0.3c-0.3,0.3-0.6,0.3-1.2,0.3l-0.4-1.2l-0.2,0.2c0.2-0.3,0-0.8,0-0.8
			C286.7,68.2,286.4,67.6,286.7,67.3z"/>
		<path id="XMLID_494_" class="st1" d="M297.4,51c0-0.3,0.1-0.7,0.3-0.7c-0.3-0.4,0-1.1,0-1.5c0-0.4,0-1.1,0.3-1.1
			c-0.3-0.4,0.3-1.1-0.3-1.5c0-1.1-0.3-2.2,0-2.6v-0.4h0.3c-0.6-1.1,0.3-1.5,0.3-2.6l0.9-0.4l1.2,1.1h-0.3c0.2,0.3,0.3,0.2,0.3,0.2
			c0,0.7,0.6,1.4,0,2.1c0.3,0,0.3,0.3,0.3,0.3c-0.9,0.4,0.3,1.1-0.3,1.5c0.3,0.4,0,1.1,0,1.1c-0.3,0-0.3,0-0.6,0.3h0.6l-0.3,0.8
			c0.3,0.3-0.6,0.7,0,1.1l-0.3,0.4c0,0,0-0.4-0.3-0.4c0,0.4,0.3,0.7,0.3,0.7V50l-0.3,0.4h0.3c0,0.3,0,0.7-0.2,0.7
			c0.2,0.1-0.1,0.4-0.1,0.8l-0.3,0.4c0.3,0.3,0.3,0.7,0,1.1v0.4c0.3,0-0.3,0.7-0.3,0.7c0,0.2,0.1,0.3,0.2,0.4
			c-0.4,0.1,0.3,0.7-0.5,0.7c0,0.3,0.2,0.4,0.2,0.4c-0.2,0-0.2,0.4-0.2,0.4c-0.3,0.3,0,0.3-0.3,0.7h0.3c-0.3,0.4,0.3,0.4,0,0.8
			c-0.3,0.3,0.3,1.1-0.3,1.5h0.3c-0.3,0.7,0.3,1.1-0.3,1.8l-0.3,0.4c-0.6-1.1-0.6-1.5-0.6-2.6c0-0.4-0.3-1.1,0-1.1s0.3-0.4,0-0.4
			l-0.6-0.4l0.6-0.4c-0.3-0.3-0.6,0-0.6-0.3l0.3-0.4v0.4c0,0,0.3,0,0.3-0.3v-0.1h-0.3c0,0,0.1-0.1,0.1-0.1c-0.6-0.5,0.2-1.4,0.2-1.8
			h0.3c0.3-0.3-0.3-0.3-0.3-0.7c0.3,0,0-0.8,0-1.1c-0.6,0,0.3-0.8,0-0.8V51z M297.1,67.3c-0.3-0.3,0-0.9,0-1.2
			c0.3-0.3,1.2-0.3,0.9-0.9c0.6-0.3,0.9,0.3,0.9,0.9c-0.3,0.6,0,1.2,0.3,1.8h-0.5c0.6,0.1,0.2,0.9,0.2,1.2c0.3,0-0.3,0.6,0,0.9
			c0,0-0.6,0-0.6,0.3h0.3c-0.3,0.3-0.6,0.3-1.2,0.3l-0.4-1.2l-0.2,0.2c0.2-0.3,0-0.8,0-0.8C297.1,68.2,296.8,67.6,297.1,67.3z"/>
		<path id="XMLID_497_" class="st1" d="M307.7,51c0-0.3,0.1-0.7,0.3-0.7c-0.3-0.4,0-1.1,0-1.5c0-0.4,0-1.1,0.3-1.1
			c-0.3-0.4,0.3-1.1-0.3-1.5c0-1.1-0.3-2.2,0-2.6v-0.4h0.3c-0.6-1.1,0.3-1.5,0.3-2.6l0.9-0.4l1.2,1.1h-0.3c0.2,0.3,0.3,0.2,0.3,0.2
			c0,0.7,0.6,1.4,0,2.1c0.3,0,0.3,0.3,0.3,0.3c-0.9,0.4,0.3,1.1-0.3,1.5c0.3,0.4,0,1.1,0,1.1c-0.3,0-0.3,0-0.6,0.3h0.6l-0.3,0.8
			c0.3,0.3-0.6,0.7,0,1.1l-0.3,0.4c0,0,0-0.4-0.3-0.4c0,0.4,0.3,0.7,0.3,0.7V50l-0.3,0.4h0.3c0,0.3,0,0.7-0.2,0.7
			c0.2,0.1-0.1,0.4-0.1,0.8l-0.3,0.4c0.3,0.3,0.3,0.7,0,1.1v0.4c0.3,0-0.3,0.7-0.3,0.7c0,0.2,0.1,0.3,0.2,0.4
			c-0.4,0.1,0.3,0.7-0.5,0.7c0,0.3,0.2,0.4,0.2,0.4c-0.2,0-0.2,0.4-0.2,0.4c-0.3,0.3,0,0.3-0.3,0.7h0.3c-0.3,0.4,0.3,0.4,0,0.8
			c-0.3,0.3,0.3,1.1-0.3,1.5h0.3c-0.3,0.7,0.3,1.1-0.3,1.8l-0.3,0.4c-0.6-1.1-0.6-1.5-0.6-2.6c0-0.4-0.3-1.1,0-1.1
			c0.3,0,0.3-0.4,0-0.4l-0.6-0.4l0.6-0.4c-0.3-0.3-0.6,0-0.6-0.3l0.3-0.4v0.4c0,0,0.3,0,0.3-0.3v-0.1h-0.3c0,0,0.1-0.1,0.1-0.1
			c-0.6-0.5,0.2-1.4,0.2-1.8h0.3c0.3-0.3-0.3-0.3-0.3-0.7c0.3,0,0-0.8,0-1.1c-0.6,0,0.3-0.8,0-0.8V51z M307.4,67.3
			c-0.3-0.3,0-0.9,0-1.2c0.3-0.3,1.2-0.3,0.9-0.9c0.6-0.3,0.9,0.3,0.9,0.9c-0.3,0.6,0,1.2,0.3,1.8h-0.5c0.6,0.1,0.2,0.9,0.2,1.2
			c0.3,0-0.3,0.6,0,0.9c0,0-0.6,0-0.6,0.3h0.3c-0.3,0.3-0.6,0.3-1.2,0.3l-0.4-1.2l-0.2,0.2c0.2-0.3,0-0.8,0-0.8
			C307.4,68.2,307.1,67.6,307.4,67.3z"/>
		<path id="XMLID_500_" class="st1" d="M314.3,72.8c0-0.2,0-0.3,0.2-0.5l0.2-0.2c-0.2-0.5,0.5-0.5,0.5-0.8c-0.3-0.2,0-0.2,0-0.3
			c0-0.2,0.2-0.5,0.5-0.5c0-0.2,0-0.5,0.3-0.6c0.4-1,1.1-2,1.4-3.1c0.1-0.2,0.1-0.4,0.2-0.6c0.1-0.5,0-1.1-0.2-1.7
			c-0.2-0.5,0.2-0.5,0.2-0.7c0.2-0.1,0.9-0.1,1,0.4h-0.2c0.3,0.3,0.2,0.6,0.5,0.9c-0.2,0.2,0.2,0.3,0,0.5l-0.2,0.5h0.2
			c-0.2,0.6-0.5,0.8-0.3,1.4c-0.2,0.5-0.7,0.6-0.5,1.2h-0.2l-0.2,0.3c-0.2,0.2-0.2,0.2-0.2,0.3c0,0-0.2,0-0.2,0.2h0.2l-0.2,0.2
			c0,0.2-0.2,0.2,0,0.3c-0.2,0.3-0.5,0.3-0.5,0.6l-1.5,2.2c0.2,0.2-0.2,0.2-0.2,0.3l-0.1-0.2c0.1,0.2-0.1,0.3-0.2,0.5h-0.2
			c0.2-0.2,0.3-0.3,0.2-0.4c0.1,0-0.4-0.2-0.4-0.2C314.5,72.6,314.3,72.8,314.3,72.8z"/>
		<path id="XMLID_502_" class="st1" d="M324.2,42.9c0,0,0.3,0.3,0.3-0.3h-0.3v-0.9h0.3c0-0.3-0.9-0.6,0-0.9c0.3-0.3,0.6-0.3,1.2-0.3
			c0,0,0.3,0.3,0.3,0.6h-0.3l0.6,0.3c-0.9,0,0.3,0.9-0.6,0.9l0.3,0.3c0.6,0.3-0.3,0.3,0,0.9h0.3c0.3,0.3-0.3,0.3-0.3,0.6h0.2
			c-0.2,0.1,0.1,0.3,0.1,0.3c0,0.3-0.9,0.6-0.3,1.2c0,0.3-0.3,0.3-0.3,0.6h0.2c-0.6,0.1,0,0.8-0.6,0.9c0.3,0,0.3,0.2,0.3,0.3
			c-0.1,0-0.2,0-0.2,0l-0.3,0.6v-0.3h-0.3c0-0.3-0.3-0.9-0.3-1.2c-0.3,0,0-0.3-0.3-0.3c-0.3-0.3,0-0.6,0-0.6
			C323.9,44.7,324.2,44.1,324.2,42.9z M329,43.2c0.3,0-0.3-0.3,0-0.6c0.1-0.2,0.1-0.4,0.1-0.6c-0.1-0.5-0.3-1.2-0.1-2.1
			c0.3-0.6,0.9-0.6,1.5-0.6h0.3v0.3c0.6-0.3,0,0.6,0.6,0.6c-0.3,0.6,0.3,2.1-0.3,2.7c0.3,0,0,0.6,0.3,0.9l-0.3,0.3
			c0.3,0,0,0.3,0,0.3v0.3c0.3,0.3-0.6,0.3-0.3,0.6c0.3,0,0,0.3,0,0.6h0.3c-0.6,0.3,0,0.9,0,1.5h-0.3c0,0,0,0.9-0.6,1.2
			c-0.3,0-0.6-0.6-0.6-0.9v-0.3c-0.6,0-0.3-0.6-0.6-0.9c0-0.3,0.6-0.3,0.3-0.6c0-0.3-0.9-0.6-0.3-0.9l-0.3-0.3l0.3-0.3h-0.3
			c0.6-0.3,0-0.6,0.3-0.9V43.2z"/>
	</g>
</g>
<g id="XMLID_456_">
</g>
<g id="XMLID_505_">
</g>
<g id="XMLID_506_">
</g>
<g id="XMLID_507_">
</g>
<g id="XMLID_508_">
</g>
<g id="XMLID_509_">
</g>
</svg>
